<?xml version="1.0" encoding="UTF-8"?>
<svg id="Layer_1" data-name="Layer 1" xmlns="http://www.w3.org/2000/svg" viewBox="0 0 1325.59 556.13">
  <path d="m397.15,536.28h31.19v18.63h-51.47v-80.15h50.59v18.08h-30.32v11.69h28.36v18.09h-28.36v13.65Zm127.17-43.54h20.4v62.18h19.61v-62.18h20.29v-17.98h-60.3v17.98Zm-38.96,12.68c-10.55-2.49-13.15-4.08-13.15-7.7,0-2.83,2.5-5.32,7.61-5.32,6.74,0,14.35,2.72,21.31,7.81l10.54-15.51c-8.26-6.91-18.37-10.53-31.31-10.53-18.26,0-29.46,10.64-29.46,25.36,0,16.73,12.5,21.28,28.7,25.13,10.33,2.49,12.83,4.53,12.83,7.81s-3.04,5.43-8.7,5.43c-8.81,0-17.18-3.28-24.68-9.51l-11.74,14.6c9.35,8.72,22.18,13.13,35.66,13.13,18.48,0,30.77-9.62,30.77-25.81,0-14.83-10.87-20.94-28.37-24.9Zm137.41-30.66c17.21,0,26.21,13.33,26.21,26.5.12,7.44-2.59,14.54-7.44,19.48-4.75,4.83-11.25,7.39-18.77,7.39h-20.17v-53.37h20.17m-4.89,38.22h5.36c7.22,0,10.45-5.84,10.45-11.62s-3.27-11.45-10.45-11.45h-5.36v23.07Zm-5.79,33.93c0,5.02,4.07,9.09,9.09,9.09s9.1-4.07,9.1-9.09-4.07-9.09-9.1-9.09-9.09,4.07-9.09,9.09m86.09-72.15v16.56h11.34v63.6h19.4v-80.15h-30.74Zm115.65,56.6c0,3.98-.84,7.7-2.53,11.16-1.69,3.46-3.76,6.13-6.21,8.01-2.46,1.88-5.51,3.27-9.17,4.15-3.66.89-7.56,1.33-11.7,1.33-7.78,0-13.73-1-17.84-2.99-4.11-1.99-7.23-4.93-9.37-8.8-2.14-3.88-3.21-8.2-3.21-12.98s1-8.63,3.01-11.87c2-3.24,5.09-5.75,9.27-7.52-3.21-1.85-5.54-3.91-7.01-6.19-2-3.12-3.01-6.7-3.01-10.75,0-6.66,2.89-12.11,8.67-16.35,4.51-3.26,10.47-4.89,17.88-4.89,9.82,0,17.08,2.02,21.77,6.08,4.69,4.06,7.04,9.16,7.04,15.32,0,3.59-.93,6.94-2.81,10.05-1.4,2.32-3.61,4.56-6.61,6.74,3.98,2.06,6.94,4.8,8.9,8.2,1.95,3.4,2.93,7.17,2.93,11.29Zm-38.41-35.09c0,4.59,3.71,8.32,8.28,8.32s8.28-3.73,8.28-8.32-3.71-8.32-8.28-8.32-8.28,3.73-8.28,8.32Zm18.01,34.18c0-5.51-4.36-9.98-9.73-9.98s-9.73,4.47-9.73,9.98,4.36,9.98,9.73,9.98,9.73-4.47,9.73-9.98Zm100.71-1.98c0,16.98-11.8,27.53-30.8,27.53s-30.59-10.55-30.59-27.53c0-5.69,1.95-12.18,5.2-17.37l22.69-36.89h22.32l-16.86,27.71c8.39-.3,15.37,2.17,20.48,7.09,4.94,4.77,7.56,11.51,7.56,19.47Zm-19.82-.21c0-5.73-4.91-10.37-10.96-10.37s-10.96,4.64-10.96,10.37,4.91,10.37,10.96,10.37,10.96-4.64,10.96-10.37Zm97.02-26.96c-.11,6.54-1.77,11.86-5.53,17.81l-22.59,35.79h-22.32l17.58-27.06h-.12c-8.62.25-15.9-2.16-21.05-7.13-4.89-4.72-7.47-11.44-7.47-19.42,0-17.05,11.8-27.64,30.81-27.64s30.7,10.59,30.7,27.64Zm-19.74.15c0-5.73-4.91-10.37-10.96-10.37s-10.96,4.64-10.96,10.37,4.91,10.37,10.96,10.37,10.96-4.64,10.96-10.37Zm-374-211.55c.02-2.15-2.39-4.7-5-2.8-6.52,4.09-20.82,11.72-41.32,13.71l-74.86,8.43-11.84-86.59c22.1-2.9,44.41-5.57,58.38-6.97,15.44-1.55,25.5.57,31.38,2.31,4.13,1.5,6.11-1.04,5.79-3.79l-5.93-70.81c-.5-3.88-3.14-3.87-5.86-2.27-5.06,2.98-13,5.41-32.46,7.37-18.48,1.87-39.83,4.28-60.5,6.95l-10.02-73.26c8.93-1.42,38.88-6.73,75.37-10.51,26.7-2.85,42.27.33,47.69,2.02,3.26,1.24,4.73-1,4.63-3.02l-3.86-67.28c-76.4,5.28-143.07,15.13-212.45,27.55-4,.72-4.64,3.45-2.95,6.31,6.81,11.21,9.35,26.65,12.32,46.79l36.28,246.83c3.47,19.82,5.26,35.23,3.48,48.76-.76,4.03,2.46,5.29,5.49,4.76,60.96-10.54,128.95-19,190.8-22.34l-4.55-72.16Zm40.48,70.98c29.61-1.13,54.74-1.51,85.5-.88,2.9.06,3.11-2.15,2.33-4.25-4.57-12.05-5.43-35.3-5.32-51.03l.36-254.39c.63-16.35.21-26.53,5.84-44.98.44-1.48.95-4.93-3.3-5.06-26.42-.69-63.27-.08-85.32.74-4,.16-3.54,3.14-3.11,4.56,4.75,15.36,6.2,31.41,6.48,47.09l.33,252.26c-.11,18.02-.09,36.46-5.94,51.5-1.16,2.54-.36,4.53,2.15,4.44Zm426.61-265.65c4.84-20.55,6.78-32.31,15.92-45.03,1.93-2.05,1.42-4.36-.93-4.87-22.8-4.98-54.93-11.72-76.16-15.49-3.63-.57-4.63,1.43-4.18,3.81,2.33,12.94,1.3,25.63-4.09,49.15l-27.75,152.92L878.05,13.42c-20.45-2.74-53.17-6.27-80.52-8.54-3.92-.32-5.66,2.08-4.76,5.24,3.97,15.84,1.4,33.81,0,46.54l-29.28,254.02c-1.6,12.8-4.52,32.57-11.37,46.28-.4.82-1.82,4.73,2.16,4.96,20.85,1.26,51.65,3.94,76.14,6.85,2.44.28,4.13-.58,3.3-3.85-4.53-15.13-2.22-35.07-.69-48.11l18.59-160.52c.66,1.91,58.6,190.05,69.85,224.99,19.11,3.38,39.91,7.58,67.01,13.27,4.1.87,5.06-2.45,4.66-4.54-2.07-14.87-1.38-28.64,1.37-42.7,0,0,50.25-252.14,50.19-252.07Zm204.25,295c-14.95,1.02-35.61-2.47-49.81-7.35-32.14-10.51-43.08-13.95-62.88-20.16l189.33-169.08-1.19-65.32c-83.46-32.43-137.76-48.91-193.92-65.14l-20.24,66.75c-.78,2.36.61,4.91,4.2,4.77,14.73-.59,38.25,5.32,50.43,8.97,14.32,4.28,68.27,21.66,79.5,25.83l-201.07,181.13,1.05,57.43c57.98,14.69,120.81,34.03,175.03,54.91l33.64-66.49c1.41-2.78.74-6.49-4.07-6.23Zm-900.2-3.52c-8.84-12.77-14.92-29.32-18.85-46.92l-69.12-239.86c-3.6-14.4-6.31-31.14-4.85-46.77.4-2.11-1.95-3.6-3.63-3.19-19.69,4.73-57.04,14.6-81.52,21.69-2.63.78-4.05,2.81-2.42,5.81,6.52,10.62,12.82,26.44,17.02,43.99l23.23,78.31c-22.09,5.53-63.21,17.74-85.97,24.65l-24.78-75.41c-6.53-17.87-8.71-30.06-9.08-45.52,0,0,.52-5.77-4.54-4.21-23.56,7.83-57.22,20.86-81.8,30.32-3.08,1.18-3.12,3.82-.86,6.43,10.42,12.84,16.74,26.99,21.92,42.47l77.12,229.26c5.7,15.62,10.75,30.52,10.28,47.49-.05,1.5.58,5.06,4.41,3.58,22.77-8.1,55.45-19.71,79.88-27.19,2.27-.69,2.99-3.26.98-5.33-8.61-10.48-16.35-28.01-20.23-39.61l-32.2-98.01c34.61-10.4,51.46-15.3,84.1-24.03l27.7,93.36c5.87,23.92,7.07,36.6,5.78,50.19-.2,1.79,1.41,4.13,4.15,3.4,23.4-6.35,52.55-13.45,81.44-19.56,3.37-.72,2.92-3.86,1.81-5.35Z"/>
</svg>