<?xml version="1.0" encoding="UTF-8" standalone="no"?>
<svg xmlns:rdf="http://www.w3.org/1999/02/22-rdf-syntax-ns#" xmlns="http://www.w3.org/2000/svg" height="355.683" width="708.661" version="1.0" xmlns:cc="http://creativecommons.org/ns#" xmlns:dc="http://purl.org/dc/elements/1.1/">
 <g>
  <path fill="#fff100" d="m708.415 355.683-708.415-0.574 0.246-355.109 708.415 0.49173-0.246 355.191"/>
  <path fill="#0e1522" d="m24.1007 23.8542 660.706 0.5739-0.247 307.319-660.705-0.492 0.2457-307.401"/>
  <path fill="#fff100" d="m518.842 148.037 13.3611-11.0659-83.5271-0.082 1.8033-7.70515 80.0024 0.082-37.706-20.0006 2.541-4.83621 43.7718 23.2794 28.4435-110.659h6.6396l-27.6238 107.872 26.6401-22.1318 2.869 3.44273-27.6238 23.0335 57.5427 0.082-1.8033 7.62318h-47.7064l24.0991 12.7873-2.623 4.75425-33.0338-17.5415h-1.3935l-5.8198 22.6236h-6.8855l5.1641-19.8367-14.1808 11.8036-2.9509-3.5247"/>
  <path fill="#fff" d="m377.188 87.5312c-16.804 0-33.183 5.7561-37.282 8.625-5.492 3.8528-30.074 34.6538-40.812 68.3438 0 0-3.869-0.812-6-0.812s-3.532 0.579-4.188 2.874c-0.655 2.296-3.43 8.282-14.906 8.282-12.295 0-20.906-6.24-20.906-18.782 0-19.508 10.258-42.437 21.406-42.437 4.918 0 5.969 3.248 5.969 6.281s-2.201 3.782-3.594 3.782c-0.984 0-1.567 0.656-1.813 1.312-0.655 1.639-1.624 4.842-1.624 7.875-0.082 6.148 2.679 9.906 7.187 9.906 6.312 0 12.406-8.595 12.406-21.219 0-6.311-1.822-11.076-4.281-14.437-2.623-3.771-6.149-4.656-11.969-4.656-8.115-0.082-18.441 2.366-23.031 6.219-6.312 5.491-21.219 29.344-21.219 46.312 0 17.542 11.309 31.312 27.375 31.312 18.443 0 35.656-9.5 35.656-9.5s-5.656 17.771-5.656 34.657c0 36.558 24.013 58.293 56.719 58.375 28.935 0 52.617-17.632 57.125-21.156 0.738-0.574 1.578-0.652 1.906 0.25 1.23 3.442 7.268 17.374 25.219 17.374 9.427 0 18.035-6.636 23.281-11.062 0.82-0.656 1.419-0.562 2.156 0.094 5.083 4.836 11.449 10 20.876 10 11.311 0 24.778-12.218 30.843-20.906 1.066-1.558 1.797-1.721 2.125 0.656 1.476 11.639 14.099 17.875 26.313 17.875 14.262 0 23.863-13.056 28.781-19.531 1.475-1.968 2.051-1.218 1.969 0.75-0.164 2.295-0.094 4.837-0.094 6.968 0 3.771 3.209 6.549 5.75 8.844 2.541 2.213 5.971 4.75 8.594 4.75 4.672 0 10.408-6.713 13.031-14.5 2.049-6.148 7.128-14.098 11.062-19.344 1.394-1.803 1.876-1.639 1.876 0.656 0 3.607 0.187 10.173 0.187 16.813 0 27.378 15.647 43.094 40.156 43.094 9.017 0 16.978-3.016 23.781-8.344 7.05-5.492 4.568-9.93-3.874-5.094-4.017 2.295-9.079 3.781-15.063 3.781-12.951 0-21.906-9.259-21.906-27.374 0.082-17.542 5.913-41.082 10.093-55.344 1.968-6.558-3.443-13.594-11.968-13.594-8.361 0-16.474 4.193-18.032 6.406-1.639 2.295-2.693 7.113-4.906 12.032-3.688 7.869-9.021 18.115-10.906 20.656-1.967 2.623-2.461 2.294-2.625-1.313-0.164-3.688 0.322-11.731 2.125-17.469 1.394-4.508 1.487-6.786 0.094-9-3.033-4.672-14.366-1.557-18.219 0-2.869 1.066-4.173 2.221-5.156 4.844-5.246 13.279-17.535 47.625-32.781 47.625-5.82-0.082-8.126-4.917-8.126-15 0-12.295 4.69-31.568 7.313-38.781 0.902-2.623 3.031-3.768 3.031-6.719 0-2.541-3.687-3.281-8.031-3.281-5.41 0-11.976 0.993-16.156 2.469-4.509 1.639-2.372 4.993-2.781 6.469-8.116 32.214-21.236 57.363-32.876 57.281-4.59 0-6.156-4.499-6.156-13.844 0-9.427 4.349-27.633 5.906-32.469 1.968-5.984-3.374-4.812-3.374-4.812s1.578-10.182 1.906-18.625c0.328-9.181 0.311-17.285-6-21.875-4.427-3.279-11.072-3.518-17.875-1.469-9.509 2.951-27.524 10.159-32.688 14.094-4.754 3.606-11.412 24.596-14.281 37.875-1.967 8.77-4.241 15.226-7.438 19.406-6.393 8.197-26.305 16-42.781 16-21.722 0-34.031-15.178-34.031-33.375 0.082-38.608 22.552-81.645 39.438-98.531 3.852-3.853 7.929-5.656 13.093-5.656 6.148 0 9.781 7.227 9.781 14.031-0.082 6.066-6.338 6.625-9.781 6.625-1.803 0-2.945 0.997-3.437 2.062-2.295 5.41-9.168 22.294-9.25 33.688 0 9.098 6.881 14.906 20.406 14.906 17.869 0 32.043-24.583 32.125-52.125 0-27.542-19.433-40.0938-39.187-40.0938zm-160.907 0.8438c-7.951 0-20.804 5.7176-25.312 9.4062-6.886 5.6558-5.907 17.0628-5.907 17.0628s-5.815 23.936-20.406 58.281c-7.541 17.623-15.407 31.724-22.375 38.937-1.885 2.05-2.793 0.898-2.875-0.906-0.164-7.623-0.241-20.418 1.563-41.812 1.475-16.968 2.687-47.116 2.031-60.969-0.328-8.279-3.927-12.875-10.812-12.875-4.591 0-18.454 4.1895-23.782 6.812-4.754 2.296-7.031 8.109-7.031 12.126 0 2.131 0.719 3.343 0.719 3.343s-6.9598 31.815-20.8128 70.75c-18.2792 51.149-32.0311 74.594-37.0312 74.594-1.4755 0-2.813-0.739-3.4688-1.969-0.5738-1.229-2.7812-1.298-2.7812 2.063 0 4.59 2.2292 10.875 11 10.875 12.3774 0 29.3352-30.386 38.8438-49.813 9.4264-19.509 18.1882-40.987 23.8442-54.593 1.721-4.181 3.113-4.017 3.031 0-0.164 21.558-0.724 46.801-1.625 63.031-0.164 3.852 2.878 6.62 7.468 10.719 3.771 3.36 6.959 6.156 9.5 6.156 5.984 0 19.918-10.25 29.344-25.906 11.804-19.755 21.395-43.103 26.313-54.907 1.557-3.852 2.609-2.787 2.281 0-1.967 18.443-4.738 42.456-4 66.719 0.656 20.738 15.242 27.219 25.406 27.219 6.476 0 7.217-4.008 9.594-8.844 1.803-3.607-3.54-4.617-4.688-9.125-2.622-10.246 0.004-27.374 4.594-67.375 4.509-39.509 7.055-63.772 6.563-77.625-0.164-6.2297-3.204-11.375-9.188-11.375zm231.157 90.156c6.475 0 9.687 7.962 9.687 13.781 0 27.87-9.281 57.864-24.281 57.782-4.918 0-7.364-5.838-7.282-13.625 0-19.427 7.387-43.752 11.813-51.375 2.295-3.935 6.538-6.563 10.063-6.563z"/>
 </g>
</svg>
