<?xml version="1.0" encoding="utf-8"?>
<!-- Generator: Adobe Illustrator 27.1.1, SVG Export Plug-In . SVG Version: 6.00 Build 0)  -->
<svg version="1.1"
	 id="svg2" xmlns:inkscape="http://www.inkscape.org/namespaces/inkscape" xmlns:sodipodi="http://sodipodi.sourceforge.net/DTD/sodipodi-0.dtd" xmlns:svg="http://www.w3.org/2000/svg" xmlns:dc="http://purl.org/dc/elements/1.1/" xmlns:rdf="http://www.w3.org/1999/02/22-rdf-syntax-ns#" xmlns:cc="http://creativecommons.org/ns#"
	 xmlns="http://www.w3.org/2000/svg" xmlns:xlink="http://www.w3.org/1999/xlink" x="0px" y="0px" viewBox="0 0 91.9 27.4"
	 style="enable-background:new 0 0 91.9 27.4;" xml:space="preserve">
<style type="text/css">
	.st0{clip-path:url(#SVGID_00000179647999856128517270000013412860477081934993_);}
	.st1{fill:#072F54;}
</style>
<sodipodi:namedview  bordercolor="#666666" borderopacity="1" fit-margin-bottom="1" fit-margin-left="1" fit-margin-right="1" fit-margin-top="1" gridtolerance="10" guidetolerance="10" id="namedview4" inkscape:current-layer="g14" inkscape:cx="72.424167" inkscape:cy="33.919588" inkscape:pageopacity="0" inkscape:pageshadow="2" inkscape:window-height="1017" inkscape:window-maximized="1" inkscape:window-width="1920" inkscape:window-x="-8" inkscape:window-y="-8" inkscape:zoom="6.9804842" objecttolerance="10" pagecolor="#ffffff" showgrid="false">
	</sodipodi:namedview>
<g id="g10" transform="matrix(1.25,0,0,-1.25,-347.07005,505.1865)" inkscape:groupmode="layer" inkscape:label="20120921_Expedia_Logos Usage_Rev">
	<g id="g12">
		<g>
			<defs>
				<rect id="SVGID_1_" x="269.4" y="380.5" width="90" height="25.4"/>
			</defs>
			<clipPath id="SVGID_00000081649800560085472710000000520906922131678609_">
				<use xlink:href="#SVGID_1_"  style="overflow:visible;"/>
			</clipPath>
			<g id="g14" style="clip-path:url(#SVGID_00000081649800560085472710000000520906922131678609_);">
				<g id="g20" transform="translate(313.0154,387.4258)">
					<path id="path22" inkscape:connector-curvature="0" class="st1" d="M0,0h-2.2c0,0,0,0,0,0l-1.9,2.3L-6.1,0c0,0,0,0,0,0h-1.8
						c0,0,0,0,0,0c0,0,0,0,0,0l2.8,3.5L-7.9,7c0,0,0,0,0,0c0,0,0,0,0,0h2.2c0,0,0,0,0,0l1.7-2.1L-2.2,7c0,0,0,0,0,0h1.8c0,0,0,0,0,0
						c0,0,0,0,0,0L-3,3.8L0,0C0,0,0,0,0,0C0,0,0,0,0,0"/>
				</g>
				<g id="g24" transform="translate(325.1013,393.2106)">
					<path id="path26" inkscape:connector-curvature="0" class="st1" d="M0,0c-1,0-1.7-0.6-1.9-1.6h3.4v0.1C1.5-0.7,0.9,0,0,0
						 M3.2-2.7C3.2-2.7,3.2-2.7,3.2-2.7l-5.1,0C-1.8-3.9-1-4.6,0.2-4.6C1-4.6,1.8-4.3,3-3.7c0,0,0,0,0,0l0-1.6c0,0,0,0,0,0
						C1.9-5.8,0.8-6.1,0-6.1c-2.2,0-3.8,1.6-3.8,3.8S-2.2,1.5,0,1.5c2,0,3.3-1.4,3.3-3.2C3.3-2,3.2-2.7,3.2-2.7"/>
				</g>
				<g id="g28" transform="translate(338.7259,395.8986)">
					<path id="path30" inkscape:connector-curvature="0" class="st1" d="M0,0c-0.6,0-1.1,0.5-1.1,1.1c0,0.6,0.5,1.2,1.1,1.2
						s1.1-0.5,1.1-1.2C1.1,0.5,0.6,0,0,0 M-0.9-8.5C-0.9-8.5-0.9-8.5-0.9-8.5l0,7c0,0,0,0,0,0h1.8c0,0,0,0,0,0v-7c0,0,0,0,0,0
						C0.9-8.5-0.9-8.5-0.9-8.5z"/>
				</g>
				<g id="g32" transform="translate(316.3916,388.4746)">
					<path id="path34" inkscape:connector-curvature="0" class="st1" d="M0,0c-0.3,0-0.7,0-1.1,0.2l0,4.5c0.5,0.1,0.9,0.2,1.3,0.2
						c1.3,0,2.1-0.9,2.1-2.3C2.3,1,1.4,0,0,0 M0.5,6.3C0,6.3-0.5,6.2-1.1,6h-1.8c0,0,0,0,0,0V-5.5c0.6,0.1,1.2,0.3,1.9,0.7l0,3.5
						c0.5-0.1,0.8-0.1,1.2-0.1c2.5,0,4.1,1.5,4.1,3.8C4.3,4.7,2.7,6.3,0.5,6.3"/>
				</g>
				<g id="g36" transform="translate(334.4465,389.053)">
					<path id="path38" inkscape:connector-curvature="0" class="st1" d="M0,0c-0.6-0.3-1.1-0.4-1.6-0.4c-1.1,0-1.8,0.8-1.8,2.2
						c0,1.6,0.9,2.6,2.2,2.6C-0.8,4.3-0.4,4.2,0,4V0z M0,9.1V5.4c-0.5,0.2-1,0.2-1.5,0.2c-2.2,0-3.8-1.7-3.8-3.8
						c0-2.2,1.5-3.8,3.5-3.8c0.7,0,1.3,0.2,2.1,0.6l0-0.6c0.5,0.1,1.1,0.3,1.7,0.7V9.8C1.3,9.8,0.7,9.6,0,9.1"/>
				</g>
				<g id="g40" transform="translate(346.0656,389.0668)">
					<path id="path42" inkscape:connector-curvature="0" class="st1" d="M0,0c-0.6-0.3-1-0.5-1.5-0.5c-1.2,0-2,0.8-2,2.2
						c0,1.5,0.9,2.6,2.1,2.6c0.3,0,0.8-0.1,1.3-0.4L0,0z M1.9,5.5C1.9,5.5,1.9,5.5,1.9,5.5L0.3,5.5c0,0-0.1,0-0.1-0.1V5.2h0
						c-0.7,0.3-1.3,0.4-1.9,0.4c-2.1,0-3.7-1.7-3.7-3.9C-5.3-0.5-3.9-2-1.7-2c0.6,0,1.3,0,2,0.8V-2c0.5,0.1,1.1,0.3,1.6,0.7
						C1.9-1.3,1.9,5.5,1.9,5.5z"/>
				</g>
				<g id="g44" transform="translate(299.994,389.1686)">
					<path id="path46" inkscape:connector-curvature="0" class="st1" d="M0,0l4.6,0C4.6-0.5,4.4-1.1,4-1.7H0h-0.8h-0.1
						c-0.6,0-1.1,0.5-1.1,1c0,0,0,0,0,0v4.7v4.4c0,0,0,0,0,0c0.1,0.6,0.5,1,1.1,1c0,0,0,0,0.1,0l5.4,0C4.6,9,4.4,8.4,4,7.8H0V5.3
						h3.9c0,0,0,0,0,0V3.5c0,0,0,0,0,0H0V0L0,0z"/>
				</g>
				<g id="g48" transform="translate(294.1932,387.2835)">
					<path id="path50" inkscape:connector-curvature="0" class="st1" d="M0,0c-0.5,0-0.7,0.4-0.7,0.8c0,0.5,0.3,0.8,0.7,0.8
						c0.4,0,0.7-0.3,0.7-0.8C0.7,0.3,0.4,0,0,0 M0,1.7c-0.5,0-0.9-0.4-0.9-0.9c0-0.5,0.4-0.9,0.9-0.9c0.5,0,0.9,0.4,0.9,0.9
						C0.9,1.3,0.5,1.7,0,1.7"/>
				</g>
				<g id="g52" transform="translate(293.9853,388.1523)">
					<path id="path54" inkscape:connector-curvature="0" class="st1" d="M0,0v0.3h0.2c0.1,0,0.2,0,0.2-0.2C0.5,0,0.3,0,0.2,0H0z
						 M0.6,0.2c0,0.2-0.1,0.3-0.4,0.3h-0.4v-1H0v0.4h0.2l0.3-0.4h0.2L0.3-0.1C0.5-0.1,0.6,0,0.6,0.2"/>
				</g>
				<g id="g56" transform="translate(349.4863,393.2892)">
					<path id="path58" inkscape:connector-curvature="0" class="st1" d="M0,0c-0.5,0-0.7,0.4-0.7,0.8c0,0.5,0.3,0.8,0.7,0.8
						c0.4,0,0.7-0.3,0.7-0.8C0.7,0.3,0.4,0,0,0 M0,1.7c-0.5,0-0.9-0.4-0.9-0.9c0-0.5,0.4-0.9,0.9-0.9c0.5,0,0.9,0.4,0.9,0.9
						C0.9,1.3,0.5,1.7,0,1.7"/>
				</g>
				<g id="g60" transform="translate(349.2775,394.1585)">
					<path id="path62" inkscape:connector-curvature="0" class="st1" d="M0,0v0.3h0.2c0.1,0,0.2,0,0.2-0.2C0.5,0,0.3,0,0.2,0H0z
						 M0.6,0.2c0,0.2-0.1,0.3-0.4,0.3h-0.4v-1H0v0.4h0.2l0.3-0.4h0.2L0.3-0.1C0.5-0.1,0.6,0,0.6,0.2"/>
				</g>
				<g id="g64" transform="translate(288.2157,396.9411)">
					<path id="path66" inkscape:connector-curvature="0" class="st1" d="M0,0l-0.3,1l-2.8,3.8l0.5,0.1l4.9-4.2l2.9,0.8
						c0.3,0.1,0.7,0.1,1,0.1c-0.9,2-2.6,3.6-4.8,4.4C-3,7.5-7.7,5.2-9.3,0.9c-0.5-1.3-0.6-2.7-0.4-4l6.9,2.4L0,0z"/>
				</g>
				<g id="g68" transform="translate(294.6721,397.7614)">
					<path id="path70" inkscape:connector-curvature="0" class="st1" d="M0,0c-0.3-0.2-0.6-0.4-1-0.5l-2.9-0.8l-1.9-6.2l-0.5-0.2
						L-5.9-3l-0.2,1l-2.7-0.8L-16-4.4c0.6-2.8,2.5-5.2,5.4-6.2C-6.3-12.2-1.6-9.9,0-5.6C0.7-3.7,0.6-1.7,0,0"/>
				</g>
			</g>
		</g>
	</g>
</g>
</svg>
