<?xml version="1.0" encoding="utf-8"?>
<!-- Generator: Adobe Illustrator 27.1.1, SVG Export Plug-In . SVG Version: 6.00 Build 0)  -->
<svg version="1.1" id="Layer_1" xmlns="http://www.w3.org/2000/svg" xmlns:xlink="http://www.w3.org/1999/xlink" x="0px" y="0px"
	 viewBox="0 0 504 567" style="enable-background:new 0 0 504 567;" xml:space="preserve">
<style type="text/css">
	.st0{fill:none;stroke:#B3FC03;stroke-width:10;stroke-linecap:round;stroke-linejoin:round;}
</style>
<path class="st0" d="M407.1,113.2c43-2.8,75.1,6.6,88.3,29.3c30.7,53.2-53.5,159.3-188.1,237c-76.9,44.4-153.7,69.9-211,73.7
	 M407.1,113.2c0,7.4-6,13.4-13.4,13.4c-7.4,0-13.4-6-13.4-13.4c0-7.4,6-13.4,13.4-13.4C401.1,99.8,407.1,105.8,407.1,113.2z
	 M380.7,116.3c-53.4,8.6-119.2,32.7-184.7,70.5C61.5,264.6-22.7,370.7,8,423.9c10.3,17.8,32.1,27.4,61.5,29.4 M96.3,113.2
	c57.4,3.8,134.1,29.3,211,73.7c134.6,77.7,218.8,183.8,188.1,237c-13.2,22.8-45.3,32.2-88.3,29.3 M96.3,113.2
	c0,7.4-6,13.4-13.4,13.4c-7.4,0-13.4-6-13.4-13.4c0-7.4,6-13.4,13.4-13.4C90.3,99.8,96.3,105.8,96.3,113.2z M69.5,113.1
	c-29.5,2-51.3,11.7-61.5,29.4c-30.7,53.2,53.5,159.3,188.1,237c65.6,37.9,131.2,62,184.7,70.6 M407.1,453.2c0,7.4-6,13.4-13.4,13.4
	s-13.4-6-13.4-13.4c0-7.4,6-13.4,13.4-13.4S407.1,445.9,407.1,453.2z M96.3,453.1c0,7.4-6,13.4-13.4,13.4s-13.4-6-13.4-13.4
	c0-7.4,6-13.4,13.4-13.4S96.3,445.7,96.3,453.1z M362.9,283.2c0,155.4-49.8,281.4-111.2,281.4c-61.4,0-111.2-126-111.2-281.4
	c0-155.4,49.8-281.4,111.2-281.4C313.1,1.8,362.9,127.8,362.9,283.2z M322,283.2c0,38.9-31.5,70.3-70.3,70.3s-70.3-31.5-70.3-70.3
	c0-38.8,31.5-70.3,70.3-70.3S322,244.3,322,283.2z"/>
</svg>
