<?xml version="1.0" encoding="utf-8"?>
<!-- Generator: Adobe Illustrator 27.1.1, SVG Export Plug-In . SVG Version: 6.00 Build 0)  -->
<svg version="1.1" id="Layer_1" xmlns="http://www.w3.org/2000/svg" xmlns:xlink="http://www.w3.org/1999/xlink" x="0px" y="0px"
	 viewBox="0 0 560.7 608" style="enable-background:new 0 0 560.7 608;" xml:space="preserve">
<style type="text/css">
	.st0{fill:none;stroke:#B3FC03;stroke-width:10;stroke-linecap:round;stroke-linejoin:round;}
</style>
<path class="st0" d="M429.8,137.2c43-2.8,75.1,6.6,88.3,29.3c30.7,53.2-53.5,159.3-188.1,237c-76.9,44.4-153.7,69.9-211,73.7
	 M429.8,137.2c0,7.4-6,13.4-13.4,13.4s-13.4-6-13.4-13.4s6-13.4,13.4-13.4C423.8,123.8,429.8,129.8,429.8,137.2z M403.4,140.3
	c-53.4,8.6-119.2,32.7-184.7,70.5C84.2,288.6,0,394.7,30.7,447.9c10.3,17.8,32.1,27.4,61.5,29.4 M119,137.2
	c57.4,3.8,134.1,29.3,211,73.7c134.6,77.7,218.8,183.8,188.1,237c-13.2,22.8-45.3,32.2-88.3,29.3 M119,137.2c0,7.4-6,13.4-13.4,13.4
	s-13.4-6-13.4-13.4s6-13.4,13.4-13.4C113,123.8,119,129.8,119,137.2z M92.2,137.1c-29.5,2-51.3,11.7-61.5,29.4
	C0,219.7,84.2,325.8,218.8,403.5c65.6,37.9,131.2,62,184.7,70.6 M429.8,477.2c0,7.4-6,13.4-13.4,13.4s-13.4-6-13.4-13.4
	s6-13.4,13.4-13.4S429.8,469.9,429.8,477.2z M119,477.1c0,7.4-6,13.4-13.4,13.4s-13.4-6-13.4-13.4s6-13.4,13.4-13.4
	S119,469.7,119,477.1z M385.6,307.2c0,155.4-49.8,281.4-111.2,281.4s-111.2-126-111.2-281.4S213,25.8,274.4,25.8
	C335.8,25.8,385.6,151.8,385.6,307.2z M344.7,307.2c0,38.9-31.5,70.3-70.3,70.3s-70.3-31.5-70.3-70.3s31.5-70.3,70.3-70.3
	S344.7,268.3,344.7,307.2z"/>
</svg>
