<?xml version="1.0" encoding="utf-8"?>
<!-- Generator: Adobe Illustrator 27.1.1, SVG Export Plug-In . SVG Version: 6.00 Build 0)  -->
<svg version="1.1" id="Layer_1" xmlns="http://www.w3.org/2000/svg" xmlns:xlink="http://www.w3.org/1999/xlink" x="0px" y="0px"
	 viewBox="0 0 685 449" style="enable-background:new 0 0 685 449;" xml:space="preserve">
<style type="text/css">
	.st0{fill:none;stroke:#B3FC03;stroke-width:10;stroke-linecap:round;stroke-linejoin:round;}
</style>
<path class="st0" d="M437,221.5c0,74.5-40.4,139.5-100.5,174.4 M437,221.5C437,147,396.6,82,336.5,47.1 M437,221.5
	c0,34.7-8.8,67.4-24.3,95.9 M437,221.5c0-9.5-0.7-18.8-1.9-28 M236,221.5C236,147,276.4,82,336.5,47.1 M236,221.5
	c0,74.5,40.4,139.5,100.5,174.4 M236,221.5c0-2.3,0-4.5,0.1-6.8 M236,221.5c0,14,1.4,27.7,4.2,40.9 M336.5,395.9
	c29.7,17.2,64.2,27.1,101,27.1C548.8,423,639,332.8,639,221.5S548.8,20,437.5,20c-36.8,0-71.3,9.9-101,27.1 M336.5,395.9
	c-29.7,17.2-64.2,27.1-101,27.1C124.2,423,34,332.8,34,221.5S124.2,20,235.5,20c36.8,0,71.3,9.9,101,27.1 M336.5,395.9
	c6.9-4,13.6-8.5,20-13.3 M336.5,395.9c-11.9-6.9-23-15-33.1-24 M336.5,47.1c8.1,4.7,15.8,9.9,23,15.6 M336.5,47.1
	c-2.4,1.4-4.7,2.8-7,4.2 M347.3,82.1l16.1,27.9 M370.1,121.7l16.1,27.9 M393,161.3l16.1,27.9 M415.9,200.9l16.1,27.9 M312.1,102.4
	l16.1,27.9 M334.9,142l16.1,27.9 M357.8,181.6l16.1,27.9 M380.7,221.2l16.1,27.9 M403.5,260.8l16.1,27.9 M276.9,122.7l16.1,27.9
	 M299.7,162.3l16.1,27.9 M322.6,201.9l16.1,27.9 M345.5,241.6l16.1,27.9 M368.3,281.2l16.1,27.9 M264.5,182.7l16.1,27.9
	 M287.4,222.3l16.1,27.9 M310.3,261.9l16.1,27.9 M333.1,301.5l16.1,27.9 M356,341.1l16.1,27.9 M252.2,242.6l16.1,27.9 M275.1,282.2
	l16.1,27.9 M297.9,321.8l16.1,27.9 M320.8,361.4l16.1,27.9 M380.1,98.3l16.1,27.9 M403,137.9l16.1,27.9 M322.1,79.1l16.1,27.9
	 M344.9,118.7l16.1,27.9 M367.8,158.3l16.1,27.9 M390.6,197.9l16.1,27.9 M413.5,237.5l16.1,27.9 M286.8,99.4l16.1,27.9 M309.7,139
	l16.1,27.9 M332.6,178.6l16.1,27.9 M355.4,218.2l16.1,27.9 M378.3,257.8l16.1,27.9 M274.5,159.3l16.1,27.9 M297.4,198.9l16.1,27.9
	 M320.2,238.5l16.1,27.9 M343.1,278.1l16.1,27.9 M366,317.7l16.1,27.9 M262.2,219.2l16.1,27.9 M285,258.8l16.1,27.9 M307.9,298.4
	l16.1,27.9 M330.8,338l16.1,27.9 M249.8,279.2l16.1,27.9 M272.7,318.8l16.1,27.9 M356.5,382.6c17-12.8,31.9-28.2,44.1-45.6
	 M356.5,382.6l-2.9-5 M400.6,337c4.4-6.3,8.5-12.8,12.1-19.6 M400.6,337l-9.4-16.3 M412.7,317.4l-11.6-20 M435.1,193.5
	c-7.4-53-35.3-99.4-75.5-130.8 M435.1,193.5l-9.2-16 M359.5,62.7l13.8,23.9 M329.5,51.3c-5.8,3.7-11.3,7.6-16.7,11.8 M329.5,51.3
	l11,19 M312.9,63.2c-5.4,4.3-10.6,8.8-15.6,13.6 M312.9,63.2l2.4,4.2 M297.3,76.8c-10.4,10.1-19.7,21.2-27.7,33.3 M297.3,76.8
	l8,13.9 M269.6,110.1c-4.3,6.5-8.3,13.2-11.8,20.2 M269.6,110.1l0.5,0.9 M257.8,130.3c-3.8,7.5-7.2,15.3-10,23.3 M257.8,130.3
	l10,17.3 M247.7,153.6c-3.2,8.9-5.7,18-7.7,27.4 M247.7,153.6l10,17.4 M240.1,181c-2.2,11-3.6,22.2-4,33.8 M240.1,181l15.3,26.5
	 M236.1,214.7l9.3,16.1 M240.2,262.4c8.9,43.1,31.6,81.2,63.2,109.5 M240.2,262.4l2.9,5 M303.4,371.9l-7.8-13.5"/>
</svg>
