<?xml version="1.0" encoding="utf-8"?>
<!-- Generator: Adobe Illustrator 27.1.1, SVG Export Plug-In . SVG Version: 6.00 Build 0)  -->
<svg version="1.1" id="Layer_1" xmlns="http://www.w3.org/2000/svg" xmlns:xlink="http://www.w3.org/1999/xlink" x="0px" y="0px"
	 viewBox="0 0 609 407" style="enable-background:new 0 0 609 407;" xml:space="preserve">
<style type="text/css">
	.st0{fill:none;stroke:#B3FC03;stroke-width:10;stroke-linecap:round;stroke-linejoin:round;}
</style>
<path class="st0" d="M405,203.5c0,74.5-40.4,139.5-100.5,174.4 M405,203.5C405,129,364.6,64,304.5,29.1 M405,203.5
	c0,34.7-8.8,67.4-24.3,95.9 M405,203.5c0-9.5-0.7-18.8-1.9-28 M204,203.5C204,129,244.4,64,304.5,29.1 M204,203.5
	c0,74.5,40.4,139.5,100.5,174.4 M204,203.5c0-2.3,0-4.5,0.1-6.8 M204,203.5c0,14,1.4,27.7,4.2,40.9 M304.5,377.9
	c29.7,17.2,64.2,27.1,101,27.1C516.8,405,607,314.8,607,203.5C607,92.2,516.8,2,405.5,2c-36.8,0-71.3,9.9-101,27.1 M304.5,377.9
	c-29.7,17.2-64.2,27.1-101,27.1C92.2,405,2,314.8,2,203.5C2,92.2,92.2,2,203.5,2c36.8,0,71.3,9.9,101,27.1 M304.5,377.9
	c6.9-4,13.6-8.5,20-13.3 M304.5,377.9c-11.9-6.9-23-15-33.1-24 M304.5,29.1c8.1,4.7,15.8,9.9,23,15.6 M304.5,29.1
	c-2.4,1.4-4.7,2.8-7,4.2 M315.3,64.1L331.4,92 M338.1,103.7l16.1,27.9 M361,143.3l16.1,27.9 M383.9,182.9l16.1,27.9 M280.1,84.4
	l16.1,27.9 M302.9,124l16.1,27.9 M325.8,163.6l16.1,27.9 M348.7,203.2l16.1,27.9 M371.5,242.8l16.1,27.9 M244.9,104.7l16.1,27.9
	 M267.7,144.3l16.1,27.9 M290.6,183.9l16.1,27.9 M313.5,223.6l16.1,27.9 M336.3,263.2l16.1,27.9 M232.5,164.7l16.1,27.9
	 M255.4,204.3l16.1,27.9 M278.3,243.9l16.1,27.9 M301.1,283.5l16.1,27.9 M324,323.1l16.1,27.9 M220.2,224.6l16.1,27.9 M243.1,264.2
	l16.1,27.9 M265.9,303.8l16.1,27.9 M288.8,343.4l16.1,27.9 M348.1,80.3l16.1,27.9 M371,119.9l16.1,27.9 M290.1,61.1l16.1,27.9
	 M312.9,100.7l16.1,27.9 M335.8,140.3l16.1,27.9 M358.6,179.9l16.1,27.9 M381.5,219.5l16.1,27.9 M254.8,81.4l16.1,27.9 M277.7,121
	l16.1,27.9 M300.6,160.6l16.1,27.9 M323.4,200.2l16.1,27.9 M346.3,239.8l16.1,27.9 M242.5,141.3l16.1,27.9 M265.4,180.9l16.1,27.9
	 M288.2,220.5l16.1,27.9 M311.1,260.1l16.1,27.9 M334,299.7l16.1,27.9 M230.2,201.2l16.1,27.9 M253,240.8l16.1,27.9 M275.9,280.4
	l16.1,27.9 M298.8,320l16.1,27.9 M217.8,261.2l16.1,27.9 M240.7,300.8l16.1,27.9 M324.5,364.6c17-12.8,31.9-28.2,44.1-45.6
	 M324.5,364.6l-2.9-5 M368.6,319c4.4-6.3,8.5-12.8,12.1-19.6 M368.6,319l-9.4-16.3 M380.7,299.4l-11.6-20 M403.1,175.5
	c-7.4-53-35.3-99.4-75.5-130.8 M403.1,175.5l-9.2-16 M327.5,44.7l13.8,23.9 M297.5,33.3c-5.8,3.7-11.3,7.6-16.7,11.8 M297.5,33.3
	l11,19 M280.9,45.2c-5.4,4.3-10.6,8.8-15.6,13.6 M280.9,45.2l2.4,4.2 M265.3,58.8c-10.4,10.1-19.7,21.2-27.7,33.3 M265.3,58.8
	l8,13.9 M237.6,92.1c-4.3,6.5-8.3,13.2-11.8,20.2 M237.6,92.1l0.5,0.9 M225.8,112.3c-3.8,7.5-7.2,15.3-10,23.3 M225.8,112.3l10,17.3
	 M215.7,135.6c-3.2,8.9-5.7,18-7.7,27.4 M215.7,135.6l10,17.4 M208.1,163c-2.2,11-3.6,22.2-4,33.8 M208.1,163l15.3,26.5
	 M204.1,196.7l9.3,16.1 M208.2,244.4c8.9,43.1,31.6,81.2,63.2,109.5 M208.2,244.4l2.9,5 M271.4,353.9l-7.8-13.5"/>
</svg>
