<?xml version="1.0" encoding="utf-8"?>
<!-- Generator: Adobe Illustrator 27.1.1, SVG Export Plug-In . SVG Version: 6.00 Build 0)  -->
<svg version="1.1" id="Layer_1" xmlns="http://www.w3.org/2000/svg" xmlns:xlink="http://www.w3.org/1999/xlink" x="0px" y="0px"
	 viewBox="0 0 610 364.9" style="enable-background:new 0 0 610 364.9;" xml:space="preserve">
<style type="text/css">
	.st0{fill:none;stroke:#B3FC03;stroke-width:10;stroke-linecap:round;stroke-linejoin:round;}
</style>
<path class="st0" d="M556,182.1c0,75.7-111.9,137.1-250,137.1 M556,182.1C556,106.4,444.1,45,306,45 M556,182.1H56 M306,319.1
	c-138.1,0-250-61.4-250-137.1 M306,319.1V45 M306,319.1c67.1,0,111-61.4,111-137.1c0-75.6-43.9-137-111-137 M306,319.1
	c-67.1,0-111-61.4-111-137.1c0-75.6,43.9-137,111-137 M306,319.1c67.1,0,192.7-61.4,192.7-137.1c0-75.6-125.6-137-192.7-137
	 M306,319.1c-67.1,0-188.6-61.4-188.6-137.1c0-75.6,121.5-137,188.6-137 M306,319.1c25.1,0,45.4-61.4,45.4-137.1
	c0-75.6-20.3-137-45.4-137 M306,319.1c-25.1,0-45.4-61.4-45.4-137.1c0-75.6,20.3-137,45.4-137 M56,182.1C56,106.4,167.9,45,306,45"
	/>
</svg>
