<?xml version="1.0" encoding="utf-8"?>
<!-- Generator: Adobe Illustrator 27.1.1, SVG Export Plug-In . SVG Version: 6.00 Build 0)  -->
<svg version="1.1" id="Layer_1" xmlns="http://www.w3.org/2000/svg" xmlns:xlink="http://www.w3.org/1999/xlink" x="0px" y="0px"
	 viewBox="0 0 504 278" style="enable-background:new 0 0 504 278;" xml:space="preserve">
<style type="text/css">
	.st0{fill:none;stroke:#B3FC03;stroke-width:10;stroke-linecap:round;stroke-linejoin:round;}
</style>
<path class="st0" d="M502,139.1c0,75.7-111.9,137.1-250,137.1 M502,139.1C502,63.4,390.1,2,252,2 M502,139.1H2 M252,276.1
	c-138.1,0-250-61.4-250-137.1 M252,276.1V2 M252,276.1c67.1,0,111-61.4,111-137.1C363,63.4,319.1,2,252,2 M252,276.1
	c-67.1,0-111-61.4-111-137.1C141,63.4,184.9,2,252,2 M252,276.1c67.1,0,192.7-61.4,192.7-137.1C444.7,63.4,319.1,2,252,2 M252,276.1
	c-67.1,0-188.6-61.4-188.6-137.1C63.4,63.4,184.9,2,252,2 M252,276.1c25.1,0,45.4-61.4,45.4-137.1C297.4,63.4,277.1,2,252,2
	 M252,276.1c-25.1,0-45.4-61.4-45.4-137.1C206.6,63.4,226.9,2,252,2 M2,139.1C2,63.4,113.9,2,252,2"/>
</svg>
