<?xml version="1.0" encoding="utf-8"?>
<!-- Generator: Adobe Illustrator 27.1.1, SVG Export Plug-In . SVG Version: 6.00 Build 0)  -->
<svg version="1.1" id="Layer_1" xmlns="http://www.w3.org/2000/svg" xmlns:xlink="http://www.w3.org/1999/xlink" x="0px" y="0px"
	 viewBox="0 0 623 307" style="enable-background:new 0 0 623 307;" xml:space="preserve">
<style type="text/css">
	.st0{fill:none;stroke:#B3FC03;stroke-width:10;stroke-linecap:round;stroke-linejoin:round;stroke-miterlimit:10;}
</style>
<path class="st0" d="M311.5,305c83.7,0,151.5-67.8,151.5-151.5C463,69.8,395.2,2,311.5,2 M311.5,305C227.8,305,160,237.2,160,153.5
	C160,69.8,227.8,2,311.5,2 M311.5,305C510,305,621,153.5,621,153.5S510,2,311.5,2 M311.5,305C113,305,2,153.5,2,153.5S113,2,311.5,2
	 M311.5,229c41.7,0,75.5-33.8,75.5-75.5S353.2,78,311.5,78 M311.5,229c-41.7,0-75.5-33.8-75.5-75.5S269.8,78,311.5,78 M311.5,229
	c17.7,0,32-33.8,32-75.5S329.2,78,311.5,78 M311.5,229c-17.7,0-32-33.8-32-75.5s14.3-75.5,32-75.5"/>
</svg>
