<?xml version="1.0" encoding="utf-8"?>
<!-- Generator: Adobe Illustrator 27.1.1, SVG Export Plug-In . SVG Version: 6.00 Build 0)  -->
<svg version="1.1" id="Layer_1" xmlns="http://www.w3.org/2000/svg" xmlns:xlink="http://www.w3.org/1999/xlink" x="0px" y="0px"
	 viewBox="0 0 667 345" style="enable-background:new 0 0 667 345;" xml:space="preserve">
<style type="text/css">
	.st0{fill:none;stroke:#B3FC03;stroke-width:10;stroke-linecap:round;stroke-linejoin:round;stroke-miterlimit:10;}
</style>
<path class="st0" d="M334.5,321c83.7,0,151.5-67.8,151.5-151.5S418.2,18,334.5,18 M334.5,321C250.8,321,183,253.2,183,169.5
	S250.8,18,334.5,18 M334.5,321C533,321,644,169.5,644,169.5S533,18,334.5,18 M334.5,321C136,321,25,169.5,25,169.5S136,18,334.5,18
	 M334.5,245c41.7,0,75.5-33.8,75.5-75.5S376.2,94,334.5,94 M334.5,245c-41.7,0-75.5-33.8-75.5-75.5S292.8,94,334.5,94 M334.5,245
	c17.7,0,32-33.8,32-75.5S352.2,94,334.5,94 M334.5,245c-17.7,0-32-33.8-32-75.5s14.3-75.5,32-75.5"/>
</svg>
