<?xml version="1.0" encoding="utf-8"?>
<!-- Generator: Adobe Illustrator 27.1.1, SVG Export Plug-In . SVG Version: 6.00 Build 0)  -->
<svg version="1.1" id="Layer_1" xmlns="http://www.w3.org/2000/svg" xmlns:xlink="http://www.w3.org/1999/xlink" x="0px" y="0px"
	 viewBox="0 0 504 471" style="enable-background:new 0 0 504 471;" xml:space="preserve">
<style type="text/css">
	.st0{fill:none;stroke:#B3FC03;stroke-width:10;stroke-linecap:round;stroke-linejoin:round;}
</style>
<path class="st0" d="M480.6,239.8c0-90.5-52.5-168.8-128.7-206 M480.6,239.8c-11.8,0-21.5,9.6-21.5,21.5c0,11.9,9.6,21.5,21.4,21.5
	s21.4-9.6,21.4-21.5C502,249.4,492.4,239.8,480.6,239.8z M251.8,10.8c-109.2,0-200.5,76.5-223.3,178.9 M351.9,33.8
	c-5.7,10.4-18.7,14.2-29.1,8.5c-10.4-5.7-14.2-18.7-8.5-29.1c5.7-10.4,18.7-14.2,29.1-8.5C353.7,10.3,357.6,23.4,351.9,33.8z
	 M27,282.7c20.1,106,113.1,186.1,224.8,186.1c81.1,0,152.4-42.3,193-106 M402.3,245.3c0,87-70.4,157.4-157.3,157.4
	c-86.9,0-157.3-70.5-157.3-157.4c0-66.8,41.5-123.8,100.1-146.7 M245.1,87.9c67.3,0,124.7,42.3,147.2,101.8 M44.3,215.5
	c-2.8,11.5-14.3,18.6-25.8,15.9c-11.5-2.8-18.6-14.3-15.9-25.9c2.8-11.5,14.3-18.6,25.8-15.9C40,192.4,47.1,204,44.3,215.5z
	 M345.2,245.3c0,55.3-44.8,100.2-100.1,100.2c-55.3,0-100.1-44.9-100.1-100.2c0-55.3,44.8-100.2,100.1-100.2
	C300.3,145.1,345.2,190,345.2,245.3z"/>
</svg>
