<?xml version="1.0" encoding="utf-8"?>
<!-- Generator: Adobe Illustrator 27.1.1, SVG Export Plug-In . SVG Version: 6.00 Build 0)  -->
<svg version="1.1" id="Layer_1" xmlns="http://www.w3.org/2000/svg" xmlns:xlink="http://www.w3.org/1999/xlink" x="0px" y="0px"
	 viewBox="0 0 561 507" style="enable-background:new 0 0 561 507;" xml:space="preserve">
<style type="text/css">
	.st0{fill:none;stroke:#B3FC03;stroke-width:10;stroke-linecap:round;stroke-linejoin:round;}
</style>
<path class="st0" d="M515.6,256.8c0-90.5-52.5-168.8-128.7-206 M515.6,256.8c-11.8,0-21.5,9.6-21.5,21.5c0,11.9,9.6,21.5,21.4,21.5
	s21.4-9.6,21.4-21.5C537,266.4,527.4,256.8,515.6,256.8z M286.8,27.8c-109.2,0-200.5,76.5-223.3,178.9 M386.9,50.8
	c-5.7,10.4-18.7,14.2-29.1,8.5s-14.2-18.7-8.5-29.1S368,16,378.4,21.7C388.7,27.3,392.6,40.4,386.9,50.8z M62,299.7
	c20.1,106,113.1,186.1,224.8,186.1c81.1,0,152.4-42.3,193-106 M437.3,262.3c0,87-70.4,157.4-157.3,157.4s-157.3-70.5-157.3-157.4
	c0-66.8,41.5-123.8,100.1-146.7 M280.1,104.9c67.3,0,124.7,42.3,147.2,101.8 M79.3,232.5C76.5,244,65,251.1,53.5,248.4
	c-11.5-2.8-18.6-14.3-15.9-25.9c2.8-11.5,14.3-18.6,25.8-15.9C75,209.4,82.1,221,79.3,232.5z M380.2,262.3
	c0,55.3-44.8,100.2-100.1,100.2S180,317.6,180,262.3s44.8-100.2,100.1-100.2C335.3,162.1,380.2,207,380.2,262.3z"/>
</svg>
