<?xml version="1.0" encoding="utf-8"?>
<!-- Generator: Adobe Illustrator 27.1.1, SVG Export Plug-In . SVG Version: 6.00 Build 0)  -->
<svg version="1.1" id="Layer_1" xmlns="http://www.w3.org/2000/svg" xmlns:xlink="http://www.w3.org/1999/xlink" x="0px" y="0px"
	 viewBox="0 0 136 32" style="enable-background:new 0 0 136 32;" xml:space="preserve">
<style type="text/css">
	.st0{fill-rule:evenodd;clip-rule:evenodd;fill:#EFEFD2;}
</style>
<g id="官网方案-B-上线版">
	<g id="_x31_440-1200-copy-2" transform="translate(-120.000000, -24.000000)">
		<g id="导航栏">
			<g id="最终LOGO" transform="translate(120.000000, 24.000000)">
				<g id="分组-11" transform="translate(8.337508, 1.622535)">
					<g id="分组-5-copy-5" transform="translate(0.017930, 0.009014)">
						<g id="分组-copy-2">
							<g id="分组-27-copy-8">
								<g id="分组-9-copy-11">
									<g id="Group-2-Copy-2备份-19-Copy-Copy-Copy-Copy-Copy-Copy-Copy-Copy">
										<g id="编组-3">
											<g id="编组-2备份">
											</g>
										</g>
									</g>
								</g>
							</g>
						</g>
					</g>
				</g>
				<g id="分组-2" transform="translate(0.017930, 0.009014)">
					<g id="分组-24">
						<path id="合并形状-copy" class="st0" d="M19.4,17.8L19.4,17.8l-9.3,14.1l-6.6,0c-0.9,0-1.3-0.6-0.8-1.4l5.2-8
							c-1.1-0.3-2.2-0.7-3.2-1.4c-4.9-3.2-6.3-9.7-3.1-14.6s9.7-6.3,14.5-3.1C21,6.5,22.4,12.9,19.4,17.8z M41.8,17.8L41.8,17.8
							l-9.3,14.1l-6.6,0c-0.9,0-1.3-0.6-0.8-1.4l5.2-8c-1.1-0.3-2.2-0.7-3.2-1.4c-4.9-3.2-6.3-9.7-3.1-14.6s9.7-6.3,14.5-3.1
							C43.5,6.5,44.9,12.9,41.8,17.8z M32.9,15.6c2.1,0,3.8-1.7,3.8-3.8S35,8,32.9,8s-3.8,1.7-3.8,3.8S30.8,15.6,32.9,15.6z
							 M10.5,15.6c2.1,0,3.8-1.7,3.8-3.8S12.6,8,10.5,8s-3.8,1.7-3.8,3.8S8.4,15.6,10.5,15.6z"/>
						<path id="合并形状-copy-2" class="st0" d="M130.8,10.7V1.6l5.2-1.6v31.9h-5.2v-1.3c-1.4,0.8-3.2,1.3-5.3,1.3
							c-6.3,0-9.8-4-9.8-11.2c0-7.3,3.5-11.2,9.8-11.2C127.6,9.4,129.3,9.8,130.8,10.7z M57.7,8.3v5.8h10.2v5.2H57.7v12.5h-5.2V8.3
							V3.1h17.6v5.2H57.7z M103.5,26.9c3.8,0,5.6-2.1,5.6-6.3c0-4.2-1.8-6.3-5.6-6.3c-3.8,0-5.6,2.1-5.6,6.3
							C97.9,24.9,99.8,26.9,103.5,26.9z M92.9,20.7c0-7.3,3.8-11.2,10.6-11.2c6.8,0,10.6,4,10.6,11.2c0,7.3-3.8,11.2-10.6,11.2
							C96.7,31.9,92.9,27.9,92.9,20.7z M80.7,26.9c3.8,0,5.6-2.1,5.6-6.3c0-4.2-1.8-6.3-5.6-6.3c-3.8,0-5.6,2.1-5.6,6.3
							C75.1,24.9,77,26.9,80.7,26.9z M70.1,20.7c0-7.3,3.8-11.2,10.6-11.2c6.8,0,10.6,4,10.6,11.2c0,7.3-3.8,11.2-10.6,11.2
							C73.9,31.9,70.1,27.9,70.1,20.7z M125.5,27c3.2,0,4.8-2.1,4.8-6.3c0-4.2-1.6-6.3-4.8-6.3c-3.2,0-4.8,2.1-4.8,6.3
							C120.7,24.9,122.3,27,125.5,27z"/>
					</g>
				</g>
			</g>
		</g>
	</g>
</g>
</svg>
