<?xml version="1.0" encoding="utf-8"?>
<!-- Generator: Adobe Illustrator 19.0.0, SVG Export Plug-In . SVG Version: 6.00 Build 0)  -->
<svg version="1.1" id="Layer_1" xmlns="http://www.w3.org/2000/svg" xmlns:xlink="http://www.w3.org/1999/xlink" x="0px" y="0px"
	 viewBox="0 0 500 500" style="enable-background:new 0 0 500 500;" xml:space="preserve">
<g id="XMLID_1_">
	<path id="XMLID_17_" d="M205.1,421.6c-10.3-2.7-20.2-11.6-23.5-21.1c-2.3-6.8-2.3-17.6,0.1-24.6c2.7-8,12.6-17.7,20.6-20
		c12-3.6,26.6-1.2,34.8,5.7l3.3,2.8l-4.6,5.4l-4.6,5.4l-5.6-3.5c-7.9-4.9-15.8-5-21.9-0.1c-5.6,4.5-8.2,9.8-8.2,16.7
		c0,11.5,7.9,19.7,19.1,19.7c5.3,0,7.3-0.6,11.7-3.5l5.3-3.5l4.6,4.6l4.6,4.6l-2.8,3c-4.9,5.3-13.2,8.7-21.9,9
		C212,422.4,207,422.1,205.1,421.6L205.1,421.6z M262.4,421.1c-15.7-5.2-24.6-17.1-24.6-32.8c0-13.4,7-24.6,19.4-31
		c7.3-3.7,20-4.2,28.3-1.1c8.1,3.1,15,9,18.8,16.2c2.6,5,3,7.1,3,15.9c0,7.8-0.5,11-2.1,14c-6.6,12.3-16.8,19-30.2,19.7
		C270,422.4,265.2,422,262.4,421.1L262.4,421.1z M283.3,405.5c2.1-1.4,5-4.8,6.3-7.5c8-15.9-5.5-33.7-22.2-29.2
		c-16.5,4.5-19.1,28-4,37.2C268.5,409,278.3,408.8,283.3,405.5z M67.5,388.4v-33.1h18.1c20,0,24.7,0.9,30.7,5.8
		c6.6,5.5,8.9,17.9,4.8,26.2c-2.3,4.7-8.2,9.6-13.6,11.4l-5.6,1.9l10.3,10c5.7,5.5,10.3,10.3,10.3,10.5s-4.5,0.5-9.9,0.5h-9.9
		l-9.8-10l-9.8-10v10v10h-7.9h-7.9V388.4z M105.2,383.9c2.7-2.7,3.5-6.5,2.1-10.1c-1.3-3.3-6.7-5.1-15.5-5.1h-8.5v9v9h9.6
		C101.5,386.7,102.7,386.4,105.2,383.9z M129.3,388.4v-33.1H154h24.7v6.7v6.7h-17.4h-17.4v6.1v6.1l15.4,0.3l15.4,0.3l0.3,6.5
		l0.3,6.5h-15.8h-15.8v6.7v6.7h18h18v6.7v6.7h-25.3h-25.3V388.4z M311.3,388.3V355l19.9,0.4c36.3-7,41.8,37.3,13.5,44.9l11.1,10.5
		l11.1,10.5l-10.2,0.1l-10.2,0.1l-10.3-10.4l-10.3-10.4l0,10.4l0,10.4h-7.3h-7.3V388.3L311.3,388.3z M348.3,384.4
		c3.1-3.1,3-10.2-0.1-13c-1.9-1.7-4.5-2.2-12.4-2.5l-10-0.4v9.1v9.1H336C344.6,386.7,346.4,386.3,348.3,384.4z M371.9,388.5v-33.2
		h15.2c8.4,0,17.6,0.6,20.5,1.3c10.9,2.7,18.8,9.7,23.3,20.6c2.5,6.1,1.8,19.6-1.5,25.8c-3.2,6.1-9.8,12.3-16.6,15.4
		c-4.9,2.3-7.8,2.6-23.3,3l-17.7,0.4V388.5z M407.4,405.1c8.9-4.3,12-16.3,6.9-26.3c-3.5-6.9-8-9.2-19-9.9l-8.8-0.5v20v20l8.2-0.5
		C399.6,407.5,404.8,406.4,407.4,405.1L407.4,405.1z M223.1,322.6c-25.1-5.3-47.1-17-64.1-34.2c-18.1-18.2-30.1-41.8-33.5-66.1
		c-2.3-16.1,0-23.5,9-28.6c6.8-3.9,12.9-4.4,18.8-1.5c5.7,2.8,9.2,7.4,17.5,23c32.6,61.6,71.6,94.2,116.2,97
		c6.2,0.4,10.6,1.1,10,1.7c-1.9,1.9-20.8,7.7-30.3,9.4C253.7,325.5,235.5,325.2,223.1,322.6L223.1,322.6z M273.3,304
		c-35.4-7.7-69.6-40.3-97.2-92.4c-9-17-11.7-20.6-18.2-24.5c-4.6-2.7-5.9-2.9-13.9-2.5l-8.9,0.5l3.2-4.6c4-5.8,15.8-17,22.9-21.9
		c5.7-3.9,25.4-13.6,27.5-13.6c0.7,0,2.8,1,4.8,2.2c2.5,1.5,4.7,2,7.4,1.5c3.4-0.5,4.2-0.1,7.5,3.7c2.7,3.1,4.6,4.3,7,4.4
		c3.1,0.1,3.3,0.3,3.3,5c0,3.5-0.7,5.9-2.4,7.9c-1.3,1.6-2.7,5.1-3,7.9c-0.5,4.2-0.2,5.7,2.5,9.5c1.7,2.5,4.2,6.6,5.4,9.1
		c1.4,2.7,3.9,5.4,6.4,6.7c4.2,2.2,6,5.8,4.6,9.3c-0.4,1.1-1.2,6.6-1.7,12.4c-0.6,6.3-1.7,11.6-2.8,13.3c-1.5,2.2-1.7,4.3-1,10.7
		c0.6,6.2,0.4,8.1-0.8,8.9c-1.1,0.7-1.2,1-0.2,1c0.8,0,1.4,0.7,1.4,1.6c0,0.9,1.2,3,2.7,4.8s3,4.3,3.4,5.7c0.9,2.9,2.3,3.1,6.3,0.8
		l2.8-1.6l-3.7,0.7c-2.9,0.5-3.7,0.3-3.7-1.1c0-1,0.5-2.1,1.1-2.4c1.8-1.1,3.5-8.8,2.1-9.7c-0.8-0.5,0-1.9,2.1-4
		c1.8-1.8,3.1-4.1,2.9-5.2c-0.3-1.4,0.3-2,1.9-2c1.3,0,2.7-0.8,3-1.7c0.4-0.9,2-1.7,3.8-1.7c1.7,0,3.7-0.8,4.5-1.7
		c1.2-1.4,1-2.1-0.7-4.1c-2.1-2.4-2.1-2.4,1.6-1.8c3.1,0.4,4.1,0,5.6-2.3c1-1.5,3.3-4.2,5.1-6c1.7-1.7,3.5-4.6,4-6.2
		c0.8-3.1,5.8-6.9,9.3-7c2.8-0.1,5.2-4.3,6.6-11.4c0.9-4.5,2.4-7.6,5-10.5c2-2.3,3.5-5,3.3-6.1c-0.2-1-0.4-2.3-0.5-2.7
		c0-0.5-1-0.8-2.2-0.8c-1.1,0-2.9-1-4-2.1c-1.1-1.2-4.2-2.5-6.9-2.9c-2.7-0.4-5-1.2-5-1.7c0-1.6-4.5-2.5-6.1-1.2
		c-0.9,0.7-2.5,0.9-3.9,0.3c-2.1-0.8-2.2-1.1-0.9-3c1.3-1.7,1.3-2.6,0.1-4.9c-1.8-3.5-3.6-4.7-7.1-4.7c-1.5,0-5.1-1.8-8.1-3.9
		c-4.3-3.1-6.6-3.9-10.4-3.9c-3,0-5.5-0.7-6.3-1.7c-0.8-1-2.3-1.4-3.5-1c-1.2,0.4-2.1,0.1-2.1-0.6c0-1.4-5.5,1.8-7.5,4.4
		c-1.1,1.4-1.6,1.4-3,0.2c-1-0.8-2.7-1.3-3.9-1.1c-3.3,0.6-5.9-2.3-5.9-6.6c0-4.4-2.4-6-5.9-3.9c-2.6,1.6-3.4,1.1-2.5-1.3
		c0.4-0.9,2.3-2,4.2-2.4c2-0.4,7.9-1.5,13.1-2.5c7.1-1.4,18.8-2.1,45.5-2.6c35.2-0.7,36-0.8,40.2-3.3c5.3-3.3,9.6-9.5,10.5-15.1
		c0.4-2.3,1.1-4.2,1.5-4.2c1.3,0,5.5,10.5,8,20c2.9,11.2,3.1,31.6,0.5,45.5c-4.6,24.5-18.1,55.6-35.5,81.6
		c-12.6,18.9-13.8,30.1-4.3,40.9l4.5,5.1l-4.3-0.1C282.3,305.6,277.2,304.9,273.3,304L273.3,304z M296.2,302.1
		c-6.4-3.6-10.9-9.8-11.6-15.6c-0.6-5.6,2.1-11.4,14.8-31.8c15.7-25.2,27.5-54.1,31.5-77.4c4.3-25.1,0.5-51.1-10.1-70.2
		c-1.5-2.7-2.8-5.4-2.8-6c0-1.2,11.8,8.6,18.4,15.4c13,13.3,24.4,33.6,29.5,52.9c2.7,10.1,3,13.2,3.1,32c0.1,18.4-0.2,21.9-2.5,30.3
		c-5.9,21.6-16.6,40.1-32.8,56.2C317.8,303.6,306.4,308,296.2,302.1L296.2,302.1z M123.7,188.4c0-1,0.8-5.5,1.7-10.2
		c6.8-33.1,22.2-57.1,49.3-77.1c20.8-15.3,45.1-23.3,70.4-23.3c26.1,0,53,8.6,61,19.5c1.8,2.5,2.3,4.9,2.3,11.2
		c0,9.8-2.4,14.6-9,18.1c-4.2,2.2-5.9,2.3-28.7,2c-13.3-0.2-30.2,0.2-37.6,0.9c-49.5,4.8-84.8,22.7-103.5,52.5
		c-2.8,4.5-5.3,8.1-5.5,8.1C123.9,190.1,123.7,189.3,123.7,188.4L123.7,188.4z"/>
</g>
</svg>
