<?xml version="1.0" encoding="utf-8"?>
<!-- Generator: Adobe Illustrator 27.1.1, SVG Export Plug-In . SVG Version: 6.00 Build 0)  -->
<svg version="1.1" id="Layer_1" xmlns="http://www.w3.org/2000/svg" xmlns:xlink="http://www.w3.org/1999/xlink" x="0px" y="0px"
	 viewBox="0 0 416 69" style="enable-background:new 0 0 416 69;" xml:space="preserve">
<g id="CADILLAC_2DCREST">
	<g id="CADILLAC_2DCREST_POS_RGB" transform="translate(0.000000, 15.957231)">
		<path id="Shape" d="M25.2,22.8h-8.7l-0.7-4h37.2v4h-1v-3H24.9L25.2,22.8z M15.7,17.9h37.4V15H15.2L15.7,17.9z M39.1,27.7h14v-2.1
			h-14L39.1,27.7z M14.8,14h8.9L22,11.1h30V14h1v-3.9h-41L14.8,14z M68.3,10.1H54.2V16h14.1L68.3,10.1z M18.5,32.7
			c0.2,0.3,0.7,0.8,2.1,1.1c0.7,0.2,1.4,0.3,2.5,0.6h15v-2.1H18.3C18.4,32.5,18.5,32.6,18.5,32.7L18.5,32.7z M17.7,29.5h20.4v-5.8
			H16.7L17.7,29.5z M39.1,37.7c5.2,1,10.3,2,14,2.6v-9.8h-14V37.7z M69.3,22.8h21.5l1-5.9H69.3V22.8z M69.3,12v2.1l23.1,0l1.4-2.1
			H69.3z M104.1,5.5l-6.8,9.6c-0.7,4.1-2.7,14.6-2.9,15.6c-0.6,2.9-0.9,4.7-6.7,6.1c-7.7,1.8-25.2,5.4-34.1,6.7
			c-8.8-1.4-26.4-4.9-34.1-6.7c-5.8-1.4-6.1-3.2-6.7-6.1c-0.2-1-2.2-11.5-2.9-15.6L3.1,5.5H104.1z M98.8,7.3H8.5l5.4,7.7
			c1.3,8,2.2,13.1,2.5,14.9c0.6,3.1,0.7,4.4,3.9,5.3c6.4,1.5,24.9,5.3,33.4,6.6c8.5-1.3,27-5.1,33.4-6.6c3.2-0.9,3.3-2.2,3.9-5.3
			c0.3-1.8,1.2-6.9,2.5-14.9L98.8,7.3z M54.2,27.7h1v-2.9h26.7c0,0.3-0.3,2.3-0.4,3h8.4l0.7-4H54.2V27.7z M54.2,31.5h35l0.6-2.9
			H54.2V31.5z M68.3,18.8H54.2v2.1h14.1V18.8z M54.2,32.3h34.7c0,0.1-0.1,0.2-0.2,0.4c-0.2,0.3-0.7,0.8-2.1,1.1
			c-6.3,1.6-23.6,5-32.5,6.4V32.3z M55.2,39.1c1.6-0.3,5.5-1,6.9-1.2c14.2-2.7,16.7-3.1,17.8-4.5H55.2V39.1z"/>
	</g>
</g>
<path id="path3802" d="M224.3,31.3c-1.1,1-2.7,1-3.3,0.2c-0.7-0.9-0.2-2.3,1-3.1c1.1-1,2.7-1,3.3-0.2C226,29,225.6,30.4,224.3,31.3z
	 M202.6,35.1c-0.4-0.3-1-0.5-1.9-0.5c-1.1,0-2.3,0.6-3.3,1c-4.7,2.4-10.3,7.7-12.9,11.8c-1.2,1.8-1.2,2.7-0.9,3
	c0.3,0.3,1.2,0.1,2.7-0.7C190.4,47.4,197.8,40.2,202.6,35.1z M178.8,35.1c-0.4-0.3-0.9-0.4-1.8-0.4c-1.1,0-2.5,0.5-3.5,1
	c-4.8,2.3-10.9,7.9-13.6,11.9c-1.2,1.8-1.2,2.8-0.9,3c0.3,0.3,1.2,0.1,2.7-0.7C165.8,47.5,173.8,40,178.8,35.1z M223.9,45
	c8.7-5.8,16.2-13.1,19.6-17.9c1.8-2.6,0.8-3.7-1.9-2.1C234.5,29.4,225.6,38.9,223.9,45z M277.3,35.1c-0.4-0.3-0.9-0.4-1.8-0.4
	c-1.1,0-2.5,0.5-3.5,1c-4.8,2.3-10.9,7.9-13.6,11.9c-1.2,1.8-1.2,2.8-0.9,3c0.3,0.3,1.2,0.1,2.7-0.7C264.3,47.5,272.3,40,277.3,35.1
	z M301.7,45.2l0.3,1.2c-1.7,1.9-6.1,4.9-10.9,6c-4,1-6.9,0.4-8.6-1.4c-1.4-1.5-1.7-3.9-0.9-6.4c-8.1,7.6-12.7,8.4-14.3,7
	c-1.3-1.2-1-4,0.7-6.2c-2.4,2.1-5.1,4.2-7.2,5.4c-3.5,2-5.4,1.2-5.7-1c-0.2-1.1,0.3-2.7,1.2-4.3c-7,5.9-12.2,7.1-15.2,6.2
	c-1.3-0.4-2.2-1.5-2.7-3c-9.1,4.8-16.4,4.5-18-0.2c-5.5,3-10.8,4.4-12.9,3c-1.6-1-2.4-3.1-0.7-6.5c-5.7,5.1-10.7,8.1-13.2,6.4
	c-1.6-1-1-4.2,0.5-6.4c-2.4,2.1-4.9,4.2-7,5.5c-3.4,2.1-5.4,1.3-5.8-0.9c-0.2-1.2,0.4-2.9,1.2-4.6c-7.2,6.7-12,7.8-13.6,6.2
	c-1.3-1.3-1-3.9,0.7-6.1c-2.4,2.1-5.1,4.2-7.2,5.4c-3.5,2-5.4,1.2-5.7-1c-0.2-1.3,0.5-3,1.6-5c-9.3,7.6-20.9,13.7-28.7,13.7
	c-9.7,0-12.5-7-9.1-15.3c1.2-2.9,3.5-6.1,6.5-9.1c-8.9-0.6-12.9-2.6-14.6-5.6c-1.1-2.1-0.7-6,3.5-9.4c6.3-5.3,18.4-8.7,27.5-9.7
	c2.1-0.2,3.9-0.3,4.9-0.3l0.9,1.5c-8.2-0.7-23.2,3.2-29.5,9c-4.4,4-4.1,7.6-1.9,9.9c1.5,1.6,4.2,3,10.8,3.2c0.7-0.7,1.4-1.2,2.2-1.9
	c13.3-10.9,34.9-20.6,49.3-22.6c3.8-0.6,7.3-0.3,8,2.3c0.9,3.2-2.5,8.4-14.3,14.3c-10.2,5-27,9.5-41,9.5c-3,3.1-5.5,6.4-7.4,9.4
	C121,51,123.1,57,129.9,57c9.6,0,22.7-8.8,31.3-16.4c2.2-1.9,4-3,5.2-3.8c2.4-1.4,4.6-2.4,6.7-3c4-1,8.2-1,10.9,0.7
	c-0.2,0.1-0.6,0.4-1,0.7c-5.4,4.5-11,10.6-12.4,13.1c-0.5,0.9-0.7,1.6-0.3,2.1c1.1,1.2,7-1.7,15.3-9.7c1.1-1.1,2-1.8,3-2.4
	c2.8-2.2,5.7-3.6,8-4.3c3.7-1,6.3-0.9,7.8-0.3c2.6-2.5,7.1-6.7,10.6-9.9c1.6,0,2.9,0,4.5-0.1c-0.3,0.2-0.6,0.4-0.8,0.6
	c-2.5,2.3-7.6,6.9-11.9,10.9c-5.2,5-9.9,9.9-11.5,12.9c-0.7,1.1-0.9,1.9-0.4,2.3c1.2,1,6.5-1.7,14.3-9c3.1-3.3,6.9-6.9,8.2-8h4.7
	c-0.5,0.3-1,0.8-1.4,1c-3.4,3.1-9.1,8.4-11.2,11.5c-1.7,2.5-1.4,3.7-0.7,4.3c1.4,1,6.6-0.3,11.5-3c-0.1-2,0.6-4.6,2.1-7
	c2.5-4.3,8.2-10.6,17.2-15.7c2.7-1.5,4.8-2,5.8-1c1,1,0.8,2.9-0.9,5.2c-4.5,6.7-12.6,12.8-21.1,18.4c-0.5,3.3,4.5,6.1,14.9,0.4
	c-0.1-2,0.6-4.5,2.3-7.1c3.1-5,9.3-11.1,17.4-15.7c2.7-1.5,4.7-2.1,5.8-1c1,1,0.8,2.9-0.9,5.2c-4.2,6.3-10.6,11.3-21.4,18.6
	c-0.6,2.9,1.4,4.8,7,2c3-1.4,6.8-4.2,12-8.8c0.4-0.3,0.8-0.7,1.1-1c0.4-0.3,0.8-0.6,1-0.9c3.3-2.3,6.2-3.8,9.1-4.6
	c4-1,8.2-1,10.9,0.7c-0.2,0.1-0.6,0.4-1,0.7c-5.4,4.5-11,10.5-12.4,13.1c-0.5,0.9-0.7,1.6-0.2,2.1c0.9,0.9,5.9-0.7,15-9.4
	c1.4-1.3,2.3-2.2,3.3-3c3-2.4,6.2-4,9.3-5c3.4-1,6.8-0.9,7.2,1.7c0.5,3-3,5.7-6.6,7l-0.1-1.3c2.6-1.7,4.9-4.5,3.8-6
	c-0.6-0.9-2.4-0.8-5,0.4c-2.9,1.3-7.5,5.4-9.9,9.2c-1.6,2.6-2,5.1-0.8,6.4c1.2,1.2,3.2,1.3,5.6,0.8C294.4,50.4,299,47.8,301.7,45.2z
	 M134.4,32.7c14.7-0.5,27.2-4.8,40.5-11.2c8.4-4,12.2-8.2,11.6-10.5C186,9,183.3,9,180.2,9.5c-14,2.1-33.7,12.4-43.2,20.8
	C136.1,31.1,135.3,31.9,134.4,32.7z M241.9,45.2c8.8-5.8,16.9-13.7,20.1-18.5c1.5-2.2,0.2-3.1-1.8-1.9
	C253.2,29,243.8,38.9,241.9,45.2z"/>
</svg>
