<?xml version="1.0" encoding="utf-8"?>
<!-- Generator: Adobe Illustrator 27.1.1, SVG Export Plug-In . SVG Version: 6.00 Build 0)  -->
<svg version="1.1" id="Layer_1" xmlns="http://www.w3.org/2000/svg" xmlns:xlink="http://www.w3.org/1999/xlink" x="0px" y="0px"
	 viewBox="0 0 2500 2500" style="enable-background:new 0 0 2500 2500;" xml:space="preserve">
<style type="text/css">
	.st0{clip-path:url(#SVGID_00000059995449442772013280000010519453124983467964_);}
	.st1{clip-path:url(#SVGID_00000046301046429816453500000013454349951509109422_);}
	.st2{fill-rule:evenodd;clip-rule:evenodd;fill:#37376C;}
	.st3{fill-rule:evenodd;clip-rule:evenodd;fill:#FFFFFF;}
	.st4{fill-rule:evenodd;clip-rule:evenodd;}
</style>
<g>
	<defs>
		<ellipse id="SVGID_1_" cx="2156.8" cy="1250" rx="306.5" ry="306.5"/>
	</defs>
	<clipPath id="SVGID_00000110462504609465636690000000544760900141741952_">
		<use xlink:href="#SVGID_1_"  style="overflow:visible;"/>
	</clipPath>
	<g style="clip-path:url(#SVGID_00000110462504609465636690000000544760900141741952_);">
		<g>
			<defs>
				<rect id="SVGID_00000096749154074522307220000008014767306079070868_" x="1850.3" y="943.5" width="613" height="613"/>
			</defs>
			<clipPath id="SVGID_00000029019715794073100090000016962400430644130973_">
				<use xlink:href="#SVGID_00000096749154074522307220000008014767306079070868_"  style="overflow:visible;"/>
			</clipPath>
		</g>
	</g>
</g>
<g>
	<defs>
		<ellipse id="SVGID_00000155148455658517985800000014558315487536236212_" cx="2156.8" cy="1250" rx="306.5" ry="306.5"/>
	</defs>
	<clipPath id="SVGID_00000163043390036994031570000006378972753069431702_">
		<use xlink:href="#SVGID_00000155148455658517985800000014558315487536236212_"  style="overflow:visible;"/>
	</clipPath>
	<g style="clip-path:url(#SVGID_00000163043390036994031570000006378972753069431702_);">
		<g>
			<defs>
				<rect id="SVGID_00000042728256894092320430000014029380891053299628_" x="1850.3" y="943.5" width="613" height="613"/>
			</defs>
			<clipPath id="SVGID_00000039854935448078222740000004017597375003059080_">
				<use xlink:href="#SVGID_00000042728256894092320430000014029380891053299628_"  style="overflow:visible;"/>
			</clipPath>
		</g>
	</g>
</g>
<path class="st2" d="M2161.1,1040.7c19.3,0,38,2.6,55.8,7.4l-59.2,132.5l-58.1-130.8C2119.5,1043.5,2139,1040.7,2161.1,1040.7z
	 M2123.8,1256.4l-40.6,90.1l-96.1-215.9c16.3-23,36.9-42.6,60.7-57.6l77.8,175.4h69.9l78.2-175.5c19.2,12,36.3,26.9,50.9,44.2
	c2,2.5,4,5.1,5.9,7.8l-98.9,221.6l-40.3-90.1L2123.8,1256.4L2123.8,1256.4L2123.8,1256.4z M2061.7,1443.4
	c-67.9-35.8-114.2-107.1-114.2-189.1c0-19.7,2.4-38.3,7.4-56.4l110,247.1C2063.6,1444.4,2063,1444,2061.7,1443.4z M2157.3,1465.9
	c-18.8,0-37.3-2.4-55.3-7.2l58.3-131.9l58.4,130.3C2198.8,1462.9,2178.1,1465.9,2157.3,1465.9z M2258.4,1440.6l107-240.3
	c4.1,16.7,6.2,33.9,6.2,51.3C2371.6,1330.6,2328.1,1403.2,2258.4,1440.6z M2160.9,1518.9c145.9,0,264.5-118.6,264.5-264.5
	s-118.6-264.5-264.5-264.5s-264.5,118.7-264.5,264.5S2015,1518.9,2160.9,1518.9L2160.9,1518.9z"/>
<path class="st3" d="M1940.2,1250c0,87.9,52.3,163.5,127.5,197.5L1950.5,1184C1943.7,1205.4,1940.2,1227.6,1940.2,1250z
	 M1980.9,1123.7l101.8,228.6l42.2-94.6h63.9l42.2,94.6l101.7-228.5c-17.3-24-39.2-44.2-64.6-59.5l-79.4,178.1h-63.9l-79.4-178.1
	C2020.1,1079.5,1998.1,1099.7,1980.9,1123.7L1980.9,1123.7z M2363.1,1184l-117.3,263.4c75.2-33.9,127.5-109.6,127.5-197.5
	C2373.3,1227,2369.7,1204.8,2363.1,1184z M2220.3,1457l-63.6-142.8l-63.6,142.8c20.1,6.2,41.4,9.5,63.5,9.5
	C2178.9,1466.5,2200.2,1463.2,2220.3,1457z M2093.2,1043l63.6,142.8l63.6-142.8c-20.1-6.2-41.5-9.5-63.6-9.5
	S2113.3,1036.8,2093.2,1043z M1895.3,1250c0-144.4,117.1-261.5,261.5-261.5s261.5,117.1,261.5,261.5s-117.1,261.5-261.5,261.5
	S1895.3,1394.4,1895.3,1250z"/>
<path class="st4" d="M2615.5,1365.4h-48.6l-75.7-205.4h49.1l39,115.9c4.6,13.6,8.6,27.4,12.1,41.4c3.5-14.2,7.2-26.6,11.8-39.9
	l40.5-117.3h48.5L2615.5,1365.4z M2784.5,1301.7c0,17-12.1,32.4-30.2,32.4c-15.8,0-30.5-13.3-30.5-31.8c0-17.3,11.5-32.7,30.2-32.7
	C2771,1269.6,2784.5,1283.5,2784.5,1301.7L2784.5,1301.7z M2826,1301.7c0-39-30.3-67.6-71.7-67.6c-43,0-72,29.8-72,67.4
	c0,39.9,30.8,68.2,70,68.2C2799.5,1369.7,2826,1336.1,2826,1301.7z M2857.5,1365.4v-216.8h41.1v216.8H2857.5L2857.5,1365.4z
	 M3016.3,1365.4l-39.9-59.4v59.4h-41.1v-216.8h41.1v142.1l39.9-52h50.3l-48.9,58.4l52.4,68.3H3016.3z M3131.8,1369.2
	c-29.1,0-44.2-9.5-52-30.1l34.8-13.6c3.2,8.4,9.9,14.4,18.4,14.4c8.2,0,13.2-3.2,13.2-8.7c0-18.5-62.1-10.4-62.1-54.6
	c0-23.1,18.8-42.2,51.2-42.2c23.9,0,40.6,8.7,49,29.8l-32.9,12.7c-4-10.1-11.1-13.3-17.8-13.3c-5.3,0-11.2,3.2-11.2,9
	c0,20.2,62.2,11,62.2,55.4C3184.6,1353.8,3161.8,1369.2,3131.8,1369.2L3131.8,1369.2z M3383.1,1365.4h-38.8l-21.7-62.3
	c-2.3-6.2-4-12.6-5.2-19.1c-1.3,6.6-3.1,13-5.2,19.4l-21.7,62.1H3250l-54.7-127h42.8l24,61.2c2.9,6.9,4.9,14.7,7.2,22.3
	c2-7.5,4-15.6,6.1-21.7l21.4-61.8h42.3l20,57.7c2.9,8.7,5.5,16.8,7.2,25.2c2.9-9.5,5.8-18,8.7-25.2l22.6-57.7h42L3383.1,1365.4
	L3383.1,1365.4z M3549.6,1304c0,17.4-11.3,33.3-30.4,33.3c-19.7,0-31.6-15.9-31.6-34.7c0-19.4,13-32.4,30.1-32.4
	C3537.2,1270.2,3549.6,1285.8,3549.6,1304z M3588.7,1365.3v-126.7h-40.5v14.7c-7-10.7-22-18.8-39.7-18.8c-39.3,0-63,29.2-63,69.1
	c0,38.5,22.5,66,59.3,66c19.7,0,33-6.9,43.5-17.4v13L3588.7,1365.3L3588.7,1365.3z M3721.6,1300.3c0,17.1-10.7,32.1-28.9,32.1
	c-19.1,0-30.6-13-30.6-31.8c0-16.8,11.9-31,29.2-31C3712.1,1269.7,3721.6,1286.8,3721.6,1300.3z M3761,1353.3v-114.7h-40.6v14.4
	c-7.8-12.4-22.2-17.9-39.9-17.9c-34.4,0-60.7,28.3-60.7,66.4c0,33.5,19.1,62.8,59.5,62.8c15.9,0,29.8-4.6,41-17.1v17.9
	c0,20.6-9.2,31.7-28.3,31.7c-12.4,0-24.3-7.8-24.3-18.9h-40.7c0,27.9,22.8,49.6,62.4,49.6c23.1,0,40.7-5.5,54.8-19.1
	C3757,1395.6,3761,1381.4,3761,1353.3L3761,1353.3z M3883.2,1287.5h-50.8c1.4-14.1,11.3-24.4,26.1-24.4
	C3873.9,1263.2,3883.2,1275.5,3883.2,1287.5z M3923.7,1300.3c0-42.1-26.4-66.2-65-66.2c-39.5,0-66.4,29.7-66.4,68.8
	c0,44.7,31.8,66.8,66.1,66.8c29.3,0,47.7-10.1,62.4-29.3l-26.4-17.4c-8.3,11.1-18.5,16.5-31.6,16.5c-17.7,0-29.9-12-30.8-27.6h91.4
	C3923.7,1306.9,3923.7,1302.6,3923.7,1300.3z M4040.2,1365.4v-70.2c0-11.6-3.7-24.9-19.3-24.9c-8.1,0-25,4.7-25,28.4v66.7h-41.1
	v-126.8h41.1v16.7c6-8.4,17.8-19.6,40.9-19.6c16.2,0,26.6,5.8,33.3,12.4c8.1,8.1,11.3,18.5,11.3,37v80.3L4040.2,1365.4
	L4040.2,1365.4z"/>
</svg>
