<?xml version="1.0" encoding="utf-8"?>
<!-- Generator: Adobe Illustrator 27.1.1, SVG Export Plug-In . SVG Version: 6.00 Build 0)  -->
<svg version="1.1"
	 id="svg7" xmlns:inkscape="http://www.inkscape.org/namespaces/inkscape" xmlns:sodipodi="http://sodipodi.sourceforge.net/DTD/sodipodi-0.dtd" xmlns:svg="http://www.w3.org/2000/svg" xmlns:dc="http://purl.org/dc/elements/1.1/" xmlns:rdf="http://www.w3.org/1999/02/22-rdf-syntax-ns#" xmlns:cc="http://creativecommons.org/ns#"
	 xmlns="http://www.w3.org/2000/svg" xmlns:xlink="http://www.w3.org/1999/xlink" x="0px" y="0px" viewBox="0 0 700 700"
	 style="enable-background:new 0 0 700 700;" xml:space="preserve">
<style type="text/css">
	.st0{fill-rule:evenodd;clip-rule:evenodd;fill:none;stroke:#FF0000;stroke-miterlimit:10;}
	.st1{fill-rule:evenodd;clip-rule:evenodd;fill:#FF0000;}
</style>
<sodipodi:namedview  bordercolor="#666666" borderopacity="1" gridtolerance="10" guidetolerance="10" id="namedview9" inkscape:current-layer="svg7" inkscape:cx="315.92283" inkscape:cy="204.8626" inkscape:pageopacity="0" inkscape:pageshadow="2" inkscape:window-height="837" inkscape:window-maximized="1" inkscape:window-width="1600" inkscape:window-x="-8" inkscape:window-y="-8" inkscape:zoom="0.56067209" objecttolerance="10" pagecolor="#ffffff" showgrid="false">
	</sodipodi:namedview>
<g id="Layer1000" transform="matrix(0.77165507,0,0,0.77165507,24.491854,119.15155)" inkscape:export-filename="C:\Users\suitedoalex\sites\brahma-logo-4.png" inkscape:export-xdpi="69.250114" inkscape:export-ydpi="69.250114">
	<path id="path2" inkscape:connector-curvature="0" class="st0" d="M62.5,200.8h38.4v-56H744v56h37.1V455H660.5l-0.5-44.3H523.5
		c-1.3,0.5-2.6,0.9-3.9,1.4c-7.8,2.8-15.2,6.2-22.7,9.7c-1,0.5-2.2,1-3.2,1.6c-1.8,1.1-3.9,1.1-5.7,0c-1.9-1.2-3.2-4-4.1-6
		c-0.3-0.6-0.6-1.3-0.8-2.1c-0.9,1.6-1.7,3.2-2.4,4.6c-1.4,2.7-2.8,5.6-4,8.4c-0.9,2.1-1.9,4.7-2.5,6.9c-0.7,2.8-3.5,4.5-6.3,3.8
		c-1.9-0.5-4.1-1.8-5.6-3.1c-3.4-2.8-4-7-3.3-11.1c0.3-1.8,0.9-3.6,1.6-5.3c-4.6,4.3-11.3,7.6-16.5,6.5c-1.7-0.3-3.3-1.1-4.6-2.2
		c-2.2,4.1-4.1,8.7-5.8,13c-1,2.4-3.5,3.8-6,3.2c-1.8-0.4-3.9-1.2-5.5-2.3c-3.4-2.4-4.3-7-3.3-10.9c0.2-0.9,0.7-2.1,1.2-3.3
		c-4.7,6.2-12.4,10.3-20.2,8.2c-4-1.1-6.8-3.4-8.3-6.6c-2.3,1.4-4.7,2.8-7,4.2c-4.3,2.6-11.2,4.1-14.9-0.2c-2-2.2-2.1-5.2-1.5-8
		c-1,0.6-1.9,1.1-2.3,1.3c-2.5,1.4-5.6,4.4-7.4,6.5c-0.3,0.3-0.6,0.6-0.9,0.8c-0.4,0.4-0.7,0.8-1,1.2c-2.5,3-4.7,4.2-8.6,3.6
		c-2.8-0.5-4.2-1.6-5.8-3.8c-1.7-2.2-2.4-4.1-2.4-7c0-0.2,0-0.3,0-0.5c-2.6,1.6-5.3,3-8,4.3c-4.5,2.3-9.6,4.8-14.4,6.4
		c-6.4,2.2-15.6,5.5-22,2c-5.2-2.9-7.8-8.1-8.1-13.9c-0.1-2.5,0.1-5.4,0.8-7.9c0.3-1.2,0.7-2.5,1.2-3.7H186.8l-0.4,44.3H62.5V200.8z
		 M326.3,410.7h-13.9c-1.4,2.5-2.7,5.1-3.5,7.5c2-0.4,5.7-2.1,7.4-2.9C319.6,413.9,323,412.3,326.3,410.7L326.3,410.7z"/>
	<path id="path4" inkscape:connector-curvature="0" class="st1" d="M160.1,200.3h47.6c12.4,0,22.5,10.1,22.5,22.5v41.3
		c0,3-2.5,4.7-2.5,4.7l-11.5,8.9c0,0,9.3,6.5,11.6,7.8c2.3,1.3,2.4,6,2.4,6v38.7c0,12.4-10.1,22.5-22.5,22.5h-47.6V200.3z
		 M577.2,395.8c-1.1-2.5-0.9-3.5-2.9-3.8c-1.9-0.3-13-2.6-26-0.6c-13,2-33.1,7.7-37.2,9.2c-4.1,1.5-5.4,2.2-5.1,0
		c0.3-2.2,1.9-6.7-0.4-8.2c-2.3-1.5-4.5-3.1-8.4-2.4c-3.8,0.7-6.3,2.4-6.3,2.4s1-3-0.1-4.4c-1.1-1.4-1.7-1.9-3-0.5
		c-1.2,1.4-8.5,6.1-15,8.9c-6.5,2.8-9.2,3.8-9.2,3.8s-2.1-3.9-4.8-4.7c-2.7-0.8-5.5-1.4-7.6,0.2c-2.2,1.5-2.2,1.5-2.2,1.5l-0.7-0.3
		c0,0,0.8-2.5,0.4-3.7c-0.4-1.1-0.9-2.3-1.4-1.8c-0.5,0.4-6.2,5.2-11.9,7.2c-5.7,2-12.7,3.8-14,3.5c-1.3-0.2-1.9-1.4-1.4-2.2
		c0.5-0.8,1.3-2.1,0.7-3.6c-0.6-1.5-2.6-3.2-7.2-1.8c-4.7,1.4-7.2,4.4-11.1,8c-3.8,3.6-9.7,7.3-12.6,8.8c-3,1.5-4.5,2-4.5,0.8
		c0-2.3,1.3-3.4,1.8-4.8c0.5-1.4,0.7-2.9-0.1-5.2c-0.3-0.8-1.7-2.3-6.2-1c-4.6,1.3-9.7,3.3-12.4,5.1c-2.7,1.8-3.1,1.8-3.1,1.8
		s7.7-10.1,14.3-17.1c6.7-7.1,11.4-11.7,11.4-11.7s0.8-1.6,0.4-2.1c-0.4-0.5-1.8-3.7-3.1-4.6c-1.3-0.9-1.9-2-3.8-0.3
		c-1.9,1.7-10.1,11.5-13,14.2c-2.9,2.7-14.1,11.6-18.6,14.9c-7.8,5.6-39.5,21.3-43.9,21.4c-4.4,0.1-6.8-1.3-5.6-5.5
		c1.2-4.2,5-12.9,12-20.4c7.3-7.9,13.9-11.8,17.2-13.4c3.9-2,6.1-1,7.4,0.1c1.3,1.1,1.8,4.4,3.1,4.7c1.3,0.3,2.9-0.7,3.7-2.3
		c0.8-1.7,0.8-4-0.8-6.3c-1.7-2.3-2.8-4.8-6.7-5.8c-3.9-1-7.6-1.7-12.3,0.6c-4.8,2.4-16.2,10.7-22.5,19C295,406,293,415,293,415
		s-3.3,11.4,4.8,15.9c4.5,2.5,13.6-0.9,17.8-2.4c4.1-1.4,15.1-6.4,21.9-10.6c6.8-4.2,14.9-9.6,14.9-9.6s-0.1,1.2-0.5,1.8
		c-0.4,0.7-2.4,2.8-4.1,6c-1.7,3.2-2.8,5.4-2.8,7.2c0,1.8,0.4,2.5,1.3,3.6c0.9,1.1,1.2,1.6,2.6,1.8c1.4,0.2,1.9,0.3,3.6-1.7
		c1.7-2.1,2-2.1,2-2.1s4.6-5.4,8.9-7.7c4.3-2.3,8.1-5,11.3-4.2c2.6,0.7,0.8,2.6-0.3,5.1c-1,2.5-1.9,5.8-0.8,7
		c1.1,1.3,4.6,1.4,8.3-0.8c3.7-2.2,8.6-5.2,10.6-6.6c2-1.4,2.8-2.1,2.8-0.2c0,1.9,0.4,7,6.1,8.5c5.6,1.5,11.4-1.7,15-6.8
		c3.6-5,5.4-10.8,5.4-10.8s2.7,0.6,7.3-0.8c4.6-1.3,6.8-2.6,6.8-2.6l-0.4,1.1l-7.8,13.8c0,0-3,5.6-3.5,7.5c-0.5,1.9-0.2,4.2,1.3,5.2
		c1.4,1,3.6,1.5,3.6,1.5s3.5-8.8,6.1-13.7c2.6-4.9,4.4-7.1,4.4-7.1s1.4,5.8,5.8,6.7c4.5,0.9,12.8-4.5,15.4-9.6
		c2.6-5.1,2.6-5.1,2.6-5.1s3.4-0.3,6.8-1.8c3.4-1.5,6.8-3.4,6.8-3.4s-6.1,8.4-9.3,15.9c-3.1,7.5-3,6.9-3.3,8.8
		c-0.3,1.9-0.5,4.5,1.5,6.1c2,1.6,3.4,2,3.4,2s0.7-2.8,2.7-7.6c2-4.9,7.3-15.2,9.6-18.4c2.4-3.2,8.4-9.2,11.8-9.9
		c3.4-0.7,5.4-0.8,5.6,0.5c0.2,1.3-0.4,3.8-1.6,4.4c-1.2,0.6-8.6,4.8-8.6,4.8l-1.3,0.7c0,0-0.3,3.3,1.3,6.6c1.6,3.4,2.2,3.8,2.2,3.8
		s0.5-0.3,3.8-1.9c3.3-1.6,25.2-12,38.8-14.4c13.6-2.3,23.3-3.4,30.3-2.3c6.9,1.1,10,1.8,10,1.8s2.4,0.8,3,0.1
		C577.4,400.7,578.3,398.3,577.2,395.8L577.2,395.8z M413.1,412.7L413.1,412.7c-2.6,4.5-6.3,6.1-7.5,5.8c-1.2-0.2-2.6-0.4-2.3-3.6
		c0.4-3.2,4.5-7.2,7.1-9.5c2.6-2.3,4.3-1.2,4.3-1.2C415.9,405.8,415.7,408.2,413.1,412.7z M452.7,407.4L452.7,407.4
		c-1.3,1.7-3.4,3.2-6.2,4.5c-1.8,0.9-3.6-0.1-3.6-0.1s-0.8-1.9,1.5-5.3c1.9-2.8,4.8-3.9,6.9-4.7c2.3-0.9,3.3,0.1,3.3,0.1
		C454.9,404.1,453.9,405.7,452.7,407.4L452.7,407.4z M191.1,151.5h463.7h40.7h41v251.3H585c0.4-1.2,0.7-2.3,0.8-3.4h147.4V155h-37.8
		H654h-462h-5.7h-74.5v244.5h180.7c-0.5,0.9-1.2,2.1-1.7,3.4H108.5V151.5h77.7H191.1z M186.7,226.2h10.4c3.4,0,6.2,2.8,6.2,6.2v26.9
		c0,3.4-2.8,6.2-6.2,6.2h-10.4V226.2z M186.7,287.6h10.4c3.4,0,6.2,2.8,6.2,6.2v26.9c0,3.4-2.8,6.2-6.2,6.2h-10.4V287.6z
		 M244.2,200.3h50c11,0,20,9,20,20v43.8c0,3-2.5,4.7-2.5,4.7l-11.5,8.9c0,0,10.8,6.5,13,7.8c2.3,1.3,2.4,6,2.4,6v61.2h-27.5v-58.1
		c0-3.7-3-6.7-6.7-6.7h-11.2v64.8h-26.2V200.3z M270.4,226.2h10.4c3.4,0,6.2,2.8,6.2,6.2v26.9c0,3.4-2.8,6.2-6.2,6.2h-10.4V226.2z
		 M346.6,200.3h13.7h8.8h13.7l20.9,152.4h-26.7l-2.9-26.4h-18.9l-2.9,26.4h-26.7L346.6,200.3z M364.7,240.4l-6.6,59.6h13.1
		L364.7,240.4z M461.2,200.3H488v152.4h-26.7v-68.3h-21.7v68.3h-26.7V200.3h26.7v59.2h21.7V200.3z M502.4,200.3
		c11.9,0,23.7,0,35.6,0l15.9,69.2l15.9-69.2c11.6,0,23.3,0,34.9,0v152.4h-26.2V252.4L561,352.7h-1.3h-11.6h-1.3l-18.2-103.9v103.9
		h-26.2V200.3z M635.7,200.3h13.7h8.8H672l20.9,152.4h-26.7l-2.9-26.4h-18.9l-2.9,26.4h-26.7L635.7,200.3z M653.8,240.4l-6.6,59.6
		h13.1L653.8,240.4z M71.6,207H103v4.1H76.3v232h96.8l-56.2-36.2h7.2l49.4,31.4v-31.4h4.7v40.3H71.6V207z M773.4,207h-31.3v4.1h26.6
		v232H672l56.2-36.2H721l-49.4,31.4v-31.4h-4.7v40.3h106.5V207z"/>
</g>
</svg>
