<svg version="1.1" id="Camada_1" xmlns="http://www.w3.org/2000/svg" x="0" y="0" viewBox="0 0 1000 364.9" style="enable-background:new 0 0 1000 364.9" xml:space="preserve"><style>.st0,.st1{opacity:.989;fill-rule:evenodd;clip-rule:evenodd;fill:#f91445;enable-background:new}.st1{opacity:5.000000e-03;fill:#fe0083}</style><path class="st0" d="M703.8 3.9c0 .7.4 1.1 1.1 1.1 32.1 8.2 57.2 25.8 75.3 52.8 16.4 28 22.6 58.3 18.6 90.8-4.4 43.8-21.1 81.8-50 114.2-10.3 10.4-21.2 20.1-32.8 28.9-1.1.6-2.2 1.1-3.3 1.7-.7 0-1.1.4-1.1 1.1-14.7 10-30.4 17.9-47.2 23.9 0 .8.1 1.5.6 2.2 9 11.5 18.6 22.3 28.9 32.5 3.9 3.7 8.2 7.1 12.8 10 .4.6.8 1.2 1.1 1.9-56.7-.6-107.4-17.8-152.2-51.7-9.9-8.3-19.2-17.4-27.8-27.2-.3-.6-.5-1.3-.6-1.9 1.7-1.6 3.4-3.4 5-5.3 2.1-.9 3.7-2.3 5-4.2.6-.2 1.1-.4 1.7-.6 6.3-5.5 12.6-11 18.9-16.7.6-.2 1.1-.4 1.7-.6 1.1-1.7 2.6-3 4.4-3.9l7.8-7.2c1.8-.9 3.3-2.2 4.4-3.9 1-.4 1.9-.9 2.8-1.4 4.1-4 8.4-7.9 12.8-11.7 2.2-1.7 4.4-3.3 6.7-4.7 1.1-1 2-2.1 2.8-3.3 2.2-1.5 4.4-3 6.7-4.4 1.1-1 2-2.1 2.8-3.3 16.3-13.2 32.4-26.7 48.3-40.3.6 1.3.7 2.6.3 3.9-3.8 16.6-7.6 33.3-11.4 50 .2.4.4.7.6 1.1 14.3-8.7 26.7-19.6 37.2-32.8.7 0 1.1-.4 1.1-1.1 1.1-1.3 2.1-2.8 2.8-4.4.7 0 1.1-.4 1.1-1.1 12.2-18.3 18-38.4 17.5-60.5-2.9-26.5-16.7-44.5-41.4-53.9-12.8-4.2-25.8-5.5-39.2-3.9-20.7 3.2-39.3 10.9-55.8 23.3-2.7 2.4-5.5 4.7-8.3 6.9-14.2 13.6-25.7 29.3-34.4 47.2-7.8 16.1-13.5 32.9-17.2 50.6-2.6 16.4-3.5 33-2.5 49.7.5 4.3 1.2 8.5 1.9 12.8-.2.6-.4 1.1-.6 1.7-2-2.3-3.8-4.7-5.6-7.2-15.2-27.5-21.1-57.1-17.8-88.6 3.7-32.3 15.1-61.5 34.2-87.5 3.1-3.3 6-6.9 8.6-10.6.7 0 1.1-.4 1.1-1.1 27.5-30.9 61.5-52 101.9-63.3 23.5-5.2 47.1-5.2 70.7 0zM239.4 60.5c-.7 0-1.1.4-1.1 1.1-1.3 7.3-2.8 14.5-4.4 21.7-.6 2.1-1.4 4.1-2.2 6.1-.7-.3-1.3-.7-1.9-1.1-1.7-2.5-3.4-4.9-5.3-7.2l-15-15.3c-3.6-2.8-7.3-5.5-11.1-8.1 0-.7-.4-1.1-1.1-1.1-17-11-35.3-13.6-55-7.8-9.2 3.8-16.3 10-21.1 18.6-4.6 11.1-3.5 21.5 3.1 31.4 4.4 5.3 9.2 10.3 14.2 15 7.6 6.2 15.4 12.3 23.3 18.1 2.6 1.6 5.1 3.2 7.8 4.7 6.2 4.8 12.3 9.7 18.3 14.7 2.2 2.3 4.6 4.4 7.2 6.1 3.1 4 6.6 7.8 10.3 11.4 19.4 23.9 25.6 51.2 18.6 81.7-1.2 4.7-2.5 9.3-3.9 13.9-.7 0-1.1.4-1.1 1.1-.8 2.4-1.7 4.8-2.5 7.2-6.3 12.2-14.6 23-24.7 32.2-3.8 3-7.7 5.8-11.7 8.6-2 1.3-4.1 2.6-6.1 3.9-3.2 1.4-6.3 2.8-9.4 4.2-.7 0-1.1.4-1.1 1.1-31.9 12.3-64.9 15.7-98.9 10-21.7-3.4-42.7-9.1-63-17.2-1-.6-1.5-1.5-1.4-2.8.6-4 1.5-7.9 2.8-11.7.7 0 1.1-.4 1.1-1.1 2.6-10.9 5.8-21.6 9.4-32.2 2.9-10.7 5.9-21.3 8.9-31.9.5-1.6 1.3-2.9 2.2-4.2.8.2 1.3.7 1.7 1.4 10.1 19.9 25.1 34.8 45 44.7l11.1 3.9c8.1 1.1 16.3 1.4 24.4.8 18.4-3 27.8-13.8 28.3-32.5 0-6.5-1.5-12.6-4.4-18.3-2.2-3.9-4.6-7.6-7.2-11.1-4.5-4.6-9.2-9-13.9-13.3-16.3-10.6-32.1-22-47.2-34.2-2.9-3.6-6.2-6.8-9.7-9.7-2.8-4-5.6-7.9-8.6-11.7-10.6-18-14.2-37.3-10.6-58 3.4-21 12.5-39 27.2-53.9 17.1-15 36.7-25.6 58.9-31.9 15.2-4.3 30.6-5.9 46.4-5 10-.1 20.2.2 30.4 1.1 17.9 2.7 35.4 6.8 52.5 12.2.1 1.5 0 3-.3 4.4-3.5 13.2-6.5 26.6-9.2 40z"/><path class="st1" d="M703.8 3.9c.6.2.9.6 1.1 1.1-.7 0-1.1-.4-1.1-1.1z"/><path d="M912.7 135.5c-.7 0-1.1.4-1.1 1.1-8 41-16.5 81.9-25.6 122.8 21.6-.7 43.1-2.9 64.4-6.7 13.8-4.6 27.3-9.6 40.6-15 .7 0 1.1-.4 1.1-1.1 2.6-.8 5.2-1.8 7.8-2.8.3 3.9-.1 7.7-1.1 11.4-10.9 22.4-21.8 44.8-32.8 67.2-1.7 2.7-3.4 5.4-5 8.1-61.3.8-122.6 1.6-183.9 2.2 0-1.1.2-2.1.6-3.1 3.4-4.4 6-9.4 7.8-14.7.7 0 1.1-.4 1.1-1.1 4.5-11.9 8.4-24 11.7-36.4 14.4-72.7 29-145.4 43.6-218 1.4-12.1 1-24.2-1.4-36.1 0-.7-.4-1.1-1.1-1.1.1-1-.1-1.9-.6-2.8 27.8-.6 55.6-.7 83.3-.3 12.3 1.2 16.6 7.8 13.1 19.7-7.6 35.6-15.1 71.1-22.5 106.7z" style="opacity:.99;fill-rule:evenodd;clip-rule:evenodd;fill:#f91345;enable-background:new"/><path d="M439.4 41.1c.7 0 1.1-.4 1.1-1.1 5.9-6.6 11.7-13.3 17.5-20 1.5-2.7 2.7-5.4 3.6-8.3h98.9v1.7c-2.4.3-4.6 1.2-6.7 2.5L542.7 24c-4.6 4.5-9.4 9-14.2 13.3-.2.6-.4 1.1-.6 1.7-3.5 3.1-6.8 6.4-9.7 10-.7 0-1.1.4-1.1 1.1-17 18.8-34.1 37.7-51.1 56.7-.7 0-1.1.4-1.1 1.1-2.2 2-4.3 4.3-6.1 6.7-.7 0-1.1.4-1.1 1.1-12.2 13.8-24.5 27.5-36.9 41.1-.3 1-.2 2.1.3 3.1 1.7 2.3 3 4.8 3.9 7.5 0 .7.4 1.1 1.1 1.1l48.9 93.3c13.4 22.2 29.4 42.5 47.8 60.8 3.8 2.6 7.5 5.3 11.1 8.1-2 1.7-4.2 3-6.7 3.9-6.6 1.9-13.2 3.3-20 4.2-21.3 1.7-42.2-.2-62.8-5.8 0-.7-.4-1.1-1.1-1.1-1.3-.3-2.6-.6-3.9-.8-17.7-7.6-32.1-19.2-43.3-34.7 0-.7-.4-1.1-1.1-1.1-4.9-7.4-9.3-15.1-13.3-23.1-12.1-25.5-24.7-50.8-37.8-75.8-.8 1.7-1.4 3.4-1.7 5.3-.8 6.2-1.7 12.4-2.8 18.6-.7 0-1.1.4-1.1 1.1-4.7 28.3-9.6 56.7-14.7 85-.6 3.8-1.8 7.4-3.6 10.8-1.3 1.5-2.6 3-3.9 4.4-1.4 1.3-3.1 2-5 2.2-30.6.3-61.1.4-91.7.3 0-.8.1-1.5.6-2.2 2-2.2 3.8-4.6 5.3-7.2 1.1-2.7 2.4-5.3 3.9-7.8 2.7-7.1 5.2-14.3 7.5-21.7 9.2-42.7 18.1-85.3 26.7-128 6.6-34.6 13.5-69.1 20.6-103.6 1.6-13.9 1.2-27.8-1.1-41.7 28.1-.2 56.3 0 84.4.6 3 .9 5.5 2.5 7.5 5 2 5.5 2.5 11.1 1.4 16.9-6.3 34.3-13.1 68.5-20.3 102.5 27.7-32.2 55.5-64 83.5-95.8z" style="opacity:.99;fill-rule:evenodd;clip-rule:evenodd;fill:#f81445;enable-background:new"/><path class="st1" d="M839.4 12.2c.7 0 1.1.4 1.1 1.1-.6-.2-.9-.5-1.1-1.1zM440.5 40c0 .7-.4 1.1-1.1 1.1.2-.6.6-.9 1.1-1.1zM518.3 48.9c-.2.6-.6.9-1.1 1.1 0-.8.4-1.1 1.1-1.1zM197.2 56.6c.7 0 1.1.4 1.1 1.1-.5-.1-.9-.5-1.1-1.1zM239.4 60.5c-.2.6-.6.9-1.1 1.1 0-.7.4-1.1 1.1-1.1zM531.1 67.2c0 .7-.4 1.1-1.1 1.1.1-.6.5-.9 1.1-1.1zM466.1 106.6c-.2.6-.6.9-1.1 1.1 0-.7.3-1.1 1.1-1.1zM458.9 114.4c0 .7-.4 1.1-1.1 1.1-.1-.7.3-1.1 1.1-1.1zM912.7 135.5c0 .7-.4 1.1-1.1 1.1 0-.7.4-1.1 1.1-1.1zM425 167.2c.6.2.9.6 1.1 1.1-.8 0-1.1-.4-1.1-1.1zM690.5 188.3c0 .7-.4 1.1-1.1 1.1.2-.6.5-.9 1.1-1.1zM686.6 193.8c0 .7-.4 1.1-1.1 1.1.2-.5.6-.9 1.1-1.1zM339.4 220c-.2.6-.6.9-1.1 1.1 0-.8.4-1.1 1.1-1.1zM992.1 236.6c0 .7-.4 1.1-1.1 1.1.2-.5.6-.9 1.1-1.1zM220 264.4c-.2.6-.6.9-1.1 1.1 0-.7.4-1.1 1.1-1.1zM712.7 293.3c0 .7-.4 1.1-1.1 1.1 0-.7.4-1.1 1.1-1.1zM395 294.9c.7 0 1.1.4 1.1 1.1-.6-.1-.9-.5-1.1-1.1zM3.9 299.9c0 .7-.4 1.1-1.1 1.1.2-.5.5-.9 1.1-1.1zM786.6 303.8c0 .7-.4 1.1-1.1 1.1.2-.5.6-.9 1.1-1.1zM164.4 321.6c-.2.6-.6.9-1.1 1.1 0-.7.4-1.1 1.1-1.1zM443.3 331.6c.7 0 1.1.4 1.1 1.1-.5-.2-.9-.5-1.1-1.1z"/></svg>