<svg xmlns="http://www.w3.org/2000/svg" viewBox="0 0 329.24 101.52"><title>Smirnoff logo</title><path d="M673.43,479.6a718.89,718.89,0,0,0-322.87,0l-3.19.73v82.43l5-1.16a710.77,710.77,0,0,1,319.17,0l5,1.16V480.33Z" transform="translate(-347.38 -461.24)" style="fill:#ee303c"/><path d="M412.33,532.75q4.36-22.25,8.72-44.45l.07-.33.33,0q3.81-.5,7.62-1l.44-.05L434,513l4.54-27.1.35,0q3.82-.41,7.64-.78l.42,0,9,43.39-.53,0q-3.82.32-7.64.68l-.44,0-4.53-26.41-4.54,27.34-.35,0q-3.81.41-7.62.87l-.44.05-4.53-26.3-4.52,27.44-.35,0q-3.81.51-7.61,1.06l-.65.09Z" transform="translate(-347.38 -461.24)" style="fill:#221f20"/><path d="M464.55,483.55l.43,0q3.78-.27,7.56-.49l.5,0v44.18l-.44,0q-3.77.23-7.54.49l-.5,0Z" transform="translate(-347.38 -461.24)" style="fill:#221f20"/><path d="M549,526.74q-4.34-.21-8.67-.36H540l-.11-.3Q535.16,513,530.44,500v26.13H530q-3.56-.07-7.12-.11h-.46V481.8h.47q4.26,0,8.5.14h.32l.11.3q4.82,13.08,9.64,26.22V482.24l.49,0q3.56.13,7.12.3l.45,0v44.18Z" transform="translate(-347.38 -461.24)" style="fill:#221f20"/><path d="M604.66,531.57q-3.74-.47-7.49-.91l-.41,0V486.43l.52.06c6.65.77,13.38,1.64,20,2.6l.4.06v7.59l-.54-.08c-4-.57-8-1.12-12-1.62v10.36q4.57.58,9.14,1.22l.41.06v7.61l-.53-.07q-4.5-.63-9-1.2v18.62Z" transform="translate(-347.38 -461.24)" style="fill:#221f20"/><path d="M634.91,536.06q-3.72-.64-7.45-1.23l-.4-.06v-44.2l.54.09c6.59,1,13.28,2.21,19.9,3.46l.38.07v7.6l-.56-.1c-3.81-.72-7.81-1.44-11.87-2.13v10.36q4.56.78,9.11,1.61l.38.07v7.61l-.55-.1q-4.46-.82-8.94-1.58v18.63Z" transform="translate(-347.38 -461.24)" style="fill:#221f20"/><path d="M402.48,510.1a4.72,4.72,0,0,0-3-1c-.22,0-.45,0-.68.06l-9.45,1.59-.31,0c-.49,0-.73-.18-.73-1.12v-8.11a1.15,1.15,0,0,1,.9-1l5.94-1h.14a.67.67,0,0,1,.71.66V504q4.1-.7,8.22-1.34v-6.07a5.34,5.34,0,0,0-1.65-4.09,4.85,4.85,0,0,0-3.33-1.18,7.32,7.32,0,0,0-.92.08c-4.16.69-8.32,1.42-12.4,2.17a7,7,0,0,0-5.72,6.92V514.6a4.92,4.92,0,0,0,1.43,3.57,4.24,4.24,0,0,0,3,1.15,5.81,5.81,0,0,0,1-.09l9.12-1.63.31,0h0c.23,0,.93,0,.93,1.09v8.18c0,1.27-.31,1.48-1,1.65-.09,0-5.86,1-6,1-.5,0-.66-.19-.66-1.27V525l-8.1,1.51h0v6a5.6,5.6,0,0,0,1.63,4.19,4.32,4.32,0,0,0,2.95,1.16,4.55,4.55,0,0,0,.82-.08c5.42-1,8.18-1.49,13.5-2.35a5.9,5.9,0,0,0,3.58-2.25,7.45,7.45,0,0,0,1.55-4.59V514.28a5.07,5.07,0,0,0-1.73-4.18" transform="translate(-347.38 -461.24)" style="fill:#221f20"/><path d="M499.77,500c-2,2-6.67,6.77-6.67,6.77V489.64l6.67-.17h.13c1.18,0,1.36.37,1.36,1.21v5.77a4.43,4.43,0,0,1-1.49,3.59m13.1,25.26q-4.31-9.74-8.63-19.43l3.42-3.33c1.37-1.49,2.05-2.24,2.05-5.32v-9.36c0-2.89-2-6-6.38-6-6.42.09-11.66.26-18.24.54l-.45,0v44.18l.49,0q3.78-.16,7.56-.28h.45v-10L498,511.8q2.78,7,5.55,13.94l.12.3H504q4.22-.07,8.44-.08h.72Z" transform="translate(-347.38 -461.24)" style="fill:#221f20"/><path d="M577.43,520.24a.69.69,0,0,1-.24.52.85.85,0,0,1-.55.22h-.1c-1.79-.16-4.94-.41-6.74-.55a1,1,0,0,1-.91-.92V492.14a.79.79,0,0,1,.81-.75h.08l6.73.55a1,1,0,0,1,.92.93Zm2.71-35.52c-4.57-.42-9.24-.8-13.91-1.13h-.13a5.38,5.38,0,0,0-5.63,5.74v32.17a6.05,6.05,0,0,0,5.91,6.28c5.26.37,8,.6,13.31,1.09l.69,0a5.42,5.42,0,0,0,4-1.57,5.68,5.68,0,0,0,1.51-4.06V491.11a6.18,6.18,0,0,0-5.73-6.38" transform="translate(-347.38 -461.24)" style="fill:#221f20"/><path d="M410,530.73q4.36-22.28,8.73-44.5l.07-.33.33,0q3.81-.5,7.63-1l.44-.05,4.54,26.09,4.54-27.13.35,0q3.82-.41,7.65-.78l.42,0,9,43.44-.53,0q-3.83.32-7.65.68l-.44,0-4.54-26.44L436,528.07l-.35,0q-3.82.41-7.63.87l-.44.05L423,502.71l-4.52,27.47-.35,0q-3.81.51-7.62,1.06l-.66.09Z" transform="translate(-347.38 -461.24)" style="fill:#fff"/><path d="M462.28,481.48l.43,0q3.78-.27,7.56-.49l.5,0v44.23l-.44,0q-3.77.23-7.55.49l-.5,0Z" transform="translate(-347.38 -461.24)" style="fill:#fff"/><path d="M546.81,524.72q-4.34-.21-8.68-.36h-.32l-.11-.3Q533,511,528.24,497.93v26.16h-.48q-3.57-.08-7.13-.11h-.46V479.72h.47q4.26,0,8.51.14h.32l.11.3q4.82,13.09,9.65,26.25V480.17l.49,0q3.57.13,7.13.3l.45,0v44.23Z" transform="translate(-347.38 -461.24)" style="fill:#fff"/><path d="M602.54,529.56q-3.74-.47-7.5-.91l-.41,0V484.36l.52.06c6.65.77,13.39,1.65,20,2.6l.4.06v7.6l-.54-.08c-4-.57-8-1.12-12-1.62v10.38q4.58.58,9.15,1.22l.41.06v7.62l-.54-.07q-4.51-.63-9-1.2v18.65Z" transform="translate(-347.38 -461.24)" style="fill:#fff"/><path d="M632.83,534q-3.73-.64-7.46-1.23l-.4-.06V488.51l.54.09c6.59,1,13.3,2.21,19.92,3.46l.38.07v7.61l-.56-.11c-3.82-.72-7.81-1.44-11.89-2.14v10.37q4.56.78,9.12,1.62l.38.07v7.62l-.56-.1q-4.47-.82-8.95-1.59v18.65Z" transform="translate(-347.38 -461.24)" style="fill:#fff"/><path d="M400.13,508.06a4.73,4.73,0,0,0-3-1c-.22,0-.46,0-.69.06L387,508.71l-.31,0c-.49,0-.73-.18-.73-1.12V499.5a1.15,1.15,0,0,1,.9-1l5.95-1h.14a.67.67,0,0,1,.71.66v3.86q4.11-.7,8.23-1.34v-6.08a5.35,5.35,0,0,0-1.65-4.09,4.86,4.86,0,0,0-3.33-1.18,7.43,7.43,0,0,0-.92.08c-4.16.69-8.33,1.42-12.42,2.17a7,7,0,0,0-5.73,6.93v14.13a4.93,4.93,0,0,0,1.43,3.58,4.24,4.24,0,0,0,3,1.16,5.78,5.78,0,0,0,1-.09l9.13-1.63.31,0h0c.23,0,.93,0,.93,1.09v8.19c0,1.27-.31,1.48-1,1.66-.09,0-5.87,1-6,1-.5,0-.66-.19-.66-1.27V523l-8.11,1.51h0v6a5.61,5.61,0,0,0,1.63,4.19,4.32,4.32,0,0,0,2.95,1.16,4.56,4.56,0,0,0,.82-.08c5.42-1,8.19-1.49,13.51-2.36a5.91,5.91,0,0,0,3.59-2.25,7.46,7.46,0,0,0,1.55-4.59V512.25a5.08,5.08,0,0,0-1.73-4.19" transform="translate(-347.38 -461.24)" style="fill:#fff"/><path d="M497.54,498c-2,2-6.68,6.78-6.68,6.78V487.57l6.68-.17h.13c1.18,0,1.37.38,1.37,1.21v5.78a4.43,4.43,0,0,1-1.5,3.59m13.11,25.29q-4.32-9.75-8.64-19.45l3.43-3.33c1.37-1.49,2.05-2.24,2.05-5.33v-9.37c0-2.9-2-6-6.39-6-6.43.09-11.67.26-18.26.54l-.45,0v44.24l.49,0q3.79-.16,7.57-.28h.46v-10l4.86-4.45q2.78,7,5.56,14l.12.3h.32q4.23-.07,8.45-.08h.72Z" transform="translate(-347.38 -461.24)" style="fill:#fff"/><path d="M575.28,518.21a.69.69,0,0,1-.24.52.85.85,0,0,1-.55.23h-.1c-1.79-.16-4.95-.41-6.75-.55a1,1,0,0,1-.91-.92V490.08a.79.79,0,0,1,.81-.75h.08l6.74.56a1,1,0,0,1,.92.93ZM578,482.66c-4.58-.42-9.25-.8-13.92-1.14h-.13a5.39,5.39,0,0,0-5.64,5.74v32.21a6.06,6.06,0,0,0,5.91,6.29c5.26.37,8,.6,13.32,1.09l.69,0a5.43,5.43,0,0,0,4-1.57,5.69,5.69,0,0,0,1.51-4.07V489a6.19,6.19,0,0,0-5.74-6.39" transform="translate(-347.38 -461.24)" style="fill:#fff"/></svg>