<?xml version="1.0" encoding="UTF-8"?>
<svg id="Capa_1" data-name="Capa 1" xmlns="http://www.w3.org/2000/svg" viewBox="0 0 580.95 409.86">
  <defs>
    <style>
      .cls-1 {
        fill: #e50c3a;
      }
    </style>
  </defs>
  <path class="cls-1" d="m558.45,381.23c-18.36,20.82-40.58,28.63-59.07,28.63-13.18,0-23.58-2.9-34.1-8.41-2.26,3.92-6.08,6.22-10.13,6.69-7.97.89-16.28-4.03-21.37-11.33H147.18c-5.09,7.31-13.4,12.22-21.38,11.33-4.05-.46-7.87-2.76-10.13-6.69-10.52,5.51-20.92,8.41-34.1,8.41-18.48,0-40.71-7.81-59.07-28.63-27.83-31.58-26.03-72.11-14.94-105.04,5.92-17.54,13.09-28.43,21.37-41.48,8.38-13.2,11.37-21,6.67-32.72,8.88-1.3,12.49,6.4,12.1,11.89-.88,12.25-19.85,21.53-33.5,56.27,1.86-1.78,4.09-2.86,7.11-1.7,4.02,1.55,8.65,12.41,3.27,25.56-.24.69-.54,1.37-.81,1.92-2.03,4.11-5.23,10.03-8.02,19.47,0-1.36,1.85-23.63,5.56-32.39,1.16,1.27,2.04,3.07,2.7,4.81-.37-6.71-3.07-14-10.86-14.91-.5,1.37-1.01,2.75-1.49,4.18-5.96,17.66-8.56,40.42-3.08,62.8.01-2.09.18-4.29.57-6.55-.7-6.23-3.2-28.41,4.54-48.01-3.83,17.87-3.14,30.64-2.28,40.03.34-.84.7-1.67,1.11-2.51-.41-4.22-1.35-19.57,4.54-37.34-3.61,17.85-3.45,31.46-3.33,35.06.29-.52.59-1.02.91-1.53-4.41,16.12-3.31,29.64,1.11,40.59.27.56.56,1.09.84,1.65-1.51-5.23-2.84-12.98-1.51-22.25-.17,12.6,4.31,25.33,6.39,30.56,1.07,1.62,2.19,3.23,3.38,4.8.57.66,1.14,1.28,1.73,1.9-8.61-16.83-19-49.15,8.34-76.64-27.43,31.81-11.67,86.79,29.58,101.97-1.05-.88-2.12-1.91-3.21-3.11-2.65-1.16-6.53-3.25-9.72-6.53,2.63,1.94,5.63,3.14,7.54,3.77-.43-.6-.85-1.23-1.26-1.89-2.89-1.69-8.99-5.58-10.89-9.46,2.89,2.99,7.19,5.51,9.38,6.69-.48-1-.95-2.05-1.36-3.17-2.31-1.33-7.49-4.66-10.71-9.34,2.01,2.63,7.66,6.04,10.08,7.44-.23-.77-.44-1.56-.63-2.38-.76-.36-3.66-1.86-5.21-4.29,1.41,1.49,4.12,2.83,4.99,3.24-.29-1.5-.54-3.08-.66-4.76,2.92,14.31,12.2,22.46,18.53,25.89,2.66.65,5.39,1.16,8.22,1.47h.14c-3.32-1.17-6.99-3.08-9.69-5.51-12.39-11.14-20.4-35.02-3.83-60.71-12.22,25.34-6.9,50.98,10.35,60.49,7.59,4.18,18.28,5.31,29.48,1.81,3.03-1.06,5.75-2.25,8.13-3.49-.11-.37-.17-.79-.24-1.18-8.09,4.58-32.9,10.91-43.71-6.8,16.58,16.93,38,7.29,43.41,4.44-.03-.57-.03-1.17-.01-1.77-4.47,2.78-20.69,9.2-32.43,1.53,14.01,5.66,27.87-.22,32.56-3.5.11-.94.26-1.89.49-2.9-1.42,1.26-6.44,5.18-14.66,5.56,10.21-2.24,14.47-6.75,15.19-7.57.16-.55.29-1.07.49-1.64-1.04,24.55,18.06,21.05,22.04,12.83h-1.22c-3.07,4.35-12.41,5.26-15.94-.62,4.12,4.9,11.98,3.52,14.62.62h-.29c-.6,0-1.17-.06-1.73-.18-8.58,3.77-13.16-3.49-12.57-11.28.59,8.7,4.94,11.35,10.21,10.44-.47-.24-.9-.53-1.32-.84-7-1.17-7.32-8.62-7.02-13.06.21,2.13.91,6.44,3.9,8.7-.27-.82-.43-1.68-.46-2.58-2.29-4.73-1.2-9.81-3.77-14.04,2.94,3.69,3.62,7.38,4.39,10.58.46-10.69-5.71-18.54-13.65-20.7-5.54-1.5-12.73-.8-17.96,5.14-5.58,6.88-.82,14.75.76,15.42-.62-3.58,4.59-7.69,8.9-8.31-.03-.36-.07-.74-.14-1.1-2.68.35-6.64,1.62-8.8,5.88.62-4.87,5.23-7.06,8.2-7.98-.12-.29-.24-.58-.41-.85-1.64.4-4.3,1.38-6.86,3.77,1.49-2.81,4.37-4.12,6.2-4.7-.35-.4-.75-.76-1.23-1.05-.71.19-1.7.61-2.86,1.53.59-1.02,1.3-1.64,1.92-2.01-.75-.3-1.63-.49-2.68-.53,10.06-5.23,14.6,7.13,11.95,12.58-1.78,5.72-15.07,11.37-26.39,6.24-17.26-7.82-16.07-23.2-11.44-30.09,4.15-6.19,10.04-7.15,13.75-5.87-6.96-3.25-15.69-1.04-19.68,7.01-2.61,5.29-3.45,16.37,1.62,27.27-6.86-10.11-5.55-22.45-3.03-28.24,4.46-10.22,16.12-12.69,23.31-4.77-.15-5.23-2.89-8.02-5.58-9.36-4.74-2.36-11.01.06-13.09,3.09,1.96-4.22,4.85-5.34,7.01-6.03,4.28-9.44-.73-17.57.86-23.87-5.63,1.35-14.41,7.64-16.44,12.57-2.28-4.74-11.39-8.19-19.13-1.79,4.08,1.22,7.19,6,8.9,10.64.26-4.99-2.44-9.7-5.75-10.86,8.32-.67,8.71,6.3,8.35,10.77-.44,5.56-3.93,17.49-1.29,33.84-5.78-3.96-13.04-9.64-16.93-21.61-.53,10.99,3.32,28.99,15.18,40.49-15.96-12.86-21.1-37-19.06-54.29,1.94-16.5,11.96-29.33,24.8-35.34,4.82-2.26,10.31-3.43,15.21-3.06-4-7.53-13.86-9.44-23.31-4.95,2.69-2.25,19.91-17.85,8.43-39.08-2.92,10.11-15.86,11.63-18.9,32.85.12-10-2.27-16.84-9.2-19.75,11.86-25.98,47.34-42.08,64.22-73.41,10.18-18.88,9.67-36.73,10.35-46.16.65-9.17,3.78-22.09,13.43-24.85-15.48-3.91-27.57,12.71-28.51,39.29.64.29,1.25.64,1.83,1.04.2-4.2,1.34-17.34,7.91-26.44-4.52,9.6-5.62,23.89-5.87,28.28.4.47.76,1.01,1.07,1.61.42-5.19,1.47-15.12,5.14-23.65-2.93,9.42-3.76,22.18-3.98,27.18.5,3.11.06,7.19-1.89,12.57,3.73-18.93-10.25-20.17-13.23-19.57,8.63,8.86,7.49,26.56,2.99,34.22,1.93-6.05,1.97-14.12-3.76-19.96.68-3.58,1.18-9.18-2.87-16.59,0,0,3.72-.64,7.86-.05,2.41-12.91,2.85-24.67-5.2-32.99-2.39-2.47-5.47-4.48-9.3-4.06-1.85.2-3.63,1.33-4.61,3.45-1.3,2.79-.25,5.07,1.41,5.92,1.71.88,5.63.15,6.78-4.3.08,7.22-9.2,15.02-17.13,9.75.57,2.21,3.01,6.66,7.99,7.72,1.77-.29,4.71-1.53,6.04-6.33.16,2.71-.54,4.8-1.49,6.18.82-.24,1.6-.6,2.33-1.05,1.74-1.89,2.8-4.95,2.31-8.04.95,1.64,1.07,3.41.89,4.92,2.11-3.14,2.7-7.6.15-12.32,6.21,5.33,4.72,13,1.43,17.11-4.05,5.06-10.76,5.64-15.91,2.44-9.51-5.9-12.38-21.59-1.07-30.58,4.72-3.74,13.4-6.58,22.61-3.7,3.64,1.14,7.59,3.31,10.42,6.23-6.98-5.06-14.95-4.19-18.09-3.12,6.59,3.48,14.32,12.21,14.58,22.27.27-1.31.89-2.91,1.78-4.62-.33-3.14-1.62-8.71-6.41-13.62,4.96,2.54,7.22,8.28,8.01,10.87.44-.68.9-1.37,1.42-2.06-.74-2.52-2.22-6.15-5.03-8.18,3.57,1.47,5.32,4.84,6.06,6.84.08-.08.15-.18.22-.27.24-2.44-.06-4.7-1.1-6.45,1.44,1.61,2.34,3.25,2.88,4.43,6.58-6.98,16.18-10.75,26.34-4.4l37.64-.04c1.32-1.77,3.03-3.38,5.21-4.72-5.4,4.04-4.41,23.42,13.93,24.21-13.31,2.96-20.76-9.36-18.43-18.3-3.45,8.81.36,18.57,6.95,21.1,7.32,2.81,16.21.24,17.64-8.85-8.02,5.06-20.37-5.47-18.02-14.44,1-3.59,4.03-5.54,8.06-5.35,3.66.17,8.21,1.89,13.98,4.45,4.55,2.01,14.96,8.42,20.72,12.05-3.16-2.99-5-7.09-6.64-10.04-.45-.82-3.32-3.1-7.52-8.61-.18-.38.12-.46.3-.25,4.34,5.1,7.5,8.46,12.2,9.66-2.26-3.87-3.63-8.58-3.85-11.26-.88-1.68-2.51-5-3.21-7.12-.16-.46.04-.81.34-.07.94,2.32,1.99,4.4,3.78,6.67,3.96,4.97,9.64,6.06,11.7,8.07-.2-.87-.04-1.99.04-2.9.08-.84-.46-2.21-.62-2.69-.69-2.19-1.43-4.47-1.94-7.44-.04-.42.12-.78.29-.25,2.75,12.16,8.4,14.59,10.02,17.02-.04-.41.27-1.77-.06-2.62-.45-1.08-1.51-3.78-2.01-7.6-.08-.53.13-.8.25-.08,1.37,9.7,8.69,14.33,10.39,16.57.12-.87.29-1.69.5-2.52,1.92,3.28,3.95,4.24,6.17,5.82-1.75-2.5-3.04-4.89-4.96-8.51-1.87-.63-4.72-3.07-3.15-7.08.02-.06-5.22-13.48-6.09-27.1-1.18-.5-2.4-1.42-2.68-2.75-.75-3.5,5.33-7.01,11.55-5.12-1.45-.15-3.45.19-3.9.65-1.93,1.98-1.4,4.49-1.22,4.86.53-.08,1.08-.21,1.77-.18-.24,3.81,1.3,8.36,1.94,10.17-1.81.43-3.03,1.18-3.86,2.29.94,4.15,2.2,8.46,4.43,14.04,1.78-1.81,4.65-3.55,8.05-4.13-7.44,1.9-7.4,8.7-5.62,10.71-.57-2.71,2.62-5.96,5.93-6.23-3.13.49-4.95,3.66-5.13,6.28,1.53,2.74,4.54,7.41,6.79,10.12.19-.44.16-.25.47-.75-1.23-1.41-4.81-6.06-5.01-8.21,1.25,1.67,4.86,5.37,6.12,6.46,1.41-1.69,3.71-4.46,6.78-5.54-7.59,5.74-5.52,11.14-4.12,12.14.46-2.15,2.33-5.87,6.57-7.28-4.3,2.3-5.06,6.89-4.8,9.87,17.21,15.68,46.84,14.25,60.5,7.93-.71-.82-1.43-1.78-2.12-2.84-16.48,7.79-34.45,4.84-49.58-2.12,19.93,6.41,37.42,3.87,47.55-1.61-1.23-2.76-2.09-5.97-2.14-9.49-5.92,3.48-25.64,9.51-42.54-.61h-.01c-1.61-1.03-2.75-1.6-4.19-1.64.83-.79,2.31-.75,3.67-.4-.47-2.12-1.52-5.23-3.7-5.35,6.23-.44,8.11,4.36,8.03,6.78,6.44,3.17,23.68,6.99,37.19-2.08.36-5.6,2.92-9.07,7.88-10.95-.48-4.27,1.63-8.68,6.05-10.82-1.44-7.65-7.63-10.69-11.75-17.05-4.47-6.93-3.89-13.97,7.35-15.82,15.88-2.63,36.88,2.66,53.32,10.2,24.46,11.23,33.53,24.45,30.16,30.14-3.23,5.44-13.12,7.05-21.83,7.64-6.53.44-11.37,1.55-15.14,3.29,1.94,8.05-3.33,13.15-11.56,14.43-.04.01-.08.01-.13.02-.47.07-.96.14-1.44.18-.04,0-.07.01-.13.01.43,7.18-4.38,13.43-15.23,12.91-6.88,4.56-18.7,10.04-37.06,10.21-21.55.18-36.68-10.3-43.18-16.66-4.78-.6-7.35-2.84-7.35-7.89-2.24,9.99,6.19,9.23,6.19,9.23,0,0,5.81,6.81,19.29,10.99-38.04,8.44-69.51-17.65-79.37-17.65-2.02,7.01-8.28,12.16-14.97,12.66-7.65.58-13.51-3.95-16.27-10.63-.1-.27-.2-.57-.29-.84h-37.17c-4.05,0-7.52-1.74-8.93-4.92-5.5,7.45,1.41,32.04-16.22,62.35-15.86,27.3-47.77,43.64-59.42,68.91,2.03,1.35,3.35,3.11,4.39,5.55,5.4-9.76,15.87-11.95,14.52-23.41,8.94,5.81,13.5,26.95,3.54,39.92,10.3-.34,17.62,6.29,20.09,14.15-23.38.27-34.81,9.81-39.23,21.87-3.98,10.93-3.42,29.57,11.55,40.57-1.24-9.21.07-18.33.34-20.67.45-4.17-5.4-14.99-11.48-15.83,4.05-5.98,14.94-8.92,22.28-2.86,6.3-8.55,17.89-12.87,22.39-12.63-3.83,5.83.42,19.16-2.96,27.23,6.29.64,10.56,5.67,11.51,11.03.7,3.97-.05,6.8-1.42,9.16-2.55-3.3-6.09-5.19-9.48-4.85-4.45.46-8.61,5.01-8.3,12.86.3,8.3,5.55,17.25,20,18.53-6.55-12.41,1.26-25.76,14.63-26.88,11.59-.98,23,7.58,23.8,19.85,1.36-.77,2.92-1.23,4.6-1.23h311.89c1.67,0,3.25.46,4.6,1.23.79-12.27,12.19-20.82,23.79-19.85,13.38,1.11,21.18,14.46,14.64,26.88,14.45-1.28,19.69-10.23,20-18.53.3-7.84-3.86-12.39-8.31-12.86-3.38-.35-6.92,1.55-9.47,4.85-1.37-2.35-2.12-5.18-1.43-9.16.95-5.36,5.23-10.39,11.52-11.03-3.37-8.07.86-21.4-2.96-27.23,4.5-.23,16.09,4.09,22.4,12.63,7.34-6.06,18.23-3.12,22.27,2.86-6.08.84-11.93,11.66-11.48,15.83.25,2.33,1.57,11.46.34,20.67,14.97-11.01,15.54-29.64,11.54-40.57-4.4-12.07-15.84-21.6-39.23-21.87,2.48-7.86,9.8-14.48,20.09-14.15-9.95-12.97-5.39-34.11,3.54-39.92-1.35,11.46,9.12,13.64,14.52,23.41,1.05-2.44,2.38-4.2,4.39-5.55-11.65-25.27-43.55-41.61-59.41-68.91-17.6-30.25-10.75-54.8-16.19-62.3-1.44,3.12-4.89,4.84-8.9,4.84h-37.17c-.09.28-.19.57-.29.84-2.76,6.67-8.62,11.2-16.27,10.63-6.7-.49-12.96-5.63-14.97-12.65-3.63,0-10.19,3.31-18.9,7.08,1.53.65,2.28.38,2.3.52.02.15-.11.21-.44.23-4.89.45-8.2,3.44-15.17,4.82.74.42,1.25.73,2.41,1.07.61.18.88.22,1.19.22.14-.01.26.17-.02.22-.54.14-.98.27-1.2.36-4.75,2.06-7.39,4.54-14.54,3.14.79.67,1.86,1.83,3.98,2.08.28.05.18.22-.02.23-.8.06-1.49.22-1.89.37-4.89,1.88-13.18,3.7-16.12-1.05.17,1.17.49,2.35,1.57,3.11.09.06.07.22-.04.23-6.75.8-10.96-1.41-13.11-3.82-1.77.29-3.59.54-5.52.75-.65,0-1.37-.04-2.12-.09,5.67-1.8,10.01-4.26,12.48-6.32,13.42.56,16.6-7.04,16.66-13.04,2.21-.14,4.79-.76,6.72-2.28-.01.41-.08,1.09-.08,1.33,1.94-2.03,5.57-3.68,8.43-7.57,1.06-1.43,1.73-2.44,2.25-3.33.92-1.63,1.08-1.07.63-.08-.8,1.77-2.11,3.94-2.1,4.07.04.44.14,1.3.04,1.71,1.9-2.23,7.03-5.11,9.07-9.74.34-.77.87-.85.38.35-.29.7-.38,1.09-1.19,2.56.13,1.2.29,2.97-.07,4.05,1.79-1.38,5.81-1.83,9.55-4.26,1.74-1.14,3.26-2.17,4.6-4.59.45-.79,1.31-1.47.47.38-.42.94-.59,1.31-1.21,2.47-.18.85-.51,1.9-.97,3.06,4.41-2.65,8.85-5.18,11.43-6.32,5.76-2.56,10.32-4.29,13.98-4.46,4.03-.19,7.05,1.76,8.06,5.35,2.35,8.99-10,19.5-18.02,14.44,1.43,9.09,10.32,11.67,17.64,8.86,6.59-2.53,10.39-12.3,6.95-21.11,2.32,8.95-5.12,21.27-18.43,18.3,18.34-.79,19.33-20.16,13.92-24.21,2.19,1.35,3.89,2.96,5.22,4.72l37.62.04c10.14-6.31,19.72-2.54,26.29,4.44.55-1.18,1.45-2.82,2.89-4.43-1.05,1.76-1.35,4.02-1.11,6.45.08.09.15.19.22.27.76-2.01,2.5-5.37,6.08-6.84-2.83,2.03-4.3,5.66-5.03,8.18.5.69.97,1.38,1.41,2.06.79-2.59,3.06-8.33,8.02-10.87-4.8,4.91-6.09,10.48-6.41,13.62.89,1.71,1.5,3.31,1.78,4.62.25-10.06,7.98-18.79,14.58-22.27-3.14-1.07-11.11-1.93-18.09,3.12,2.83-2.92,6.78-5.1,10.41-6.23,9.22-2.88,17.9-.04,22.62,3.7,11.3,8.99,8.44,24.68-1.06,30.58-5.17,3.21-11.88,2.62-15.94-2.44-3.29-4.11-4.78-11.78,1.44-17.11-2.56,4.72-1.97,9.18.14,12.32-.17-1.51-.05-3.28.9-4.92-.49,3.09.57,6.15,2.3,8.04.74.45,1.53.81,2.34,1.05-.97-1.38-1.66-3.47-1.49-6.18,1.32,4.79,4.27,6.03,6.03,6.33,4.99-1.05,7.43-5.51,8-7.72-7.94,5.27-17.22-2.53-17.13-9.75,1.15,4.45,5.07,5.18,6.78,4.3,1.66-.85,2.7-3.13,1.41-5.92-.98-2.11-2.76-3.25-4.61-3.45-3.84-.42-6.92,1.59-9.31,4.06-8.03,8.32-7.6,20.09-5.19,32.99,4.15-.59,7.86.05,7.86.05-4.06,7.41-3.55,13-2.88,16.59-5.72,5.84-5.7,13.91-3.75,19.96-4.51-7.66-5.66-25.36,2.99-34.22-2.99-.6-16.98.64-13.23,19.57-1.96-5.37-2.41-9.46-1.89-12.57-.22-5-1.06-17.76-3.98-27.18,3.67,8.54,4.71,18.46,5.14,23.65.33-.6.67-1.14,1.07-1.61-.24-4.38-1.35-18.68-5.88-28.28,6.59,9.09,7.73,22.23,7.92,26.44.59-.4,1.21-.75,1.84-1.04-.95-26.58-13.02-43.2-28.51-39.29,9.65,2.75,12.78,15.68,13.43,24.85.67,9.43.18,27.28,10.35,46.16,16.87,31.33,52.36,47.43,64.21,73.41-6.92,2.91-9.3,9.75-9.19,19.75-3.04-21.22-15.98-22.74-18.91-32.85-11.47,21.23,5.74,36.83,8.44,39.08-9.45-4.49-19.32-2.58-23.31,4.95,4.89-.37,10.39.8,15.21,3.06,12.82,6.01,22.84,18.84,24.8,35.34,2.03,17.29-3.11,41.44-19.05,54.29,11.84-11.5,15.69-29.49,15.17-40.49-3.89,11.97-11.15,17.65-16.93,21.61,2.64-16.34-.85-28.28-1.3-33.84-.37-4.48.02-11.45,8.35-10.77-3.3,1.16-6.01,5.87-5.74,10.86,1.71-4.64,4.82-9.42,8.89-10.64-7.73-6.4-16.84-2.95-19.12,1.79-2.03-4.93-10.81-11.23-16.44-12.57,1.59,6.3-3.43,14.43.85,23.87,2.18.69,5.07,1.82,7.02,6.03-2.09-3.03-8.34-5.46-13.1-3.09-2.68,1.33-5.42,4.12-5.58,9.36,7.21-7.91,18.87-5.44,23.31,4.77,2.53,5.79,3.85,18.13-3.02,28.24,5.06-10.9,4.22-21.98,1.61-27.27-3.97-8.05-12.71-10.26-19.68-7.01,3.72-1.28,9.6-.33,13.76,5.87,4.64,6.9,5.81,22.27-11.45,30.09-11.3,5.13-24.61-.53-26.38-6.24-2.65-5.46,1.89-17.82,11.95-12.58-1.05.03-1.93.22-2.69.53.62.37,1.35.99,1.93,2.01-1.16-.92-2.15-1.35-2.86-1.53-.48.29-.89.65-1.23,1.05,1.83.58,4.71,1.89,6.2,4.7-2.56-2.4-5.21-3.37-6.87-3.77-.15.27-.28.56-.41.85,2.96.91,7.59,3.11,8.21,7.98-2.17-4.26-6.13-5.53-8.8-5.88-.06.37-.11.75-.14,1.1,4.31.62,9.52,4.73,8.9,8.31,1.58-.67,6.34-8.54.76-15.42-5.23-5.94-12.42-6.64-17.96-5.14-7.95,2.15-14.12,10.01-13.65,20.7.77-3.21,1.45-6.9,4.39-10.58-2.59,4.24-1.49,9.31-3.77,14.04-.03.89-.19,1.76-.46,2.58,2.99-2.26,3.68-6.57,3.9-8.7.29,4.44-.03,11.89-7.03,13.06-.41.32-.85.6-1.31.84,5.26.91,9.62-1.73,10.21-10.44.58,7.79-3.98,15.05-12.57,11.28-.57.12-1.15.18-1.75.18h-.28c2.64,2.9,10.49,4.28,14.61-.62-3.51,5.88-12.86,4.97-15.94.62h-1.2c3.98,8.22,23.07,11.72,22.03-12.83.2.57.34,1.09.49,1.64.71.82,4.98,5.33,15.19,7.57-8.22-.38-13.25-4.3-14.66-5.56.22,1.01.39,1.97.49,2.9,4.7,3.28,18.55,9.16,32.56,3.5-11.75,7.66-27.97,1.24-32.42-1.53.01.6.01,1.2-.02,1.77,5.41,2.86,26.82,12.5,43.4-4.44-10.8,17.71-35.6,11.38-43.7,6.8-.08.39-.14.81-.24,1.18,2.37,1.24,5.1,2.43,8.11,3.49,11.22,3.5,21.9,2.38,29.49-1.81,17.25-9.51,22.57-35.15,10.34-60.49,16.58,25.69,8.58,49.57-3.82,60.71-2.7,2.43-6.37,4.34-9.69,5.51h.14c2.83-.32,5.56-.82,8.22-1.47,6.33-3.43,15.6-11.58,18.53-25.89-.13,1.68-.37,3.26-.67,4.76.88-.41,3.59-1.74,5-3.24-1.57,2.43-4.47,3.93-5.21,4.29-.19.82-.4,1.61-.64,2.38,2.42-1.4,8.08-4.81,10.09-7.44-3.22,4.69-8.41,8.01-10.71,9.34-.41,1.12-.87,2.18-1.36,3.17,2.19-1.18,6.47-3.7,9.37-6.69-1.9,3.88-7.99,7.77-10.89,9.46-.41.66-.82,1.29-1.25,1.88,1.89-.62,4.91-1.82,7.54-3.76-3.2,3.28-7.07,5.37-9.72,6.53-1.07,1.2-2.15,2.23-3.22,3.11,41.25-15.18,57.01-70.16,29.59-101.97,27.33,27.49,16.94,59.81,8.34,76.64.59-.62,1.17-1.24,1.73-1.9,1.19-1.58,2.31-3.18,3.37-4.8,2.08-5.22,6.57-17.95,6.4-30.56,1.32,9.27,0,17.02-1.51,22.25.27-.56.57-1.09.83-1.65,4.44-10.95,5.54-24.47,1.12-40.59.33.52.62,1.02.9,1.53.13-3.59.28-17.21-3.32-35.06,5.89,17.76,4.95,33.12,4.54,37.34.41.84.77,1.67,1.1,2.51.86-9.39,1.56-22.16-2.27-40.03,7.74,19.59,5.23,41.77,4.54,48.01.38,2.26.56,4.46.56,6.55,5.49-22.39,2.9-45.15-3.07-62.8-.48-1.43-.99-2.82-1.49-4.18-7.8.9-10.49,8.2-10.87,14.91.66-1.74,1.55-3.54,2.7-4.81,3.71,8.76,5.56,31.03,5.56,32.39-2.79-9.44-5.99-15.36-8.02-19.47-.26-.56-.56-1.23-.8-1.92-5.38-13.15-.75-24.02,3.26-25.56,3.03-1.16,5.26-.07,7.12,1.7-13.65-34.74-32.62-44.02-33.5-56.27-.4-5.49,3.22-13.19,12.09-11.89-4.69,11.72-1.7,19.52,6.67,32.72,8.29,13.04,15.46,23.93,21.37,41.48,11.1,32.93,12.91,73.46-14.94,105.04m-112.03,1.84H134.53c-2.76,0-5,2.12-5,4.73s2.24,4.72,5,4.72h311.89c2.76,0,5-2.12,5-4.72s-2.24-4.73-5-4.73m-1.64,4.7c-1.73.78-5.23,1.01-6.95,1.04-1.7.02-293.02.02-294.72,0-1.72-.03-5.21-.26-6.96-1.04,1.69-.84,6.4-.98,6.96-.98h294.72c.56,0,5.27.14,6.95.98M56.04,261.44c1.12,19.09-13.28,32.46-17.89,35.27,4.95-5.06,16.38-19.76,17.89-35.27m10.35-43.01c7.87-8.65,17.48-25.11,6.36-37.01,8.72,13.87-2.49,31.23-6.36,37.01m13.78-18.31c-3.4,8.2-8.94,16.06-17.72,25.5,10.03-8.77,15.64-17.08,17.72-25.5m-25.45,17.19c-.35-4.11-2.86-9.11-6.4-11.92,12.61,17.08-14.12,34.15-22.41,53.47,15.99-22.23,31.73-28.75,42.77-50.09,5.58-10.82,4.49-27.18-7.98-29.14,1.27-2.6,8.36-6.3,14.06-3.94-10.29-6.23-25.2,3.82-25.68,14.58,3.75-3.58,9.92-4.27,14.38-.87,3.96,3.02,5.34,8.03,3.71,12.69-2.03,5.78-7.68,11.8-12.46,15.22m-20.97,63.57c.23,7.29-1.46,15.61-7.31,25.59,4.16-3.7,11.03-13.86,7.31-25.59m-10.27-14.31c.74.03,1.61.18,1.61.18,0,0,5.97-12.15,18.12-23.62-13.29,9.44-19.53,23.05-19.73,23.44m.48,81.46c.17-22.58,7.09-38.08,15.2-46.15-12.67,7.57-18.07,28.3-15.2,46.15m27.34-50.2c-12.91,3.54-20.22,17.64-20.7,21.79,3.32-7.45,9.79-16.97,20.7-21.79m36.8-120.63c.84,6.4-.9,13.81-3.49,19.32,3.94-5.28,5.85-14.48,3.49-19.32m-32.63,173.3c.89-4.16,9.67-17.63-.45-23.69,6.75,7.29.22,19.53.45,23.69m17.55,3.58c-7.26,3.05-8.78,13.82-5.85,20.12-1.8-11.01,2.13-18.26,5.85-20.12m451.86-92.65c-1.11,19.09,13.29,32.46,17.89,35.27-4.94-5.06-16.37-19.76-17.89-35.27m-10.34-43.01c-3.86-5.78-15.08-23.14-6.36-37.01-11.11,11.9-1.51,28.36,6.36,37.01m3.94,7.19c-8.78-9.44-14.33-17.3-17.73-25.5,2.08,8.42,7.72,16.73,17.73,25.5m-1.02-36.22c4.46-3.4,10.62-2.71,14.37.87-.47-10.75-15.39-20.81-25.68-14.58,5.72-2.35,12.8,1.35,14.07,3.94-12.48,1.96-13.56,18.32-7.98,29.14,11.04,21.34,26.78,27.85,42.76,50.09-8.29-19.32-35.01-36.39-22.4-53.47-3.54,2.81-6.05,7.81-6.4,11.92-4.78-3.42-10.43-9.44-12.46-15.22-1.64-4.66-.25-9.67,3.71-12.69m37.02,117.07c-5.85-9.99-7.54-18.3-7.32-25.59-3.71,11.73,3.15,21.89,7.32,25.59m1.35-39.72s.87-.15,1.61-.18c-.2-.39-6.44-14.01-19.72-23.43,12.15,11.46,18.11,23.61,18.11,23.61m-14.05,35.13c8.09,8.07,15.01,23.58,15.19,46.15,2.86-17.86-2.53-38.59-15.19-46.15m8.55,17.73c-.47-4.14-7.79-18.25-20.71-21.78,10.91,4.82,17.39,14.34,20.71,21.78m-54.02-123.09c-2.59-5.5-4.33-12.92-3.49-19.32-2.35,4.84-.45,14.04,3.49,19.32m29.15,153.98c.22-4.16-6.31-16.4.45-23.69-10.12,6.07-1.35,19.53-.45,23.69m-17.55,3.58c3.71,1.86,7.65,9.11,5.85,20.12,2.92-6.3,1.4-17.07-5.85-20.12M161.94,139.58c3.83,8.15,13.78,5.19,14.97,4.14-1.44.29-10.35,1.59-14.97-4.14m257.15-.03c-4.62,5.73-13.53,4.44-14.97,4.14,1.18,1.05,11.13,4,14.97-4.14m-114.43-61.38c-4.23,8.09,9.61,20.77,31.98,29.96,30.33,12.47,49.66,9.1,52.97,3.28,4.46-7.84-10.54-22.2-36.11-31.63-28.55-10.55-45.96-7.1-48.84-1.61m72.09,34.39c-12.39,1.95-40.38-5.31-57.65-17.74-9.83-7-10.08-11.69-9.27-13.73,1.39-3.49,7.74-4,7.74-4,0,0,11.43,7.27,11.76,22.25,1.64.75,3.24,1.41,4.8,2.03.09-1.8.18-6.9-1.67-11.76,2.93,4.13,3.41,10.25,3.47,12.45,9.5,3.54,17.13,4.75,20.22,4.15,3.42-5.57,6.3-8.28,12.44-11.13,1.61-.75-13.96-9.78-29.69-15.92,21.66,5.37,33.73,13.82,38.72,17.79-5.41,2.22-11.92,6.45-13.97,11.94,10.63-9.37,16.66-9.5,16.66-9.5,0,0,5.79,5.12,3.83,9.39-.97,2.1-3.69,3.27-7.38,3.81m-55.1-17.06c.41.22.82.45,1.23.66-.18-1.44-.95-5.94-3.65-9.28,1.71,3.06,2.27,7.13,2.42,8.62m-1.91-12.5c4.43,5.46,5.02,12.52,5.11,14.18.67.35,1.36.68,2.02,1.01-.04-1.6-.62-9.6-7.13-15.19m-87.02,4.67c-.61.41-.8,1.04-.68,1.78,2.8,12.36,7.95,19.28,8.86,21.03,1.04-.09,1.27-.09,1.9.01-2.8-4.18-5.73-9.38-9.14-20.48,2.85-1.53,3.77-4.53.86-6.38.36,1.34.04,2.81-1.8,4.04m12.82,27.43c-.67-.42-1.82-.65-3.07-.13,1.49.06,2.35,1.06,2.44,1.19,1.35,1.74,4.37,5.03,6.34,6.78.98-.35,1.27-.42,1.98-.69-1.42-1.22-3.78-3.46-4.67-4.4.88-2.31.17-6.2-4.49-7.21,2.11.8,2.09,3.23,1.47,4.47m9.32-14.24c-4.08.09-5.28-3.51-6.34-5.22.41-.11,1.16.13,1.67.15-1.93-3.16-.65-5.75-1.17-6.82.17.09,1.03.01,1.58.18-.08-2.63.35-3.13.13-4.44.96.47,1.55,1.38,1.55,1.38.35-2.27,2.2-3.9,2.2-3.9,0,0,1.51.98,2.31,3.53.51-.71,1.19-1.16,1.82-1.51.07.74.5,1.93.59,3.08-.42-.84-.88-1.2-1.35-1.4-.28.14-.59.49-.76.98.08.46.15.96.18,1.51-1.17-1.76-1.65-2.26-2.75-2.8-1.55.69-2.58,3.47-2.69,4.44-.28-.08-.99-.36-2.14-.45,1.49.96,1.64,1.23,2.34,2.14.49-.86,1.43-2.04,2.49-2.87.97.54,1.73,1.08,2.35,1.65.41-.55,1.58-2.05,3.13-2.49-1.48,1.18-2.13,3.47-2.18,3.62.57.9.79,1.91.64,3.16-.98-2.68-3.48-4.13-3.7-4.22,0,0-2.4,1.37-2.7,5.64,1.08.58,2.09.83,3.44,2.09,1.19-1.38,2.63-2.34,4.44-3.2.79-2.63.06-5.44.81-7.02.08,1.94,1,3.68.35,6.51.36-.15.67-.29,1.05-.44-.38,2.41-1.82,6.05-5.46,6.56.77,5.1,3.08,11.27,6.46,16.19-.67-3.73-.28-7.94,1.66-11.12l.03-.13c-1.61-7.7,3.81-12.49.05-15.36,4.48-.74,7.08,4.56,5.1,8.76,2.58-3.07,7.91-6.38,13.83-2.03-4.66,2.53-4.17,5.39-7.49,7.81,4.14,1.14,4.71,10.78-5.19,10.37,1.04-.76,1.91-1.62,2.62-2.88-.54-1.46-2.24-2.32-3.82-2.11-2.11.29-4.51,2.74-4.11,6.35.63,3.91,3.1,6.43,7.22,8.45,8.22,4,19.39.14,26.79-8.61-7.48,14.22-23.64,14.69-32.73,8.24-9.1-6.44-11.71-19.53-12.26-23.78m17.32-1.55c-2.88,1.81-5.8,5.84-6.72,10.69,3.95-3.67,8.3-1.61,9.09.74,1.16-3.31-.38-5.39-2.01-5.61,6.2-2.54,7.13-8.02,8.69-7.87-2.85-1.05-5.55-.13-9.06,2.06m253.78,37.12c2.07-3.05.01-9.12-5.78-11.29,5.62,4.32,3.79,12.1-2.42,12.21,2.47,1.97,6.75,1.21,8.2-.92m-175.55,6.52c-.44.85-.63,2.03-.42,2.66.21.64.84.73,1.15.17.56-1.03,1.17-2.35,1.91-2.9-1.21,3.38.55,5.12,2.74,2.32,1.57-1.98,2.65-5.31,2.65-5.31,0,0-.01,1.24.7,1.74,1.15.81,1.25-1.78,2.97-3.48-.24.48-.65,3.75.72,3.41,2.5-.65,3.55-5.76,3.67-6.41-.07.41-.12,2.46,1.39,2.05.95-.25,2.69-1.98,2.69-1.98,0,0-1.59,2.7-.26,2.24,4.54-1.47,8.62-8.08,9.71-10.08-4.37,3.55-9.51,2.95-13.27,6.9.18-.46,1.63-3.97,1.49-5.61-3.31,3.96-6.23,4.68-9.47,9.61.3-.86.93-3.37,1.18-4.95-1.73,2.48-7.31,5.25-9.55,9.63m-12.31,14.48c1.79.73,3.69.2,8.03-.79-2.5-1.09-4.54-3.31-7.87-2.35-1.09.32-1.71,1.14-.88,1.58.44.24,3.02.56,4.32.27-.85.62-3.1.67-3.59.69-.49.02-.42.43,0,.6m14.06-2.49c2.95.45,4.78-.79,9.13-1.78-2.52-1.09-7.42-5.21-12.75-3.1-2.51,1-1.24,2.19,1.51,2.46,1.38.14,2.31.3,3.85.19-.85.67-2.15,1.11-3.72,1.01-1.21-.07-.89.79,1.98,1.22m10.95-5.72c2.79-.62,7.58-3.1,7.58-3.1-2.46-.59-7.14-3.06-11.48-1.65-2.42.78-2.55,2.33-.67,2.54.82.08,3.11-.12,5-.49-1.64,1.59-4.4,1.58-4.65,2.02-.48.89,2.39,1.09,4.22.68m9.57-6.94c3.59-1.89,5.68-4.86,6.49-5.84-4.38,1.18-9.93,1.29-12.5,3.95-.83.86.27,1.29,1.37,1.21,1.14-.08,1.57-.13,3.29-.86-.58.62-1.63,1.14-1.97,1.51-1.22,1.35,1.29,1.08,3.32.03m4.52-.18c10.52-4.73,19.63-9.24,26.86-10.03,3.26-.36,6.26-.43,7.22.28.13-.59.22-1.18.28-1.76-2.56-.69-10.42-1.56-26.8,5.91,12.96-7.89,22.89-8.93,26.8-8.35-.05-.49-.15-.98-.26-1.46-3.09-.43-9.98-.23-22.7,5.17,8.47-5.23,17.43-7.11,22.03-7.08-.23-.48-.5-.92-.82-1.35-4.4.2-14.39,1.62-28.93,9.27,12.51-8.16,22-10.56,26.81-11.28-.8-.52-1.7-.9-2.74-1.15-7.48,1.16-16.65,5.87-24.4,10.27-.79,1.51-1.71,3.04-2.76,4.43,4.36-.92,5.37-1.85,6.88-3.03,1.79-1.39,1.9-.97.5.38-2.18,2.1-2.99,3.35-3.32,3.85-1.29,1.87-2.79,4.04-4.66,5.92m85.32-5.71c2.6,0,4.72-2.12,4.72-4.72s-2.12-4.71-4.72-4.71l-37.49-.04c.38.94.7,1.89.93,2.85h30.83s3.88.05,5.51,1.23c-1.81,1.19-5.35,1.24-5.35,1.24h-30.58c.29,1.74.04,3.73-.01,4.15h36.17m-129.66,11.9c5.48-.58,6.88-5.26,5.57-7.57-1.06.96-2.07,1.24-2.62,1.51.32,2.93-.43,4.29-2.95,6.05m14.59-13.56c4.75-.53,5.66-6.05,4.48-7.66-.76,1.01-1.55,1.68-2.62,2.03.42,1.26.34,3.95-1.86,5.63m.2-8.36c4.31-5.01,6.93-6.46,10.3-7.86-.99-.22-1.73-.43-5.1-1.2-1.58,1.04-6.14,5.77-7.42,9.09-.45,1.51,1.05,1.32,2.22-.03m-31.56-26.06c3.25,6.74.84,10.7,2.53,15.02,2.85,7.21,13.5,12.77,21.25,13.31-13.95-4.4-18.9-25.38-23.79-28.33m-3.32,8.93c-3.71,5.09-.91,12.73,5.5,18.48,5.06,4.55,12.49,7.48,17.97,8.39-6.44-1.41-15.5-5.8-19.39-14.21,7.56,9.44,21.73,12.21,26.98,8.1-9.87,1.62-26.49-6.69-26.93-17.71-.05-.91,0-2.14-.03-2.84-.03-.71-.09-1.24-.2-1.7-2.1.67-3.3,3.96-3.63,6.87-.79-2.12-.66-3.98-.27-5.38m12.91,31.54c-7.04-3.92-9.46-12.34-9.46-12.34,0,0-2.92-2.79-4.33-5.93-2.1,5.95,3.66,15.03,13.79,18.27m-20.09-6.91c3.59,6.77,11.03,12.02,18.26,14.12-5.27-2.05-13-7.61-14.82-13.25,3.23,6.14,17.8,13.5,24.44,8.07-7.27,1.07-14.66-2.9-19.58-8.27-3.25-3.54-5.02-9.23-2.72-13.4-.77-1.7-.79-2.45-1.27-3.82-5.18,2.15-8.9,7.88-4.3,16.56m9.14,16.9c-14.85,6.85-35.68,5.29-46.56,1.97,13.87,5.98,32.02,7.74,49.23-.27-1.06-.42-1.68-1.12-2.67-1.69m-83-5.21c-1.57-.09-2.59-.62-3.5-1.3,1.52.28,2.47.23,3.86.26,2.76.05,4.17-.98,1.8-2.26-5.03-2.73-9.82.52-12.45,1.3,4.2,1.49,4.92,2.47,7.67,2.77,2.28.25,3.57-.73,2.62-.78m-7.94-6.04c-.19-.47-2.95-.79-4.38-2.56,1.83.6,4.09,1.08,4.91,1.08,1.89.03,1.94-1.53-.37-2.6-4.09-1.89-8.95-.06-11.49.27.37.23,1.39.89,2.38,1.59,1.48.88,3.3,1.91,4.67,2.4,1.79.63,4.66.77,4.29-.18m25.49,12.11c-2.26-.4-6.52,2.35-6.52,2.35,0,0,4.44,1.63,7.7-.17-1.52-.06-1.8.11-3.37-.45,1.68-.56,3.53-1.5,2.19-1.73m-6.55-4.36c-4.07-1.41-7.22,1.6-9.07,2.5,3.29.6,3.94,1.23,6.03,1.11,1.72-.08,2.56-.98,1.85-.9-1.18.13-2-.14-2.76-.54,1.17.03,1.86-.13,2.9-.27,2.06-.3,2.97-1.24,1.05-1.9m-37.4-31.26c.84,2.1,4.1,9.16,8.43,11.16,1.27.61.01-2.26.01-2.26,0,0,1.52,1.92,2.44,2.28,1.45.58,1.64-1.45,1.62-1.86.03.65.46,5.84,2.88,6.78,1.31.53,1.3-2.78,1.11-3.28,1.51,1.89,1.3,4.48,2.54,3.81.76-.41.89-1.66.89-1.66,0,0,.69,3.45,2.01,5.59,1.85,3.04,3.79,1.52,3-1.99.86.81,1.27,2.85,1.81,3.92.34.7,1.97.94,1.61-1.65.33,1.55,1.21,4.48,3.06,4.16,1.75-.29,1.07-2.45.22-4.27-1.01-2.19-2.65-3.22-3.95-5.31-.07.87-.02,1.66.28,3.44-2.25-4.27-6.65-6.65-8.75-10.6.05,1.6.37,4.16.58,5.06-2.63-5.28-5.46-6.33-8.27-10.67-.34,1.62.7,5.28.82,5.76-3.25-4.36-8.43-4.37-12.34-8.42m-.23,9.1c.69,1.06,2.4,4.27,5.75,6.56,1.88,1.28,4.34,1.85,3.29.36-.29-.41-1.27-1.05-1.77-1.72,1.62.93,2.05,1.03,3.15,1.25,1.08.21,2.23-.09,1.5-1.05-2.23-2.93-7.72-3.71-11.93-5.39m-28.17,6.97c12.84,1.41,31.75,14.62,53.84,19.86-1.03-.53-2.03-1.1-2.92-1.8.02,0,.04-.01.07-.01-4.51-1.3-12.45-3.95-18.42-7.77,6.59,2.86,11.91,4.62,15.69,5.69-2.83-1.02-4.81-2.86-8.05-4.55-1.86-.69-4.3-1.76-6.29-3.15,3.29,1.23,6.16,2.21,7.61,2.69,1.37-.34,2.11-.73,3.27-1.19-6.05-.16-12-5.43-16.28-6.56.87-.24,1.63-.37,2.32-.45-8.61-5.01-21.7-12.99-31.75-14.53-1.16.26-2.15.73-3.02,1.35,4.46.53,14.36,2.69,27.71,11.39-15.14-7.97-25.45-9.36-29.58-9.54-.28.4-.55.81-.77,1.25,4.76-.16,14.41,1.48,25.86,8.84-15.2-7.06-23.15-7.35-26.55-6.87-.12.47-.2.96-.25,1.46,3.91-.59,13.83.44,26.8,8.35-16.39-7.47-24.24-6.6-26.8-5.92.06.58.15,1.17.28,1.76.95-.7,3.96-.63,7.22-.28m-113.76,5.26c-6.22-.12-8.05-7.89-2.42-12.21-5.79,2.17-7.85,8.24-5.78,11.29,1.45,2.13,5.72,2.89,8.2.92m55.31-10.36c-2.61,0-4.73,2.12-4.73,4.72s2.12,4.72,4.73,4.72h36.15c-.22-1.66-.14-2.93-.01-4.16h-30.57s-3.55-.05-5.35-1.23c1.63-1.18,5.51-1.23,5.51-1.23h30.83c.23-.97.54-1.91.92-2.85l-37.48.03"/>
  <path class="cls-1" d="m160.32,75.09l19.32,10.92-4.11,3.1-4.49-2.61-6.96,5.42,1.46,4.89-2.06,1.64-5.95-21.22,2.79-2.14Zm.5,5.56l2.56,8.91,5.51-4.29-8.07-4.62Zm174.16-22.29l4.18.99,4.71-20.43-4.62,1.33-4.27,18.11Zm36.17-10.29l-11.81-4.34-1.74,3.34,8.04,2.93-6.79,4.49c1.86.61,5.16,2.69,3.98,5.77-.96,2.49-3.2,3.09-5.31,2.23-1.9-.79-2.76-2.24-2.86-4.47l-2.82.68c.22,2.66,1.97,4.85,4.49,5.94l.56.24c4.78,1.95,8.78.24,10.18-3.54,1.14-3.07-.4-5.78-3.23-7.58l7.43-4.9-.12-.8Zm23.63,11.46l-8.04,3.86s.7.22,1.11.44c3.97,2.05,5.08,5.37,3.25,9.01-1.87,3.71-6.09,4.84-10.4,2.67-3.95-2-5.54-5.73-3.67-9.44,1.89-3.77,8.05-5.91,10.92-7.43.61-.34,2.83-1.36,2.83-1.36l3.99,2.25Zm-8.67,6.04l-.16-.07c-2.11-1.05-4.23.67-5.26,2.69-1,2.01-.75,4.35,1.2,5.33l.16.06c2.03,1.02,4.13-.46,5.16-2.49,1.05-2.09,1.01-4.47-1.1-5.52m-138.76-18.85c1.56,5.75-.86,10.95-7.26,12.7-6.34,1.73-11.05-1.47-12.63-7.32-1.49-5.54.48-11.01,7.21-12.82,6.46-1.76,11.14,1.77,12.69,7.44m-4.94,1.35c-1.45-5.39-4.33-7.75-7.25-6.95-3.05.82-4.18,4.32-2.76,9.66,1.36,5.11,4.16,7.6,7.2,6.77,3.1-.85,4.18-4.39,2.82-9.48m-54.78,9.52l5.47,10.15-14.79-4.96-3.76,2.19,10.03,17.7,1.94-1.16-7.16-12.71,18.67,6.36,1.27-.66-9.64-17.94-2.03,1.03Zm26.33-11.51l4.08,10.78-14-6.87-4.02,1.68,7.61,18.87,2.07-.89-5.42-13.54,17.67,8.77,1.36-.49-7.2-19.06-2.14.76Zm198.62,41.23c-2.19,3.48-6.51,4.23-10.42,1.78-3.59-2.27-4.82-6.13-2.62-9.65,2.25-3.57,8.59-5.12,11.58-6.37.64-.27,2.95-1.07,2.95-1.07l3.46,2.41-8.4,3.09s.67.27,1.07.53c3.54,2.29,4.5,5.89,2.37,9.29m-4.09-7.6l-.16-.08c-2-1.25-4.28.26-5.48,2.18-1.2,1.9-1.16,4.26.67,5.41l.16.08c1.93,1.2,4.15-.07,5.37-2,1.25-1.98,1.43-4.34-.57-5.59"/>
  <polygon class="cls-1" points="282.59 46.59 274.47 59.15 286.91 51.11 290.3 86.62 293.7 51.06 306.13 59.12 298.02 46.55 318.98 43.2 298.02 39.82 306.13 27.26 293.7 35.3 290.3 0 286.91 35.34 274.47 27.3 282.59 39.85 261.61 43.22 282.59 46.59"/>
  <path class="cls-1" d="m153.35,216.55c-5.34-3.09-12.48-4.89-17.08-6.94-3.52-1.65-5.05-4.45-3.55-7.49,1.58-3.21,7.09-4.49,14.2-2.39,4.5,1.35,8.43,4.09,11.56,7.01v-14.24c-6.54-2.75-13.79-3.93-21.43-3.62-6.64.27-11.83,2.21-16.08,5.8-3.88,3.31-6.42,8.09-6.59,14-.24,8.19,3.08,12.9,10.99,17.06,6.14,3.23,12.37,4.6,15.84,6.67,3.32,2.01,3.69,4.71,2.72,7.06-1.78,4.35-8.65,5.5-16.09,2.95-5.41-1.79-10.25-5.89-12.74-8.83v16.28c6.98,3.06,14.68,4.5,22.65,4.37,15.71-.24,24.73-8.61,25.29-19.49.38-8.13-2.05-13.8-9.69-18.23"/>
  <path class="cls-1" d="m460.67,299.81c-5.36-3.12-12.51-4.92-17.13-7.03-3.53-1.56-5.05-4.39-3.56-7.43,1.59-3.23,7.13-4.54,14.24-2.44,4.52,1.38,8.45,4.11,11.58,7v-14.21c-6.56-2.78-13.82-3.94-21.47-3.61-6.67.25-11.86,2.12-16.12,5.8-3.89,3.31-6.42,8.07-6.61,14.01-.24,8.23,3.09,12.9,11.03,17.1,6.16,3.25,12.4,4.64,15.89,6.72,3.32,1.92,3.69,4.67,2.71,7.07-1.77,4.29-8.68,5.52-16.15,2.97-5.41-1.88-10.25-5.91-12.74-8.85v16.23c6.99,3.07,14.72,4.61,22.69,4.48,15.76-.27,24.81-8.67,25.35-19.61.39-8.06-2.06-13.77-9.71-18.21"/>
  <path class="cls-1" d="m415.93,252.85c-2.34-5.38-1.83-7.82-.41-11.71.53-1.5,1.51-4,1.51-4h23.02s1.22,2.67,1.67,4c1.42,4.1,1.62,6.54-.6,11.73h29.72c-5.13-5.59-6.05-8.11-7.56-11.73-1.44-3.48-21.14-50.94-21.14-50.94h-23.52c1.67,3.38,2.51,6.23,1.37,9.36,0,0-14.71,38.4-16.11,41.69-2.74,6.43-3.29,7.07-7.36,11.63l19.41-.02Zm4.85-26.18l2.5-6.91c2.1-5.29,3.95-10.66,4.61-13.99.01-.08.07-.08.09-.01,1.01,4.12,2.64,9.06,4.96,14.23l2.86,6.64-15.03.03Z"/>
  <path class="cls-1" d="m124.15,336.02c-2.34-5.35-1.83-7.74-.4-11.69.53-1.46,1.5-4,1.5-4h23.03s1.22,2.72,1.66,4c1.43,4.16,1.63,6.56-.59,11.69h29.71c-5.12-5.56-6.03-8.03-7.55-11.69-1.43-3.5-21.15-50.94-21.15-50.94h-23.52c1.68,3.4,2.52,6.23,1.37,9.37,0,0-14.68,38.37-16.09,41.69-2.77,6.44-3.3,7.14-7.39,11.57h19.43Zm4.86-26.11l2.5-6.91c2.1-5.28,3.95-10.71,4.58-14.03.02-.06.08-.06.11-.01,1.04,4.1,2.66,9.08,4.98,14.27l2.84,6.65-15.01.02Z"/>
  <path class="cls-1" d="m206.91,252.84c-3.17-5.97-3.77-8.09-3.77-16.13,0,0-.05-34.77-.03-35.97.97-.01,4.34.01,5.19.05,6.06.29,8.16,1.44,13,5.07l-1.4-15.54h-53.6l-1.41,15.54c4.86-3.63,6.94-4.77,13.01-5.07.86-.04,4.23-.06,5.19-.05.03,1.2-.02,35.97-.02,35.97,0,8.04-.66,10.16-3.83,16.13h27.66Z"/>
  <path class="cls-1" d="m289.26,336.03c-3.17-5.98-3.78-8.01-3.78-16.06,0,0-.05-34.78-.02-35.99.97,0,4.7.01,5.57.07,6.24.3,8.37,1.41,13.34,5.01l-1.43-15.53h-54.96l-1.43,15.53c4.98-3.61,7.11-4.71,13.34-5.01.87-.06,4.6-.07,5.57-.07.03,1.21-.01,35.99-.01,35.99,0,8.05-.67,10.08-3.85,16.06h27.67Z"/>
  <path class="cls-1" d="m409.6,289.61c0-7.97.62-10.09,3.76-16.07h-27.63c3.15,5.98,3.83,8.1,3.83,16.07v30.36c0,8.05-.67,10.08-3.83,16.06h27.63c-3.14-5.98-3.76-8.01-3.76-16.06v-30.36Z"/>
  <path class="cls-1" d="m267.62,242.14h-17.67v-17.95h7.61c5.82,0,8.77,1.27,13.28,4.37l-1.42-14.84h-19.47v-12.98h15.16c5.8,0,8.77,1.23,13.28,4.33l-1.42-14.82h-51.19c3.16,5.97,3.84,8.05,3.84,16.1v30.35c0,8.05-.67,10.16-3.84,16.15h53.72s1.42-15.01,1.42-15.01c-4.5,3.1-7.46,4.31-13.3,4.31"/>
  <path class="cls-1" d="m309.72,206.35c0-8.05.63-10.13,3.78-16.1h-28.03c3.16,5.97,3.87,8.05,3.87,16.1v30.36c0,8.04-.7,10.15-3.87,16.13h51.68s1.56-15.75,1.56-15.75c-4.51,3.09-7.59,5.05-13.39,5.05h-15.61v-35.79Z"/>
  <path class="cls-1" d="m367.39,206.35c0-8.05.64-10.13,3.79-16.1h-28.03c3.15,5.97,3.86,8.05,3.86,16.1v30.36c0,8.04-.7,10.15-3.86,16.13h51.69s1.56-15.75,1.56-15.75c-4.52,3.09-7.61,5.05-13.43,5.05h-15.6l.02-35.79Z"/>
  <path class="cls-1" d="m244.23,327.69c-3.13-4.48-4.88-7.4-6.49-9.76-4.67-6.91-8.03-9.04-12.08-10.85-.04-.02-.02-.08.03-.08,8.71-.79,14.74-7.48,14.62-16.87-.05-4.89-2.08-10.09-6.81-13.23-3.98-2.64-8.6-3.36-17.5-3.36h-35.24c3.15,6,3.84,8.13,3.84,16.09v30.35c0,8.06-.68,10.08-3.84,16.07h26.8c-3.16-5.99-3.76-8.01-3.98-16.28v-8.59h.76c2.84,0,4.49.4,6.42,1.92,1.64,1.21,3.32,3.36,5.89,7.35,1.62,2.51,3.04,4.85,5.11,8.17,3.84,6.18,7.31,7.44,12.77,7.44h18.41c-4.34-3.07-6.88-5.78-8.7-8.36m-28.75-27.34c-3.19,1.68-7.48,1.37-11.9,1.37v-18.46c7.01-.02,10.15-.27,12.93,1.86,2.29,1.68,3.22,4.04,3.22,7.33,0,4.09-1.88,6.57-4.25,7.9"/>
  <path class="cls-1" d="m343.59,271.48c-19.86,0-35.99,13.12-35.99,33.33s16.13,33.38,35.99,33.38,35.98-13.11,35.98-33.38-16.11-33.33-35.98-33.33m0,56.32c-8.82,0-16-7.91-16-22.99s7.18-22.91,16-22.91,15.99,7.84,15.99,22.91-7.16,22.99-15.99,22.99"/>
</svg>