<?xml version="1.0" encoding="utf-8"?>
<!-- Generator: Adobe Illustrator 19.2.1, SVG Export Plug-In . SVG Version: 6.00 Build 0)  -->
<svg version="1.1" id="layer" xmlns="http://www.w3.org/2000/svg" xmlns:xlink="http://www.w3.org/1999/xlink" x="0px" y="0px"
	 viewBox="0 0 652 652" style="enable-background:new 0 0 652 652;" xml:space="preserve">
<style type="text/css">
	.st0{fill:#0F3D1D;}
</style>
<path class="st0" d="M593,314.2c-10.5,13.3-35.3,37.9-42.4,37.9c-3.5,0-4.2-5.5,1-11.9c11.5-13.8,34.5-41.5,34.5-41.5h-16.8
	c0,0-14.8,18.1-22.3,27.1c0,0,0,0.1-0.1,0.1c-10.5,13.3-24.9,26.7-33.9,26.6c-3.8,0-3.5-4.4,2.5-12c11-13.9,22-28,33-41.8h-16.1
	c-5,6.8-10.1,13.6-15.2,20.4c6.2-9.7,9.5-21.9,1.7-21.9c-11.7,0-29.5,10-39.1,22c-14.9,18.8-10.4,35.2,0.1,35.2
	c11.5,0.1,21.6-14.8,32-28.1c-8.7,11.9-10.7,28.1,0.1,28.1c9.2,0,21.8-10.2,31.7-23.9c-6.2,11.2-4.2,23.5,5.1,23.6
	c9,0,26.6-18.1,37.8-31.7c-6.3,8.2-12.7,16.4-19,24.6c-11.8,15.3-25.1,32.7-33.7,41.5c0.3,0.3,0.7,0.6,1,0.9
	c6.4-3.5,33.6-6.4,51.7-19.5c17.4-12.4,28.4-33.1,20.2-45.1c5.3,13.2-7,31.4-16.6,39.5c-10.5,8.8-23,14.9-36.4,17.8
	c2.3-2.4,4.5-5,6.6-7.6c20-25.2,60-75.9,60-75.9h-15.6C604.9,298.7,596.9,309.1,593,314.2z M510.6,326.5
	c-7.5,9.4-20.3,26.1-30.2,26.1c-11.7,0,11.6-26.8,23.7-42.2c4-5.1,10-11.1,15.1-11.1C526.1,299.2,519.6,315.2,510.6,326.5
	L510.6,326.5z"/>
<path class="st0" d="M474.2,315.8c11.6,0,19.8-18.6,9.4-18.5c-8,0-25.6,17.6-50.1,48.5c1.6-2.5,3.2-5,4.9-7.5
	c10.1-13.1,20.3-26.4,30.4-39.6h-15.2c-3,4-6,8-9.1,12.1c0.1-0.2,0.3-0.4,0.3-0.4c0.1,0-35.3,42.2-54.4,42.2c-2.6,0-4.1-1-4.2-3.6
	c0-6.4,7.6-15.6,14.9-25c4.1-5.2,8.1-10.3,12.2-15.6c9.3-11.9,14.1-11,14.2-6.7c0,4.3-7,14.5-15,21.5c-6,4.9-12.7,9-19.9,12.1
	c0,0,38.2-13.4,38.1-31.9c0-3.7-2.3-6.5-7.3-6.5c-7.8,0-25.6,10.4-35.6,21.6c-0.8,0.8-1.4,1.7-2.1,2.6c-0.5,0.6-0.9,1.1-1.3,1.8
	c-16.1,19.9-29.4,29.5-35.8,29.5c-4.3,0-1.5-6.6,4.5-14.2c10.7-13.7,30.8-39.6,30.8-39.6h-16.2c0,0-8.6,11.4-12.8,17.1
	c-19.7,24.5-33.9,36.8-40.2,36.7c-5,0-2.6-6.1,3.3-13.6c10.5-13.4,21-26.8,31.5-40.2h-16.2c0,0-13.9,17.6-20.7,26.3
	c-9.9,12.7-11.3,29.8,0.4,29.8c7,0,15.6-5.3,31.3-24.9c-7.6,11.5-6.9,24.7,3.4,24.7c6.8,0,16.1-3.7,35-28.9
	c-8.1,14-4.6,28.5,6.5,28.4c20.5-0.1,47.1-32.9,53.8-41.6c-10.1,13.3-20.1,26.7-30.2,40.1h15.9c6.1-9.1,37-44,44.7-47.6
	C471,307,467.8,315.8,474.2,315.8z"/>
<path class="st0" d="M273.4,367.9c-8,7-17.6,12.1-27.9,14.6c2.9-1.9,5.5-4.2,7.6-7.1c19.9-25.6,39.6-51.2,59.4-76.8H296
	c-4.6,6.3-9.1,12.6-13.6,18.9c5.9-9.6,9.5-20.4-0.6-20.4c-11.7,0-30.8,9.8-40.4,21.8c-15,18.8-11.5,35.2-1,35.2
	c9.6,0.1,22.7-12.8,33.4-25.5c-26.5,33.9-42,54-47.8,60.2c4.7-1.7,11.4-2.3,17.1-3.6c23.5-5.5,39.9-19.2,68.1-58.5
	C299.9,341.7,287.2,355.4,273.4,367.9z M241.4,351.9c-2.6,0-4.5-3.2,2.3-11.9c8-10.1,16-20.1,23.9-30.2c4.1-5.1,9.3-10.7,14.4-10.7
	c10,0,2.3,14.8-7.1,26.7C265.2,337.8,249.3,352,241.4,351.9L241.4,351.9z"/>
<path class="st0" d="M203.1,352.5c-1.6,0-3-0.6-3-2.6c0-6.2,29-26.5,28.8-43.5c0-4.7-2.1-9.6-8.1-9.6c-10.1,0.1-35.9,30-49,45.5
	c4.8-6.3,9.5-12.5,14.3-18.7c14.1-18.4,19.6-24.9,19.6-24.9h-15.5c-5.8,7.7-11.7,15.3-17.5,22.9c-19.7,23.8-34.6,30.7-41.3,30.7
	c-4.2,0-4.6-5.2,1.8-13.7c10.3-13.7,20.1-26.2,30.4-40h-16c-3.8,5.3-7.1,9.5-11,14.9c4.6-8.3,6.3-16.4-2.2-16.3
	c-11,0-29.4,9.4-38.8,21.3c-14.9,18.9-9.8,35.6,0.6,35.6c9.7,0,19.4-12.5,29-24.8c-8.4,11.9-7.4,25.1,3.8,25.1
	c5.7-0.1,18.8-2.1,38-25.6c-6,7.9-12,15.7-18.1,23.6h15.1c5.9-8.1,46-53.5,55.9-53.5c1.2,0,2.3,0.9,2.3,2.1
	c0.1,6.6-29.5,26.6-29.4,42c0,5.3,2.2,11.4,8.3,11.4c15.8,0,33.2-24.9,37.5-32.2C235.3,328.3,215.6,352.4,203.1,352.5z M97.2,352.3
	c-6.3,0-1.9-9,5-18.5c6-8.3,13.2-17.1,18.9-24c4.2-5.1,9.9-10.7,14.6-10.7c7.3,0,1.3,14.6-8.2,26.4
	C118,337.5,105.9,352.3,97.2,352.3z"/>
<path class="st0" d="M38.2,363.6c-2.9,0-5.7,0.2-8.5,0.7c11.2-2,21.2-8.3,27.8-17.7c13.4-18.6,28.2-37.2,41.6-55.9
	c8.6-12,18.6-20.8,26.3-22.1c29.6-0.2,53.2-7.7,54.9-14.4c-0.5,0.1-1,0.1-1.5,0.1c0,0-1.2,4.2-15.2,4.4c-24.7,0.2-48.2-7.1-74.5-6.9
	C62.2,251.8,30,268.9,30,294c0,3.7,1.8,3.7,2.4,3.7c1.4-0.1,2.9-0.2,4.3-0.2c0,0-3-0.9-3-8.6c1.6-15.1,14.2-26.6,29.4-26.9
	c23-0.1,37,6.1,58.8,6.6c-16.2,1.2-37.4,14.5-50.5,32.7c0.1,0-38.4,51-42.1,56.6c-2.4,3.6-5.4,6.9-8.9,9.5c15-5.3,25.8,0.2,32.6,0.1
	c2.6,0.3,5.1-0.8,6.6-2.9C55.3,366.4,48,363.5,38.2,363.6z"/>
<path class="st0" d="M611.6,367.1c-2.6,0-4.7,2.1-4.7,4.7c0,2.6,2.1,4.7,4.7,4.7c2.6,0,4.7-2.1,4.7-4.7c0,0,0,0,0,0
	c0-2.6-2-4.7-4.6-4.7C611.7,367.1,611.6,367.1,611.6,367.1z M611.6,375.6c-2.1,0-3.8-1.8-3.7-3.9c0-2.1,1.8-3.8,3.9-3.7
	c2.1,0,3.7,1.7,3.7,3.8C615.4,373.9,613.7,375.6,611.6,375.6L611.6,375.6z"/>
<path class="st0" d="M612.2,372.1c0.8,0,1.4-0.7,1.4-1.4c0-0.9-0.6-1.4-1.7-1.4c-0.8,0-1.6,0-2.4,0v5h1v-2.1h0.3
	c0.7,0,1,0.2,1.5,1.2c0.2,0.3,0.3,0.5,0.4,0.8h1.3c-0.1-0.4-0.4-0.7-0.5-1C612.7,372.4,612.6,372.3,612.2,372.1z M611.3,371.5h-0.9
	v-1.4h1c0.7,0,1.1,0.2,1.1,0.7C612.5,371.2,612.1,371.5,611.3,371.5L611.3,371.5z"/>
</svg>
