<?xml version="1.0" encoding="UTF-8"?>
<svg viewBox="0 0 620.1 193.38" xmlns="http://www.w3.org/2000/svg">
<defs>
<style>.cls-1{fill:#78009d;}</style>
</defs>
<g data-name="Capa 2">
<g data-name="Layer 1">
<path class="cls-1" d="M540,1.29A36.41,36.41,0,0,1,583.92,24c4.56,12.55,1.26,27.5-7.9,37.15-3.08,3.38-7.31,5.34-10.69,8.34-2.29,1.88-1.47,5.93,1.2,7,1.81,1,3.88.17,5.77-.12,9.79-2.27,19.54-4.74,29.34-7a13.42,13.42,0,0,1,15.22,7.74c1.26,3.76,2,7.67,2.93,11.54,1.52,6.56-2.74,13.86-9.3,15.55-9.92,2.61-20,4.78-29.89,7.35-3.49.86-6.86,3.4-7.44,7.15-.76,3.38,1.2,6.56,3.22,9.11q15.15,18.86,30.3,37.71a13.55,13.55,0,0,1,2.39,13.07c-1.75,5.31-7,8-11,11.53-5.26,4.71-14.24,4.2-18.77-1.27-8.06-9.62-15.85-19.47-23.8-29.18-1.7-2.05-4.23-4.13-7.08-3.4a11.79,11.79,0,0,0-5.1,4c-7.29,9.1-14.7,18.11-22,27.18a13.65,13.65,0,0,1-12.7,5.8c-5.63-.38-9.3-5.12-13.56-8.19-6-4.29-7.19-13.71-2.45-19.36,10-12.59,20.16-25.12,30.24-37.66,2.16-2.64,4.13-5.91,3.36-9.47-.49-3.79-4.07-6.18-7.5-7.07-9.73-2.45-19.5-4.68-29.22-7.13a13.46,13.46,0,0,1-10-14.77c.71-3.89,1.69-7.73,2.74-11.54a13.31,13.31,0,0,1,15.28-8.76c10.73,2.35,21.34,5.28,32.1,7.47,4,1.45,7.61-3.86,4.86-7-2.76-2.68-6.37-4.28-9.15-6.93-13.12-11.43-15.72-32.92-5.58-47.1A36.67,36.67,0,0,1,540,1.29Z"/>
<path class="cls-1" d="m154.92 15.25c10.39-3.94 23 1.47 27.35 11.69a21.93 21.93 0 0 1-24.47 30.5 21.89 21.89 0 0 1-17.23-18.72c-1.51-9.93 4.87-20.25 14.35-23.47z"/>
<path class="cls-1" d="M9.68,72.57c5.78-2.08,11.42-6.76,17.89-4.93a13.54,13.54,0,0,1,9,8.16c9.28,18.66,18.48,37.36,27.8,56,9.33-19.07,18.93-38,28.26-57.07,2.48-5.41,9-8.76,14.79-7.13,3.48,1,6.65,2.88,10,4.25s7,2.7,9,5.83A12.28,12.28,0,0,1,127,91c-14.72,26.3-29.57,52.52-44.3,78.8A16,16,0,0,1,75.15,177c-4.61,2-9.75.93-14.62,1.23a15.06,15.06,0,0,1-14-7.59q-21.45-38-42.86-76.11C1.74,91.22-.39,87.68.06,83.68.28,78.25,4.81,74.2,9.68,72.57Z"/>
<path class="cls-1" d="m209.65 70.74c4.74-2.27 10.19-5.1 15.44-2.54 6.09 2.28 7.87 9 10.62 14.23 8.33 16.36 16.13 33 24.62 49.26q14-28.47 28.2-56.89c2.43-5.5 9.06-8.88 14.91-7.17 3.43 1.07 6.57 2.86 9.88 4.22 3.06 1.4 6.53 2.47 8.64 5.28a12.43 12.43 0 0 1 0.91 14q-22.31 39.62-44.62 79.24a15 15 0 0 1-13.67 7.87c-5.51-0.32-11.53 1.07-16.53-1.94-3.13-1.58-5.16-4.54-6.76-7.54q-21.67-38.67-43.45-77.27a12.39 12.39 0 0 1 0-13.31c2.52-4.28 7.68-5.33 11.81-7.44z"/>
<path class="cls-1" d="m375.12 68.58c11.45-2 23.61-0.83 34.14 4.27a55.58 55.58 0 1 1-34.14-4.27zm7.49 33.19a22 22 0 0 0-16 11 21.88 21.88 0 0 0 20 32.62c11.58-0.12 21.72-11 20.83-22.61 0.12-12.56-12.53-23.18-24.83-21.01z"/>
<path class="cls-1" d="M153.89,69.07c4.87-.37,9.76-.08,14.64-.17,7.23-.23,13.23,6.59,13.08,13.64.15,26.7,0,53.4.07,80.11.21,5-1.63,10.33-6,13.19-5,3.63-11.46,2-17.19,2.38a13.93,13.93,0,0,1-13.7-7c-2-3.49-1.67-7.63-1.68-11.5q0-38.49,0-77A13.64,13.64,0,0,1,153.89,69.07Z"/>
</g>
</g>
</svg>
