<?xml version="1.0" encoding="utf-8"?>
<!-- Generator: Adobe Illustrator 27.1.1, SVG Export Plug-In . SVG Version: 6.00 Build 0)  -->
<svg version="1.1" id="Layer_1" xmlns="http://www.w3.org/2000/svg" xmlns:xlink="http://www.w3.org/1999/xlink" x="0px" y="0px"
	 viewBox="0 0 1673 2500" style="enable-background:new 0 0 1673 2500;" xml:space="preserve">
<style type="text/css">
	.st0{fill:#272728;}
</style>
<path class="st0" d="M1164.5,798c53,58.3,58.3,238.6,193.5,167c79.5-42.4,79.5-222.7-29.2-288.9c-87.5-50.4-135.2,18.6-167,103.4
	C1159.2,787.4,1159.2,792.7,1164.5,798L1164.5,798z M955.1,768.9c-58.3,45.1-95.4,175-198.8,129.9c-84.8-42.4-92.8-206.8,53-283.6
	c100.7-47.7,151.1,45.1,151.1,143.1C960.4,760.9,957.7,766.2,955.1,768.9L955.1,768.9z M1092.9,1094.9c55.7-5.3,42.4-58.3,0-68.9
	c-37.1-13.3-92.8-21.2-135.2-18.6c-71.6,0-68.9,55.7-31.8,66.3c29.2,8,47.7,10.6,71.6,42.4
	C1018.7,1158.6,1008.1,1102.9,1092.9,1094.9L1092.9,1094.9z M1355.3,172.5c68.9-116.6,190.9-95.4,251.8-37.1
	c66.3,63.6,79.5,137.8,53,188.2c-34.5,68.9-124.6,151.1-182.9,71.6c-26.5-37.1-79.5-79.5-111.3-90.1
	C1320.9,283.8,1312.9,244,1355.3,172.5z"/>
<path class="st0" d="M1633.7,684.1c-5.3-21.2-15.9-18.6-15.9-2.6c5.3,212.1-121.9,440-392.3,442.7c-68.9,0-47.7,108.7-175,53
	c-90.1-61-143.2,61-206.8-68.9c-15.9-37.1-37.1-53-63.6-61C512.4,981,427.5,612.5,663.5,315.6c45.1,29.2,63.6,34.5,114-13.3
	c23.9-23.9,68.9-50.4,92.8-58.3c55.7-21.2,87.5-45.1,37.1-153.8c-23.2-51.2-54.8-78.5-88.5-90.1h-90c-25.7,7.7-49.7,20.3-70.7,37.1
	c-68.9,55.7-114,143.1-29.2,246.5C390.4,445.5,348,644.3,353.3,819.3c5.3,182.9-39.8,167,18.6,352.6c5.3,15.9-8,15.9-15.9,10.6
	c-249.2-159.1-384.4-646.8,5.3-914.6c8-8,5.3-18.6-26.5,0C-1.9,445.5-33.7,790.1,22,1023.4c26.5,111.3-13.3,132.5,29.2,281
	c100.7,307.5,185.6,334,307.5,342c220,0,68.9-121.9,79.5-273c0-10.6,10.6-13.3,15.9,5.3c121.9,270.4,206.8,516.9,524.9,493.1
	c182.9-23.9,82.2-114,68.9-167c-135.2-448,193.5-554,100.7-116.6c-61,251.8,132.5,225.3,270.4,135.2
	C1559.4,1633.1,1734.4,1020.7,1633.7,684.1L1633.7,684.1z M1098.2,1216.9c-31.8,79.5-188.2,53-193.5-26.5c0-2.6,5.3-2.6,5.3,0
	c71.6,15.9,137.8,23.9,182.9,23.9C1095.6,1214.2,1098.2,1211.6,1098.2,1216.9L1098.2,1216.9z"/>
<path class="st0" d="M411.6,1784.2c0,42.4-34.4,76.8-76.9,76.9c-45.1,0-79.5-34.5-79.5-76.9c0-42.4,34.5-79.5,79.5-79.5
	C377.2,1704.6,411.6,1741.7,411.6,1784.2z M334.8,1691.4c-53,0-95.4,39.8-95.4,92.8c0,50.4,42.4,92.8,95.4,92.8
	c50.4,0,92.8-42.4,92.8-92.8C427.5,1731.1,385.1,1691.4,334.8,1691.4L334.8,1691.4z"/>
<path class="st0" d="M361.3,1797.4c-2.7,13.3-13.3,21.2-23.9,21.2c-18.6,0-31.8-15.9-31.8-34.5c0-18.6,10.6-34.4,29.2-34.4
	c13.3,0,23.9,8,26.5,18.6h13.3c-2.7-21.2-18.6-31.8-39.8-31.8c-26.5,0-45.1,21.2-45.1,47.7c0,26.5,18.6,47.7,47.7,47.7
	c18.6,0,31.8-13.2,37.1-34.5L361.3,1797.4L361.3,1797.4z M4961.6,844.5c0,71.6-58.1,129.7-129.7,129.7c-76,0-134.1-58.1-134.1-129.7
	c0-71.6,58.1-134.2,134.1-134.2C4903.4,710.3,4961.6,773,4961.6,844.5z M4831.9,688c-89.5,0-161,67.1-161,156.5
	c0,85,71.5,156.5,161,156.5c85,0,156.5-71.6,156.5-156.5C4988.4,755.1,4916.8,688,4831.9,688z"/>
<path class="st0" d="M4805,853.5h22.3l40.3,67.1h26.8l-44.7-67.1c22.4-4.5,40.2-13.4,40.2-40.3c0-31.3-17.9-44.7-53.6-44.7h-53.7
	v152.1h22.3L4805,853.5L4805,853.5z M4805,835.6v-44.7h26.8c17.9,0,35.8,0,35.8,17.9c0,26.8-17.9,26.8-35.8,26.8H4805z"/>
<path class="st0" d="M2743.1,1013.7c-26.8,0-49.2,13.5-58.1,35.8l-111.8,290.7l-8.9,31.3l-8.9-31.3l-89.4-281.7v-4.5
	c-8.9-22.4-31.3-40.3-58.1-40.3h-143.1c-31.3,4.5-53.7,26.8-53.7,62.6c0,8.9,4.5,17.9,4.5,26.8l17.9,62.6l-67.1,174.4l-13.4,31.3
	l-8.9-31.3l-85-281.7v-4.5h-4.5c-4.5-22.4-26.8-40.3-53.7-40.3h-143.1c-31.3,4.5-58.1,26.8-58.1,62.6c0,8.9,4.5,17.9,8.9,26.8
	l210.2,635.1c8.9,26.8,31.3,44.7,58.2,44.7c26.8,0,49.2-17.9,58.1-40.2l147.6-375.7l13.4-35.8l8.9,35.8l125.2,371.2
	c4.5,26.8,31.3,44.7,58.1,44.7c26.8,0,49.2-17.9,58.2-40.2l250.4-644c4.5-8.9,4.5-17.9,4.5-26.8
	C2801.3,1040.6,2774.4,1013.7,2743.1,1013.7L2743.1,1013.7z M3803,1013.7c-26.8,0-49.2,13.5-58.1,35.8l-111.8,290.7l-8.9,31.3
	l-8.9-31.3l-89.5-281.7v-4.5c-8.9-22.4-31.3-40.3-58.1-40.3h-143.1c-31.3,4.5-53.7,26.8-53.7,62.6c0,8.9,0,17.9,4.5,26.8l17.9,62.6
	l-67.1,174.4l-13.4,31.3l-8.9-31.3l-85-281.7l-4.5-4.5c-4.5-22.4-26.8-40.3-53.6-40.3h-143.1c-31.3,4.5-58.1,26.8-58.1,62.6
	c0,8.9,4.5,17.9,8.9,26.8l210.2,635.1c8.9,26.8,31.3,44.7,58.2,44.7c26.8,0,49.2-17.9,58.1-40.2l147.6-375.7l13.4-35.8l8.9,35.8
	l125.3,371.2c4.4,26.8,31.3,44.7,58.1,44.7c26.8,0,49.2-17.9,58.2-40.2l250.4-644c4.5-8.9,4.5-17.9,4.5-26.8
	C3861.2,1040.6,3834.3,1013.7,3803,1013.7L3803,1013.7z M4491.7,1013.7h-496.4c-31.3,0-53.6,22.4-53.6,53.7v657.4
	c4.4,31.3,26.8,53.7,58.1,53.7h138.6c31.3,0,53.7-22.3,53.7-53.7v-308.5h205.7c26.8,0,53.6-26.8,53.6-53.7
	c0-31.3-26.8-58.2-53.6-58.2H4192V1130h299.6c31.3,0,58.1-26.8,58.1-58.1C4549.8,1040.6,4523,1013.7,4491.7,1013.7L4491.7,1013.7z"
	/>
</svg>
